<?xml version="1.0" standalone="no"?>
<!DOCTYPE svg PUBLIC "-//W3C//DTD SVG 1.1//EN" "http://www.w3.org/Graphics/SVG/1.1/DTD/svg11.dtd" >
<svg xmlns="http://www.w3.org/2000/svg" xmlns:xlink="http://www.w3.org/1999/xlink" version="1.1">
<metadata>
Created by FontForge 20170731 at Wed Aug 23 13:00:40 2017
 By ,,,
Copyright 2017, The Mozilla Foundation
</metadata>
<defs>
<font id="ZillaSlabHighlight-Regular" horiz-adv-x="622" >
  <font-face 
    font-family="Zilla Slab Highlight"
    font-weight="400"
    font-stretch="normal"
    units-per-em="1000"
    panose-1="0 0 0 0 0 0 0 0 0 0"
    ascent="787"
    descent="-213"
    x-height="917"
    cap-height="917"
    bbox="-16 -252 3443 918"
    underline-thickness="50"
    underline-position="-150"
    unicode-range="U+0020-FB04"
  />
<missing-glyph horiz-adv-x="364" 
d="M33 0v666h265v-666h-265zM66 33h199v600h-199v-600z" />
    <glyph glyph-name="uniFB00" unicode="ff" horiz-adv-x="612" 
d="M624 622v-835h-636v1130h636v-230q-16 7 -33.5 9t-37.5 2q-82 0 -127 -67q-24 21 -61 39t-89 18q-72 0 -123.5 -48t-51.5 -128v-67h-64v-57h64v-331h-77v-57h249v57h-101v331h225v-331h-78v-57h249v57h-101v331h116v57h-116v87q0 105 82 105q23 0 40.5 -4t34.5 -11z
M172 445v70q0 57 33.5 87t81.5 30q35 0 64 -14t53 -36q-7 -24 -7 -54v-83h-225z" />
    <glyph glyph-name="uniFB01" unicode="fi" horiz-adv-x="566" 
d="M-12 -213v1130h590v-1130h-590zM398 388v-331h-77v-57h225v57h-77v388h-297v77q0 64 33 91t83 27q33 0 58 -7.5t37 -14.5l18 -75l58 7l-17 104q-26 19 -65 31.5t-83 12.5q-80 0 -136.5 -46.5t-56.5 -131.5v-75h-64v-57h64v-331h-77v-57h249v57h-101v331h226z" />
    <glyph glyph-name="uniFB02" unicode="fl" horiz-adv-x="566" 
d="M-12 -213v1130h590v-1130h-590zM320 0h226v57h-78v631h-70v-23q-26 20 -56.5 26.5t-70.5 6.5q-74 0 -122 -48t-48 -128v-77h-64v-57h64v-331h-77v-57h249v57h-101v331h119v57h-119v80q0 55 31 86t83 31q32 0 60 -8t52 -31v-546h-78v-57z" />
    <glyph glyph-name="uniFB03" unicode="ffi" horiz-adv-x="862" 
d="M-12 -213v1130h886v-1130h-886zM398 388v-331h-77v-57h249v57h-101v331h227v-331h-78v-57h225v57h-77v388h-297v77q0 64 33 91t83 27q33 0 58 -7.5t37 -14.5l19 -75l57 7l-17 104q-25 19 -64.5 31.5t-82.5 12.5q-108 0 -161 -73q-23 23 -62 43t-93 20q-72 0 -123.5 -48
t-51.5 -128v-67h-64v-57h64v-331h-77v-57h249v57h-101v331h226zM172 445v70q0 57 33.5 87t81.5 30q37 0 66 -15t54 -38q-9 -27 -9 -59v-75h-226z" />
    <glyph glyph-name="uniFB04" unicode="ffl" horiz-adv-x="861" 
d="M-12 917h885v-1130h-885v1130zM397 57h-77v-57h249v57h-101v331h119v57h-119v80q0 57 32 87t82 30q32 0 60 -8t52 -31v-546h-77v-57h225v57h-77v631h-71v-23q-26 20 -56.5 26.5t-70.5 6.5q-91 0 -138 -68q-23 25 -64 41.5t-89 16.5q-72 0 -123.5 -48t-51.5 -128v-67h-64
v-57h64v-331h-77v-57h249v57h-101v331h225v-331zM172 515q0 57 33.5 87t81.5 30q35 0 68 -13t52 -32q-10 -32 -10 -65v-77h-225v70z" />
    <glyph glyph-name="uni0066_uni0068.liga" unicode="fh" horiz-adv-x="860" 
d="M-12 -213v1130h884v-1130h-884zM468 57v204q0 50 36.5 92t98.5 42q44 0 73.5 -29.5t29.5 -101.5v-207h-77v-57h225v57h-77v228q0 89 -44 129t-109 40q-107 0 -156 -89v323h-71v-23q-25 20 -55.5 26.5t-70.5 6.5q-73 0 -121.5 -48t-48.5 -128v-77h-64v-57h64v-331h-77v-57
h249v57h-101v331h119v57h-119v80q0 57 32 87t82 30q32 0 60 -8t51 -31v-546h-77v-57h226v57h-78z" />
    <glyph glyph-name="uni0066_uni0062.liga" unicode="fb" horiz-adv-x="855" 
d="M-12 -213v1130h879v-1130h-879zM468 688h-71v-23q-25 20 -55.5 26.5t-70.5 6.5q-73 0 -121.5 -48t-48.5 -128v-77h-64v-57h64v-331h-77v-57h249v57h-101v331h119v57h-119v80q0 57 31.5 87t82.5 30q32 0 60 -8t51 -31v-473q0 -33 -4.5 -67t-8.5 -63h70q6 37 9 74
q45 -84 157 -84q70 0 114 36.5t64.5 92.5t20.5 115q0 106 -54.5 163t-137.5 57q-64 0 -101.5 -30t-57.5 -71v335zM743 227q0 -69 -32.5 -122.5t-106.5 -53.5q-55 0 -94.5 38.5t-41.5 92.5v67q2 49 40 96.5t102 47.5q55 0 94 -41.5t39 -124.5z" />
    <glyph glyph-name="uni0066_uni006A.liga" unicode="fj" horiz-adv-x="540" 
d="M-12 -213v1130h564v-1130h-244q70 2 115 49.5t45 162.5v446h-296v77q0 64 33 91t83 27q33 0 58 -7.5t37 -14.5l18 -75l58 7l-17 104q-26 19 -65 31.5t-83 12.5q-80 0 -136.5 -46.5t-56.5 -131.5v-75h-64v-57h64v-331h-77v-57h249v57h-101v331h225v-389q0 -72 -18 -105.5
t-45.5 -42.5t-54.5 -9l1 -55h-292z" />
    <glyph glyph-name="uni0066_uni006B.liga" unicode="fk" horiz-adv-x="821" 
d="M-12 -213v1130h845v-1130h-845zM397 57h-77v-57h212v57h-64v151h79l122 -151h-67v-57h210v57h-62l-148 184l118 147h69v57h-208v-57h70l-101 -126h-82v426h-71v-23q-25 20 -55.5 26.5t-70.5 6.5q-73 0 -121.5 -48t-48.5 -128v-77h-64v-57h64v-331h-77v-57h249v57h-101
v331h119v57h-119v80q0 57 32 87t82 30q32 0 60 -8t51 -31v-546z" />
    <glyph glyph-name="uni0066_uni00EC.liga" unicode="f&#xec;" horiz-adv-x="565" 
d="M-12 917h589v-1130h-589v1130zM546 0v57h-77v388h-297v94q0 102 74 102q14 0 32 -3.5t34 -16.5v59q-39 18 -76 18q-135 0 -135 -165v-88h-64v-57h64v-331h-77v-57h249v57h-101v331h226v-331h-77v-57h225zM551 547l-139 146l-46 -48l159 -125z" />
    <glyph glyph-name="uni0066_uni00EF.liga" unicode="f&#xef;" horiz-adv-x="567" 
d="M-12 917h591v-1130h-591v1130zM305 555h81v57q0 27 -32 56.5t-97 29.5q-73 0 -114.5 -45t-41.5 -124v-84h-64v-57h64v-331h-77v-57h249v57h-101v331h226v-331h-77v-57h225v57h-77v388h-297v84q0 57 17 86t64 29q52 0 52 -40v-49zM473 555h81v81h-81v-81z" />
    <glyph glyph-name="uni0066_uni0066_uni006A.liga" unicode="ffj" horiz-adv-x="839" 
d="M-12 917h863v-1130h-246q71 2 115.5 49.5t44.5 162.5v446h-296v77q0 64 33 91t83 27q33 0 58 -7.5t37 -14.5l19 -75l57 7l-17 104q-25 19 -64.5 31.5t-82.5 12.5q-108 0 -161 -73q-23 23 -62 43t-93 20q-72 0 -123.5 -48t-51.5 -128v-67h-64v-57h64v-331h-77v-57h249v57
h-101v331h226v-331h-77v-57h249v57h-101v331h226v-389q0 -72 -18 -105.5t-45.5 -42.5t-54.5 -9v-55h-589v1130zM172 515q0 57 33.5 87t81.5 30q37 0 66 -15t54 -38q-9 -27 -9 -59v-75h-226v70z" />
    <glyph glyph-name=".notdef" horiz-adv-x="364" 
d="M33 0v666h265v-666h-265zM66 33h199v600h-199v-600z" />
    <glyph glyph-name=".null" horiz-adv-x="0" 
 />
    <glyph glyph-name="nonmarkingreturn" horiz-adv-x="333" 
 />
    <glyph glyph-name="uni0020" unicode=" " horiz-adv-x="249" 
 />
    <glyph glyph-name="exclam" unicode="!" horiz-adv-x="236" 
d="M-12 917h260v-1130h-260v1130zM159 650h-83l14 -458h54zM75 0h90v97h-90v-97z" />
    <glyph glyph-name="quotedbl" unicode="&#x22;" horiz-adv-x="367" 
d="M-12 917h391v-1130h-391v1130zM124 377l5 273h-71l5 -273h61zM304 377l5 273h-71l5 -273h61z" />
    <glyph glyph-name="numbersign" unicode="#" horiz-adv-x="587" 
d="M-12 917h611v-1130h-611v1130zM518 182h-92l31 164h91v57h-80l23 118h-63l-23 -118h-176l23 118h-63l-23 -118h-100v-57h89l-31 -164h-88v-57h77l-24 -125h63l24 125h176l-24 -125h63l24 125h103v57zM218 346h176l-31 -164h-176z" />
    <glyph glyph-name="dollar" unicode="$" horiz-adv-x="467" 
d="M-12 917h491v-1130h-491v1130zM424 148q0 56 -27.5 86.5t-66 45t-73.5 21.5v171q42 -3 79 -26l11 -84l59 4l-6 115q-26 18 -61 30.5t-82 16.5v65h-42v-64q-67 -3 -115.5 -38.5t-48.5 -106.5q0 -76 52.5 -100.5t111.5 -37.5v-196q-51 5 -100 28l8 73l-60 5l-17 -114
q25 -16 69.5 -31t99.5 -18v-58h42v58q73 5 120 45t47 110zM126 392q0 73 89 79v-161q-37 10 -63 26t-26 56zM349 141q0 -43 -25.5 -64t-66.5 -26v184q39 -11 65.5 -31t26.5 -63z" />
    <glyph glyph-name="percent" unicode="%" horiz-adv-x="683" 
d="M-12 917h707v-1130h-707v1130zM173 244q71 0 109 40t38 108q0 70 -38.5 104.5t-100.5 34.5q-65 0 -106 -37.5t-41 -110.5q0 -71 39.5 -105t99.5 -34zM504 521l-174 -234l-230 -287h75l202 267l202 254h-75zM174 294q-80 0 -80 90q0 97 85 97q81 0 81 -90q0 -97 -86 -97z
M504 -10q70 0 108.5 40t38.5 108q0 70 -38.5 104.5t-100.5 34.5q-65 0 -106 -37.5t-41 -110.5q0 -71 39 -105t100 -34zM504 40q-79 0 -79 90q0 97 85 97q81 0 81 -90q0 -97 -87 -97z" />
    <glyph glyph-name="ampersand" unicode="&#x26;" horiz-adv-x="727" 
d="M-12 917h751v-1130h-751v1130zM425 299h98q-13 -45 -39 -91t-62 -81q-103 77 -165 192q83 41 151 85.5t68 120.5q0 61 -45 98t-115 37q-85 0 -132.5 -51.5t-47.5 -129.5q0 -69 38 -155q-52 -28 -90.5 -66.5t-38.5 -103.5q0 -81 58.5 -122.5t131.5 -41.5q47 0 90.5 16.5
t81.5 43.5q43 -28 89.5 -44t92.5 -16q58 0 108 28l-17 61q-39 -21 -81 -21q-33 0 -66.5 11t-65.5 30q47 46 80.5 99.5t52.5 100.5h105v63h-280v-63zM208 485q0 50 27.5 83.5t78.5 33.5q46 0 67.5 -25.5t21.5 -54.5q0 -54 -51 -92.5t-114 -71.5q-30 69 -30 127zM253 52
q-55 0 -95.5 27t-40.5 86q0 41 21 69.5t55 50.5q31 -56 74 -108.5t93 -92.5q-51 -32 -107 -32z" />
    <glyph glyph-name="quotesingle" unicode="'" horiz-adv-x="187" 
d="M-12 917h211v-1130h-211v1130zM124 377l5 273h-71l5 -273h61z" />
    <glyph glyph-name="parenleft" unicode="(" horiz-adv-x="274" 
d="M-12 917h298v-1130h-298v1130zM198 718q-82 -106 -121.5 -219t-39.5 -229q0 -114 38 -228.5t121 -224.5h69q-83 103 -124.5 220t-41.5 233q0 237 166 448h-67z" />
    <glyph glyph-name="parenright" unicode=")" horiz-adv-x="274" 
d="M286 917v-1130h-298v1130h298zM76 718h-67q166 -211 166 -448q0 -116 -41.5 -233t-124.5 -220h69q83 110 121 224.5t38 228.5q0 116 -39.5 229t-121.5 219z" />
    <glyph glyph-name="asterisk" unicode="*" horiz-adv-x="411" 
d="M-12 917h435v-1130h-435v1130zM338 601l-111 -73l6 122h-55l5 -121l-109 72l-29 -45l117 -67l-117 -65l29 -45l109 70l-5 -116h55l-5 117l110 -71l29 45l-118 65l118 67z" />
    <glyph glyph-name="plus" unicode="+" horiz-adv-x="417" 
d="M-12 917h441v-1130h-441v1130zM35 254h150v-146h53v146h144v54h-144v147h-53v-147h-150v-54z" />
    <glyph glyph-name="comma" unicode="," horiz-adv-x="197" 
d="M-12 -213v1130h221v-1130h-221zM74 114l-52 -216h69l53 216h-70z" />
    <glyph glyph-name="hyphen" unicode="-" horiz-adv-x="345" 
d="M-12 -213v1130h369v-1130h-369zM56 261v-61h231v61h-231z" />
    <glyph glyph-name="period" unicode="." horiz-adv-x="207" 
d="M-12 -213v1130h231v-1130h-231zM55 108v-108h97v108h-97z" />
    <glyph glyph-name="slash" unicode="/" horiz-adv-x="335" 
d="M-12 -213v1130h359v-1130h-359zM314 688h-69l-215 -688h69z" />
    <glyph glyph-name="uni0030" unicode="0" horiz-adv-x="571" 
d="M-12 917h595v-1130h-595v1130zM527 259q0 115 -58 193.5t-181 78.5q-120 0 -181.5 -78.5t-61.5 -196.5q0 -121 60.5 -193.5t178.5 -72.5q117 0 180 72.5t63 196.5zM450 262q0 -207 -164 -207q-81 0 -122 54t-41 152t40.5 151.5t123.5 53.5q84 0 123.5 -55t39.5 -149z" />
    <glyph glyph-name="uni0031" unicode="1" horiz-adv-x="382" 
d="M-12 917h406v-1130h-406v1130zM363 0v64h-117v457h-196v-64h122v-393h-122v-64h313z" />
    <glyph glyph-name="uni0032" unicode="2" horiz-adv-x="511" 
d="M-12 917h535v-1130h-535v1130zM74 487l-17 -110l58 -7l16 75q25 11 55 17t51 6q119 0 119 -100q0 -74 -84 -144.5t-226 -166.5l8 -57h406l11 139l-61 5l-9 -80h-260q55 33 123.5 79.5t119 105t50.5 127.5q0 55 -41.5 105t-139.5 50q-44 0 -93.5 -11.5t-85.5 -32.5z" />
    <glyph glyph-name="uni0033" unicode="3" horiz-adv-x="486" 
d="M-12 917h510v-1130h-510v1130zM64 479l-17 -110l58 -7l18 81q47 25 96 25q56 0 87.5 -28t31.5 -77q0 -42 -34 -82.5t-128 -44.5v-54q105 -3 147 -36t42 -92q0 -50 -27.5 -91t-107.5 -41q-63 0 -95 29t-46 69l-57 -20q12 -59 60 -100t140 -41q98 0 154.5 52t56.5 139
q0 57 -32 103t-121 61v4q70 22 97.5 63.5t27.5 90.5q0 77 -51.5 118t-130.5 41q-50 0 -95.5 -16.5t-73.5 -35.5z" />
    <glyph glyph-name="uni0034" unicode="4" horiz-adv-x="534" 
d="M-12 917h558v-1130h-558v1130zM406 -131v165h97l8 62h-105v425h-156l-233 -425l8 -62h309v-165h72zM334 96h-246l197 362h49v-362z" />
    <glyph glyph-name="uni0035" unicode="5" horiz-adv-x="508" 
d="M-12 917h532v-1130h-532v1130zM468 64q0 85 -39.5 129t-102 59.5t-132.5 15.5h-25t-25 -1v191h232l10 -81l61 6l-9 138h-362v-294l25 -24q41 3 84 3q81 0 143 -25.5t62 -119.5q0 -64 -34.5 -101.5t-106.5 -37.5q-54 0 -88.5 27t-48.5 71l-57 -20q12 -59 61.5 -99.5
t138.5 -40.5q101 0 157 53.5t56 150.5z" />
    <glyph glyph-name="uni0036" unicode="6" horiz-adv-x="528" 
d="M-12 917h552v-1130h-552v1130zM481 205q0 80 -42 139t-141 59q-79 0 -120 -34.5t-56 -75.5v10t1 11q1 136 34 209.5t126 73.5q89 0 144 -69l43 44q-36 44 -80 66t-106 22q-131 0 -184.5 -101.5t-53.5 -251.5q0 -137 47 -227t178 -90q111 0 160.5 63t49.5 152zM407 202
q0 -68 -31 -107t-103 -39q-73 0 -105 40t-41 104q4 46 37.5 93t115.5 47q68 0 97.5 -36t29.5 -102z" />
    <glyph glyph-name="uni0037" unicode="7" horiz-adv-x="467" 
d="M-12 917h491v-1130h-491v1130zM453 479l-10 42h-411v-174h66v111h277l-242 -588h73z" />
    <glyph glyph-name="uni0038" unicode="8" horiz-adv-x="535" 
d="M-12 917h559v-1130h-559v1130zM493 163q0 73 -48.5 113t-110.5 69q54 23 96 56.5t42 96.5q0 74 -59 118t-147 44q-91 0 -148.5 -46.5t-57.5 -119.5q0 -62 40.5 -98.5t94.5 -62.5q-59 -25 -105.5 -62t-46.5 -111q0 -84 61.5 -127t157.5 -43q99 0 165 46.5t66 126.5z
M398 493q0 -47 -32 -73t-88 -51q-56 25 -98.5 54t-42.5 79q0 45 36.5 70.5t92.5 25.5q54 0 93 -25.5t39 -79.5zM416 160q0 -52 -44 -80t-108 -28q-65 0 -106.5 30.5t-41.5 87.5q0 56 38 85.5t94 53.5q64 -29 116 -60t52 -89z" />
    <glyph glyph-name="uni0039" unicode="9" horiz-adv-x="528" 
d="M-12 917h552v-1130h-552v1130zM46 316q0 -80 42 -139t141 -59q79 0 120 35t56 75v-11t-1 -10q-2 -136 -34.5 -209.5t-125.5 -73.5q-89 0 -144 69l-43 -44q36 -44 80 -66t106 -22q131 0 184.5 101.5t53.5 251.5q0 136 -47.5 226.5t-177.5 90.5q-110 0 -160 -63.5
t-50 -151.5zM120 319q0 68 31 107t103 39q74 0 105.5 -40t40.5 -104q-4 -46 -37.5 -93t-115.5 -47q-67 0 -97 36t-30 102z" />
    <glyph glyph-name="colon" unicode=":" horiz-adv-x="219" 
d="M-12 917h243v-1130h-243v1130zM63 337h94v108h-94v-108zM63 0h94v108h-94v-108z" />
    <glyph glyph-name="semicolon" unicode=";" horiz-adv-x="227" 
d="M-12 917h251v-1130h-251v1130zM77 337h94v108h-94v-108zM152 114h-69l-53 -216h69z" />
    <glyph glyph-name="less" unicode="&#x3c;" horiz-adv-x="404" 
d="M-12 917h428v-1130h-428v1130zM347 14v69l-242 197l241 200v69l-318 -260v-20z" />
    <glyph glyph-name="equal" unicode="=" horiz-adv-x="574" 
d="M-12 917h598v-1130h-598v1130zM59 364h457v54h-457v-54zM59 144h457v52h-457v-52z" />
    <glyph glyph-name="greater" unicode="&#x3e;" horiz-adv-x="404" 
d="M-12 917h428v-1130h-428v1130zM375 269v20l-318 260v-69l241 -200l-242 -197v-69z" />
    <glyph glyph-name="question" unicode="?" horiz-adv-x="444" 
d="M-12 917h468v-1130h-468v1130zM104 460l13 96q47 39 108 39q55 0 83 -23t28 -57q0 -41 -30.5 -68.5t-70 -51.5t-70 -54t-30.5 -75q0 -38 30 -63.5t98 -21.5v50q-53 0 -53 41q0 33 31 58t71 50.5t71 59.5t31 85q0 63 -54 99t-130 36q-51 0 -98.5 -22t-77.5 -53l-8 -120z
M165 0h89v97h-89v-97z" />
    <glyph glyph-name="at" unicode="@" horiz-adv-x="902" 
d="M-12 917h926v-1130h-926v1130zM296 405l-18 -104l53 -6l19 77q44 28 99 28q53 0 74 -30.5t21 -81.5v-42q-18 1 -38 2t-40 1q-50 0 -98.5 -10t-80 -39t-31.5 -85q0 -71 46 -98t92 -27q55 0 94 30t59 67q8 -43 40.5 -70t85.5 -27q71 0 111.5 44t57.5 109t17 129
q0 142 -63 226t-155.5 120t-180.5 36q-124 0 -219 -59t-149 -157.5t-54 -218.5q0 -124 56 -219t151 -148.5t211 -53.5q71 0 135.5 19.5t114.5 52.5l-24 45q-45 -31 -102.5 -46.5t-114.5 -15.5q-96 0 -179.5 42.5t-135.5 125.5t-52 203q0 166 102 270.5t263 104.5
q78 0 155.5 -31t129 -106.5t51.5 -209.5q0 -48 -10 -97t-34 -82t-67 -33q-73 0 -73 72v193q0 149 -156 149q-57 0 -94 -13.5t-69 -35.5zM544 204v-31q-1 -57 -41.5 -92.5t-87.5 -35.5q-31 0 -57.5 17.5t-26.5 60.5q0 53 41 69.5t92 16.5q20 0 41 -1.5t39 -3.5z" />
    <glyph glyph-name="uni0041" unicode="A" 
d="M-12 917h646v-853h-79l-213 586h-186v-64h104l-193 -522h-79v853zM316 544l106 -298h-219l108 298h5zM634 -213h-646v213h228v64h-80l46 125h260l44 -125h-77v-64h225v-213z" />
    <glyph glyph-name="uni0042" unicode="B" horiz-adv-x="600" 
d="M-12 -213v1130h624v-1130h-624zM562 184q0 62 -34 108.5t-105 57.5v4q50 10 81 49t31 91q0 70 -48.5 113t-147.5 43h-299v-64h82v-522h-82v-64h304q108 0 163 53.5t55 130.5zM457 477q0 -54 -37.5 -82.5t-95.5 -28.5h-129v220h132q61 0 95.5 -24t34.5 -85zM484 188
q0 -65 -41.5 -94.5t-111.5 -29.5h-136v242h160q64 0 96.5 -31.5t32.5 -86.5z" />
    <glyph glyph-name="uni0043" unicode="C" horiz-adv-x="642" 
d="M-12 -213v1130h666v-1130h-666zM573 50l17 125l-62 6l-19 -96q-58 -29 -143 -29q-116 0 -183.5 73.5t-67.5 194.5q0 118 65.5 194t172.5 76q55 0 92 -12.5t69 -33.5l18 -95l63 6l-18 125q-40 34 -94.5 55t-135.5 21q-95 0 -164 -47t-107 -124.5t-38 -167.5
q0 -142 88 -236.5t230 -94.5q139 0 217 60z" />
    <glyph glyph-name="uni0044" unicode="D" horiz-adv-x="697" 
d="M-16 -213v1130h725v-1130h-725zM659 326q0 141 -86.5 232.5t-245.5 91.5h-271v-63h82v-524h-82v-63h274q154 0 241.5 91.5t87.5 234.5zM581 325q0 -121 -65.5 -191.5t-189.5 -70.5h-115v524h115q124 0 189.5 -72t65.5 -190z" />
    <glyph glyph-name="uni0045" unicode="E" horiz-adv-x="584" 
d="M-12 -213v1130h608v-1130h-608zM40 0h484l19 184l-63 7l-20 -127h-265v234h307v64h-307v224h256l20 -127l64 7l-20 184h-475v-64h82v-522h-82v-64z" />
    <glyph glyph-name="uni0046" unicode="F" horiz-adv-x="554" 
d="M-12 -213v1130h578v-1130h-578zM467 456l66 7l-21 187h-472v-64h82v-522h-82v-64h270v64h-115v205h299v64h-299v253h252z" />
    <glyph glyph-name="uni0047" unicode="G" horiz-adv-x="688" 
d="M-12 -213v1130h712v-1130h-712zM611 270h51v65h-279v-65h155v-58q0 -59 -49 -107.5t-138 -48.5q-107 0 -171 74t-64 195q0 119 67 194t176 75q60 0 98.5 -14.5t65.5 -32.5l20 -92l62 7l-18 122q-37 33 -95.5 54.5t-136.5 21.5q-93 0 -164.5 -45.5t-112 -122t-40.5 -170.5
q0 -140 83 -236t217 -96q72 0 125.5 28.5t82.5 71.5l9 -90h56v270z" />
    <glyph glyph-name="uni0048" unicode="H" horiz-adv-x="752" 
d="M-12 -213v1130h776v-1130h-776zM474 0h237v64h-82v522h82v64h-237v-64h82v-224h-361v224h82v64h-237v-64h82v-522h-82v-64h237v64h-82v236h361v-236h-82v-64z" />
    <glyph glyph-name="uni0049" unicode="I" horiz-adv-x="318" 
d="M-12 -213v1130h342v-1130h-342zM40 0h237v64h-81v522h81v64h-237v-64h82v-522h-82v-64z" />
    <glyph glyph-name="uni004A" unicode="J" horiz-adv-x="454" 
d="M-10 -213l-2 1130h478v-1130h-476zM346 586h72v64h-274v-64h129v-420q0 -49 -23.5 -78t-76.5 -29q-33 0 -57.5 14.5t-45.5 55.5l-53 -40q21 -44 59.5 -71.5t102.5 -27.5q79 0 123 44t44 132v420z" />
    <glyph glyph-name="uni004B" unicode="K" horiz-adv-x="638" 
d="M-12 -213v1130h662v-1130h-662zM399 0h234v64h-73l-200 274l187 249h74v64h-229v-64h77l-167 -225h-106v224h76v64h-232v-64h82v-522h-82v-64h231v64h-75v235h108l172 -235h-77v-64z" />
    <glyph glyph-name="uni004C" unicode="L" horiz-adv-x="540" 
d="M-12 -213v1130h564v-1130h-564zM40 0h459l20 208l-65 5l-20 -149h-239v522h109v64h-264v-64h82v-522h-82v-64z" />
    <glyph glyph-name="uni004D" unicode="M" horiz-adv-x="877" 
d="M-12 -213v1130h901v-1130h-901zM755 586h85v64h-150l-246 -509h-4l-253 509h-149v-64h85v-522h-82v-64h230v64h-78v417h4l223 -448h39l218 445h4v-414h-76v-64h231v64h-81v522z" />
    <glyph glyph-name="uni004E" unicode="N" horiz-adv-x="733" 
d="M-12 -213v1130h757v-1130h-757zM620 586h81v64h-249v-64h98v-437h-4l-370 501h-140v-64h86v-522h-75v-64h248v64h-103v448h4l377 -512h47v586z" />
    <glyph glyph-name="uni004F" unicode="O" horiz-adv-x="725" 
d="M-12 -213v1130h749v-1130h-749zM688 325q0 139 -90 237t-236 98q-144 0 -234.5 -97.5t-90.5 -237.5q0 -138 88 -236.5t235 -98.5q98 0 172 45.5t115 121.5t41 168zM609 324q0 -113 -65 -190.5t-180 -77.5q-118 0 -183 80t-65 190q0 112 65 190t181 78q113 0 180 -76.5
t67 -193.5z" />
    <glyph glyph-name="uni0050" unicode="P" horiz-adv-x="570" 
d="M-12 -213v1130h594v-1130h-594zM542 451q0 81 -52.5 140t-173.5 59h-276v-64h82v-522h-82v-64h267v64h-112v178h127q96 0 158 53.5t62 155.5zM464 449q0 -143 -151 -143h-118v280h115q80 0 117 -37t37 -100z" />
    <glyph glyph-name="uni0051" unicode="Q" horiz-adv-x="732" 
d="M-12 -213v1130h756v-1130h-756zM688 325q0 139 -90 237t-236 98q-144 0 -234.5 -97.5t-90.5 -237.5q0 -138 88 -236.5t235 -98.5q107 0 188 57l79 -80l46 46l-75 76q42 46 66 106.5t24 129.5zM609 324q0 -112 -61 -184l-122 124l-47 -46l121 -122q-57 -40 -136 -40
q-118 0 -183 80t-65 190q0 112 65 190t181 78q113 0 180 -76.5t67 -193.5z" />
    <glyph glyph-name="uni0052" unicode="R" horiz-adv-x="613" 
d="M-12 -213v1130h637v-1130h-637zM475 0h130v64h-82l-116 222q69 18 104 67.5t35 112.5q0 79 -52 131.5t-173 52.5h-281v-64h82v-522h-82v-64h243v64h-87v208h139zM469 463q0 -61 -36 -95.5t-119 -34.5h-118v253h116q83 0 120 -29.5t37 -93.5z" />
    <glyph glyph-name="uni0053" unicode="S" horiz-adv-x="529" 
d="M-12 -213v1130h553v-1130h-553zM488 182q0 74 -35.5 111.5t-85 53t-93.5 25.5q-55 13 -100 34t-45 82q0 52 37.5 79.5t98.5 27.5q29 0 61 -5.5t63 -21.5l10 -97l60 6l-6 129q-31 24 -86 39t-109 15q-84 0 -145.5 -44t-61.5 -136q0 -64 30 -97.5t75 -49t91 -25.5
q60 -14 111 -36.5t51 -96.5q0 -66 -46.5 -93.5t-110.5 -27.5q-36 0 -69 6t-66 23l4 82l-60 6l-14 -128q73 -53 209 -53q99 0 165.5 49t66.5 143z" />
    <glyph glyph-name="uni0054" unicode="T" horiz-adv-x="568" 
d="M-12 -213v1130h592v-1130h-592zM485 447l65 5l-20 198h-492l-19 -198l64 -5l20 139h144v-522h-112v-64h300v64h-115v522h145z" />
    <glyph glyph-name="uni0055" unicode="U" horiz-adv-x="714" 
d="M-12 -213v1130h738v-1130h-738zM615 586h63v64h-225v-64h93v-319q0 -211 -187 -211q-94 0 -139 53t-45 149v328h90v64h-231v-64h67v-330q0 -105 54.5 -185.5t199.5 -80.5q100 0 156.5 40.5t80 104t23.5 132.5v319z" />
    <glyph glyph-name="uni0056" unicode="V" horiz-adv-x="606" 
d="M230 586v64h-242v267h630v-267h-238v-64h92l-162 -478h-5l-166 478h91zM618 -213h-630v799h71l215 -586h58l215 586h71v-799z" />
    <glyph glyph-name="uni0057" unicode="W" horiz-adv-x="887" 
d="M224 586v64h-236v267h911v-267h-234v-64h95l-107 -470h-4l-151 470h65v64h-225v-64h66l-150 -467h-5l-116 467h91zM899 -213h-911v799h67l165 -586h60l165 520h5l170 -520h59l154 586h66v-799z" />
    <glyph glyph-name="uni0058" unicode="X" horiz-adv-x="629" 
d="M-12 -213v1130h653v-1130h-653zM396 0h227v64h-62l-209 273l189 249h72v64h-220v-64h66l-144 -200l-151 200h73v64h-222v-64h65l193 -250l-202 -272h-67v-64h224v64h-77l159 222l166 -222h-80v-64z" />
    <glyph glyph-name="uni0059" unicode="Y" horiz-adv-x="570" 
d="M232 586v64h-244v267h594v-267h-240v-64h89l-138 -270h-5l-145 270h89zM582 -213h-594v799h72l190 -337v-185h-111v-64h299v64h-115v184l182 338h77v-799z" />
    <glyph glyph-name="uni005A" unicode="Z" horiz-adv-x="574" 
d="M-12 -213v1130h598v-1130h-598zM32 0h480l26 193l-63 9l-28 -138h-314v3l386 543l-2 40h-448l-25 -188l62 -9l28 133h280v-3l-384 -539z" />
    <glyph glyph-name="bracketleft" unicode="[" horiz-adv-x="295" 
d="M-12 -213v1130h319v-1130h-319zM82 750v-956h177v52h-114v852h114v52h-177z" />
    <glyph glyph-name="backslash" unicode="\" horiz-adv-x="335" 
d="M347 -213h-359v1130h359v-1130zM21 688l215 -688h69l-215 688h-69z" />
    <glyph glyph-name="bracketright" unicode="]" horiz-adv-x="295" 
d="M307 -213h-319v1130h319v-1130zM213 750h-177v-52h114v-852h-114v-52h177v956z" />
    <glyph glyph-name="asciicircum" unicode="^" horiz-adv-x="448" 
d="M-12 917h472v-1130h-472v1130zM200 656l-161 -283h66l117 214l123 -214h66l-166 283h-45z" />
    <glyph glyph-name="underscore" unicode="_" horiz-adv-x="530" 
d="M-12 917h554v-1130h-554v1130zM50 -125h432v51h-432v-51z" />
    <glyph glyph-name="grave" unicode="`" horiz-adv-x="170" 
d="M161 520l-173 104l40 59l154 -132z" />
    <glyph glyph-name="uni0061" unicode="a" horiz-adv-x="479" 
d="M-12 -213v1130h503v-1130h-503zM79 411l-16 -103l58 -7l17 77q37 18 86 18q60 0 80.5 -30t20.5 -78v-40q-18 2 -38.5 3t-40.5 1q-75 0 -141.5 -26.5t-66.5 -110.5q0 -71 45.5 -98t89.5 -27q54 0 92.5 28t59.5 64v-2q2 -90 81 -90q31 0 58 15l-1 46q-13 -6 -30 -6
q-38 0 -38 48v212q0 149 -159 149q-44 0 -83 -10t-74 -33zM325 167q-4 -55 -44.5 -87t-86.5 -32q-29 0 -56 16t-27 59q0 52 40.5 67.5t90.5 15.5q22 0 43 -2t40 -3v-34z" />
    <glyph glyph-name="uni0062" unicode="b" horiz-adv-x="527" 
d="M-12 -213v1130h551v-1130h-551zM493 234q0 106 -54 163t-137 57q-64 0 -101.5 -30t-57.5 -71v335h-147v-57h76v-501q0 -33 -4 -67t-9 -63h70q1 4 5 37t4 37q45 -84 156 -84q71 0 115 36.5t64 92.5t20 115zM419 227q0 -69 -32.5 -123t-106.5 -54q-58 0 -97.5 39t-39.5 95
v67q1 49 39 96t102 47q57 0 96 -42t39 -125z" />
    <glyph glyph-name="uni0063" unicode="c" horiz-adv-x="457" 
d="M-12 -213v1130h481v-1130h-481zM426 150l-60 13q-20 -113 -120 -113q-66 0 -101 45t-35 125q0 72 31 123t102 51q55 0 95 -25l17 -75l58 7l-17 107q-34 26 -71 36t-81 10q-104 0 -156 -73t-52 -165q0 -107 55 -166.5t147 -59.5t135.5 51t52.5 109z" />
    <glyph glyph-name="uni0064" unicode="d" horiz-adv-x="546" 
d="M-12 -213v1130h570v-1130h-570zM386 0h147v57h-77v631h-178v-57h108v-258q-45 81 -149 81q-109 0 -155 -77t-46 -166q0 -104 52.5 -162.5t138.5 -58.5q61 0 99 30t60 70v-90zM386 268v-71q-2 -50 -41.5 -98.5t-99.5 -48.5q-58 0 -96.5 42t-38.5 124q0 70 34.5 124
t108.5 54q53 0 92 -35t41 -91z" />
    <glyph glyph-name="uni0065" unicode="e" horiz-adv-x="466" 
d="M-12 -213v1130h490v-1130h-490zM433 128l-59 13q-10 -41 -40 -66t-83 -25q-135 0 -141 156h313q6 27 6 53q-1 79 -49 137t-140 58q-94 0 -149 -67t-55 -171q0 -108 58 -167t152 -59q82 0 130 40.5t57 97.5zM355 258h-244q7 56 36 97t91 41q65 0 93.5 -44t23.5 -94z" />
    <glyph glyph-name="uni0066" unicode="f" horiz-adv-x="335" 
d="M-12 -213v1130h359v-230q-16 7 -42.5 9t-46.5 2q-64 0 -110.5 -46t-46.5 -124v-83h-64v-56h64v-332h-77v-57h249v57h-101v332h115v56h-115v87q0 105 81 105q23 0 50 -4t44 -11v-835h-359z" />
    <glyph glyph-name="uni0067" unicode="g" horiz-adv-x="545" 
d="M-12 -213v1130h569v-1130h-309q100 4 154.5 65.5t54.5 163.5v372h72v57h-143v-70q-45 79 -151 79q-103 0 -151 -77t-48 -166q0 -105 56 -161t135 -56q63 0 101 29t58 68v-72q0 -83 -40.5 -127t-104.5 -44q-45 0 -87 23t-59 75l-56 -28q17 -64 68.5 -96t116.5 -35h-236z
M386 269v-77q-2 -50 -41.5 -93.5t-102.5 -43.5q-55 0 -93 39.5t-38 121.5q0 70 33.5 123.5t109.5 53.5q54 0 93 -34t39 -90z" />
    <glyph glyph-name="uni0068" unicode="h" horiz-adv-x="556" 
d="M-12 -213v1130h580v-1130h-580zM323 0h226v57h-77v228q0 89 -44 129t-109 40q-107 0 -156 -89v323h-148v-57h77v-574h-77v-57h225v57h-77v210q2 49 38.5 88.5t94.5 39.5q46 0 75.5 -29.5t29.5 -101.5v-207h-78v-57z" />
    <glyph glyph-name="uni0069" unicode="i" horiz-adv-x="277" 
d="M-12 -213v1130h301v-1130h-301zM103 651v-91h76v91h-76zM32 0h226v57h-78v388h-150v-57h80v-331h-78v-57z" />
    <glyph glyph-name="uni006A" unicode="j" horiz-adv-x="247" 
d="M-12 917h271v-1130h-244q70 2 115 48t45 161v449h-170v-57h99v-392q0 -72 -17.5 -104.5t-44 -41t-54.5 -8.5v1075zM99 560h76v91h-76v-91z" />
    <glyph glyph-name="uni006B" unicode="k" horiz-adv-x="517" 
d="M-12 -213v1130h541v-1130h-541zM297 0h210v57h-63l-147 184l119 147h68v57h-208v-57h69l-102 -126h-80v426h-150v-57h79v-574h-77v-57h212v57h-64v151h79l122 -151h-67v-57z" />
    <glyph glyph-name="uni006C" unicode="l" horiz-adv-x="262" 
d="M-12 -213v1130h286v-1130h-286zM18 0h226v57h-78v631h-149v-57h79v-574h-78v-57z" />
    <glyph glyph-name="uni006D" unicode="m" horiz-adv-x="860" 
d="M-12 -213v1130h884v-1130h-884zM639 0h213v57h-78v228q0 89 -42.5 129t-106.5 40q-58 0 -97.5 -30t-59.5 -77q-14 55 -52.5 81t-90.5 26q-53 0 -90 -26t-59 -66v83h-149v-57h79v-331h-78v-57h230v57h-82v206q2 43 34.5 87.5t94.5 44.5q43 0 71 -29t28 -102v-207h-64v-57
h212v57h-77v204q1 42 34 88t94 46q44 0 72.5 -29.5t28.5 -101.5v-207h-65v-57z" />
    <glyph glyph-name="uni006E" unicode="n" horiz-adv-x="570" 
d="M-12 -213v1130h594v-1130h-594zM337 0h225v57h-77v228q0 89 -44 129t-109 40q-108 0 -156 -88v79h-150v-57h80v-331h-78v-57h226v57h-78v208q2 51 38.5 90.5t96.5 39.5q45 0 74 -29.5t29 -101.5v-207h-77v-57z" />
    <glyph glyph-name="uni006F" unicode="o" horiz-adv-x="509" 
d="M-12 -213v1130h533v-1130h-533zM255 455q-108 0 -164 -69.5t-56 -166.5q0 -101 57.5 -165t158.5 -64q103 0 163 66t60 167q0 95 -55 163.5t-164 68.5zM253 50q-71 0 -108 50t-37 123q0 74 37.5 123t107.5 49t108.5 -47.5t38.5 -123.5q0 -75 -38 -124.5t-109 -49.5z" />
    <glyph glyph-name="uni0070" unicode="p" horiz-adv-x="545" 
d="M90 -156h-79v-57h-23v1130h569v-1130h-294v57h-103v221q46 -75 147 -75q73 0 117.5 36.5t65 93t20.5 115.5q0 103 -53 161t-139 58q-62 0 -100 -31t-58 -71v93h-150v-57h80v-544zM436 229q0 -71 -34 -125t-109 -54q-55 0 -94 38t-39 94v66q2 51 41 98.5t99 47.5
q58 0 97 -42.5t39 -122.5z" />
    <glyph glyph-name="uni0071" unicode="q" horiz-adv-x="529" 
d="M525 -213v57h-68v463q0 35 4 69t11 69h-70q-4 -19 -6 -38.5t-4 -38.5q-21 41 -63.5 63.5t-94.5 22.5q-70 0 -114 -36.5t-64 -93t-20 -114.5q0 -106 54 -163t137 -57q63 0 101 30t58 71v-247h-104v-57h-294v1130h553v-1130h-16zM386 197q-2 -50 -40.5 -98t-101.5 -48
q-56 0 -94.5 41.5t-38.5 124.5q0 69 32.5 122.5t105.5 53.5q56 0 96.5 -36.5t40.5 -92.5v-67z" />
    <glyph glyph-name="uni0072" unicode="r" horiz-adv-x="416" 
d="M-12 -213v1130h440v-1130h-440zM282 453q-38 0 -67.5 -25.5t-42.5 -62.5v80h-146v-57h80v-331h-78v-57h251v57h-103v219q0 52 26 84.5t65 32.5q17 0 34 -6l17 -76l57 7l-17 112q-28 23 -76 23z" />
    <glyph glyph-name="uni0073" unicode="s" horiz-adv-x="433" 
d="M-12 -213v1130h457v-1130h-457zM397 129q0 53 -28 78.5t-69 35.5t-82 16.5t-69 21t-28 49.5q0 34 27 50t69 16q49 0 91 -22l11 -72l58 7l-11 104q-28 17 -68.5 29t-86.5 12q-61 0 -113 -29t-52 -100q0 -52 28 -76.5t70 -34.5t83.5 -17t69.5 -22t28 -52q0 -38 -36.5 -56.5
t-83.5 -18.5q-53 0 -99 22l3 59l-56 6l-14 -101q29 -19 75.5 -31.5t93.5 -12.5q80 0 134.5 37t54.5 102z" />
    <glyph glyph-name="uni0074" unicode="t" horiz-adv-x="367" 
d="M-12 -213v1130h391v-1130h-391zM353 120l-54 17q-10 -54 -28.5 -70t-43.5 -16q-41 0 -56.5 24.5t-15.5 64.5v249h174v56h-174v143h-70v-143h-72v-56h72v-258q0 -65 33.5 -103t100.5 -38q114 0 134 130z" />
    <glyph glyph-name="uni0075" unicode="u" horiz-adv-x="558" 
d="M-12 -213v1130h582v-1130h-582zM394 0h150v57h-80v388h-163v-57h93v-204q-2 -48 -38.5 -91t-93.5 -43q-47 0 -77 29t-30 101v265h-148v-57h78v-228q0 -89 44.5 -129.5t109.5 -40.5q53 0 93.5 26t61.5 68v-84z" />
    <glyph glyph-name="uni0076" unicode="v" horiz-adv-x="505" 
d="M-12 -213v1130h529v-1130h-529zM434 388h64v57h-195v-57h61l-101 -293h-6l-114 293h67v57h-205v-57h62l160 -388h54z" />
    <glyph glyph-name="uni0077" unicode="w" horiz-adv-x="762" 
d="M-12 -213v1130h786v-1130h-786zM693 388h61v57h-200v-57h71l-72 -281h-5l-139 338h-47l-132 -338h-5l-83 281h75v57h-210v-57h59l126 -388h52l133 340h5l136 -340h54z" />
    <glyph glyph-name="uni0078" unicode="x" horiz-adv-x="511" 
d="M-12 -213v1130h535v-1130h-535zM300 0h196v57h-56l-143 169l139 162h52v57h-178v-57h53l-103 -126l-100 126h60v57h-203v-57h60l141 -166l-140 -165h-61v-57h185v57h-53l105 128l104 -128h-58v-57z" />
    <glyph glyph-name="uni0079" unicode="y" horiz-adv-x="507" 
d="M-12 -213v1130h531v-1130h-213v57h-76l60 156l157 388h53v57h-196v-57h72l-111 -299h-6l-125 299h78v57h-206v-57h53l162 -387l-58 -157h-83v-57h-92z" />
    <glyph glyph-name="uni007A" unicode="z" horiz-adv-x="461" 
d="M-12 -213v1130h485v-1130h-485zM37 0h374l24 138l-57 9l-23 -90h-229l282 346l-3 42h-358l-12 -139l56 -7l13 89h210l-280 -345z" />
    <glyph glyph-name="braceleft" unicode="{" horiz-adv-x="292" 
d="M-12 -213v1130h316v-1130h-316zM108 269q54 8 76 32t22 51q0 33 -21.5 82t-43 102.5t-21.5 97.5q0 64 63 64h64v52h-64q-123 0 -123 -116q0 -50 21 -104.5t42.5 -102t21.5 -77.5q0 -39 -37.5 -50.5t-60.5 -11.5h-19v-39h19q23 0 60.5 -11.5t37.5 -50.5q0 -30 -21.5 -76
t-42.5 -98.5t-21 -101.5q0 -52 31 -84t92 -32h64v52h-64q-63 0 -63 64q0 44 21.5 95t43 98.5t21.5 80.5q0 28 -22.5 51.5t-75.5 32.5z" />
    <glyph glyph-name="bar" unicode="|" horiz-adv-x="230" 
d="M-12 917h254v-1130h-254v1130zM83 730v-810h63v810h-63z" />
    <glyph glyph-name="braceright" unicode="}" horiz-adv-x="292" 
d="M304 -212h-316v1130h316v-1130zM184 270q-53 -9 -75.5 -32.5t-22.5 -51.5q0 -33 21.5 -80.5t43 -98.5t21.5 -95q0 -64 -63 -64h-64v-52h64q61 0 92 32t31 84q0 50 -21 102t-42.5 98t-21.5 76q0 39 37.5 50.5t60.5 11.5h19v39h-19q-23 0 -60.5 11.5t-37.5 50.5
q0 29 21.5 77t42.5 103t21 104q0 116 -123 116h-64v-52h64q63 0 63 -64q0 -45 -21.5 -98t-43 -102t-21.5 -82q0 -27 22 -51t76 -32z" />
    <glyph glyph-name="asciitilde" unicode="~" horiz-adv-x="607" 
d="M-12 -213v1130h631v-1130h-631zM415 200q89 0 150 112l-46 30q-26 -45 -49.5 -61t-54.5 -16q-43 0 -78 17.5t-69.5 35.5t-77.5 18q-40 0 -78 -24t-67 -78l42 -27q26 41 50.5 52.5t48.5 11.5q42 0 76.5 -17.5t70 -35.5t82.5 -18z" />
    <glyph glyph-name="uni00A0" unicode="&#xa0;" horiz-adv-x="249" 
 />
    <glyph glyph-name="exclamdown" unicode="&#xa1;" horiz-adv-x="218" 
d="M-12 917h242v-1130h-242v1130zM62 350h90v97h-90v-97zM151 -209l-14 458h-54l-15 -458h83z" />
    <glyph glyph-name="cent" unicode="&#xa2;" horiz-adv-x="472" 
d="M-12 917h496v-1130h-496v1130zM428 150l-59 13q-20 -100 -100 -110v339q41 -4 71 -24l17 -74l58 7l-17 107q-53 40 -129 45v76h-46v-76q-93 -9 -139 -80t-46 -157q0 -102 50 -161t135 -64v-75h46v76q76 8 113.5 56t45.5 102zM114 220q0 64 24.5 113.5t84.5 57.5v-338
q-109 17 -109 167z" />
    <glyph glyph-name="sterling" unicode="&#xa3;" horiz-adv-x="506" 
d="M-12 917h530v-1130h-530v1130zM458 83l-36 33q-16 -23 -41.5 -41.5t-70.5 -18.5h-190q40 26 52 70t12 109h179v46h-179v54q0 78 29 107.5t73 29.5q43 0 73 -17l18 -89l59 7l-17 117q-27 18 -58 28.5t-84 10.5q-63 0 -113 -45.5t-50 -149.5v-53h-68v-46h68
q0 -73 -13.5 -116t-59.5 -65v-54h284q56 0 89.5 31.5t43.5 51.5z" />
    <glyph glyph-name="currency" unicode="&#xa4;" horiz-adv-x="476" 
d="M-12 878h500v-1130h-500v1130zM88 282q0 -50 28 -89l-95 -95l30 -30l96 94q42 -32 92 -32q51 0 91 32l95 -94l31 30l-95 95q29 40 29 89q0 47 -29 86l95 94l-31 31l-94 -93q-42 32 -92 32q-53 0 -94 -33l-94 94l-30 -31l95 -94q-28 -37 -28 -86zM149 282q0 43 27 68.5
t64 25.5t62.5 -26t25.5 -68q0 -43 -25.5 -68.5t-62.5 -25.5q-38 0 -64.5 25.5t-26.5 68.5z" />
    <glyph glyph-name="yen" unicode="&#xa5;" horiz-adv-x="584" 
d="M-12 917h608v-1130h-608v1130zM550 521h-195v-56h73l-127 -206h-5l-132 206h71v56h-203v-56h53l142 -216h-104v-43h133l3 -5v-49h-136v-42h136v-54h-92v-56h259v56h-96v54h135v42h-135v46l5 8h130v43h-102l136 216h51v56z" />
    <glyph glyph-name="brokenbar" unicode="&#xa6;" horiz-adv-x="223" 
d="M-12 917h247v-1130h-247v1130zM80 730v-304h64v304h-64zM80 224v-304h64v304h-64z" />
    <glyph glyph-name="section" unicode="&#xa7;" horiz-adv-x="585" 
d="M-12 917h609v-1130h-609v1130zM501 137q0 40 -23 65q34 16 54 41t20 60q0 51 -41 76t-101 37t-117 21q-58 10 -98.5 28t-40.5 62q0 41 36 60.5t91 19.5q69 0 131 -27l11 -93l58 6l-8 127q-86 40 -196 40q-83 0 -138.5 -35.5t-55.5 -102.5q0 -48 34 -79q-35 -14 -57.5 -38
t-22.5 -59q0 -44 35 -69t88.5 -37t106.5 -18q74 -11 118.5 -26t44.5 -64q0 -48 -39.5 -68t-90.5 -20q-39 0 -80.5 7t-76.5 24l4 76l-58 6l-12 -110q43 -27 105 -42t117 -15q92 0 147 38.5t55 108.5zM484 293q0 -35 -48 -54q-29 13 -66 21t-77 14q-90 15 -139.5 28.5
t-49.5 51.5q0 40 54 60q25 -11 53 -17.5t56 -11.5q47 -8 97.5 -17t85 -25.5t34.5 -49.5z" />
    <glyph glyph-name="dieresis" unicode="&#xa8;" horiz-adv-x="228" 
d="M-12 640h81v-85h-81v85zM159 640h81v-85h-81v85z" />
    <glyph glyph-name="copyright" unicode="&#xa9;" horiz-adv-x="620" 
d="M-12 917h644v-1130h-644v1130zM578 260q0 112 -77 190.5t-190 78.5t-191 -78.5t-78 -190.5t78.5 -189.5t189.5 -77.5t189.5 77.5t78.5 189.5zM535 260q0 -94 -64.5 -160t-160.5 -66q-98 0 -161.5 66t-63.5 160t63 160.5t163 66.5q99 0 161.5 -66.5t62.5 -160.5zM427 122
l9 65l-36 4l-10 -51q-26 -13 -70 -13q-59 0 -91.5 36.5t-32.5 98.5t31.5 99.5t86.5 37.5q28 0 45 -5.5t34 -16.5l9 -50l36 4l-9 65q-20 17 -49 27.5t-71 10.5q-70 0 -114 -50t-44 -123q0 -75 45.5 -122.5t117.5 -47.5q73 0 113 31z" />
    <glyph glyph-name="ordfeminine" unicode="&#xaa;" horiz-adv-x="373" 
d="M-12 917h397v-1130h-397v1130zM175 662q37 0 49 -22.5t12 -50.5v-24q-12 1 -26 2t-30 1q-47 0 -92.5 -16.5t-45.5 -71.5q0 -46 31 -64t62 -18q36 0 61.5 18.5t39.5 42.5q2 -61 57 -61q24 0 43 11l-1 31q-7 -3 -18 -3q-23 0 -23 30v136q0 98 -112 98q-65 0 -110 -32
l-10 -70l43 -4l13 52q30 15 57 15zM236 516q-2 -36 -26.5 -56.5t-53.5 -20.5q-20 0 -36 11t-16 37q0 32 25 42t54 10q13 0 27 -1.5t26 -2.5v-19z" />
    <glyph glyph-name="guillemotleft" unicode="&#xab;" horiz-adv-x="447" 
d="M-12 917h471v-1130h-471v1130zM237 25l-129 246l129 240h-60l-138 -240l138 -246h60zM402 25l-129 246l129 240h-61l-138 -240l138 -246h61z" />
    <glyph glyph-name="logicalnot" unicode="&#xac;" horiz-adv-x="602" 
d="M-12 917h626v-1130h-626v1130zM489 99h52v209h-481v-52h429v-157z" />
    <glyph glyph-name="registered" unicode="&#xae;" horiz-adv-x="586" 
d="M-12 917h610v-1130h-610v1130zM294 159q104 0 177.5 73t73.5 177t-72.5 177.5t-177.5 73.5t-178 -73.5t-73 -177.5q0 -105 73 -177.5t177 -72.5zM295 200q-91 0 -150 61t-59 148t59 148.5t150 61.5t149 -61.5t58 -148.5q0 -86 -59 -147.5t-148 -61.5zM175 277h113v31h-38
v85h57l62 -116h63v31h-37l-50 92q63 17 63 79q0 35 -25 57.5t-79 22.5h-129v-31h36v-220h-36v-31zM297 528q68 0 68 -50q0 -55 -68 -55h-47v105h47z" />
    <glyph glyph-name="macron" unicode="&#xaf;" horiz-adv-x="220" 
d="M-12 564v57h244v-57h-244z" />
    <glyph glyph-name="degree" unicode="&#xb0;" horiz-adv-x="392" 
d="M-12 917h416v-1130h-416v1130zM196 342q74 0 117 46t43 113q0 66 -42 112.5t-116 46.5q-72 0 -116.5 -46t-44.5 -114t43 -113t116 -45zM196 395q-43 0 -71.5 28t-28.5 78q0 51 29 78.5t72 27.5t71 -27.5t28 -79.5q0 -50 -28 -77.5t-72 -27.5z" />
    <glyph glyph-name="plusminus" unicode="&#xb1;" horiz-adv-x="448" 
d="M-12 917h472v-1130h-472v1130zM51 259h149v-146h53v146h145v54h-145v147h-53v-147h-149v-54zM51 0h347v53h-347v-53z" />
    <glyph glyph-name="uni00B2" unicode="&#xb2;" horiz-adv-x="344" 
d="M-12 917h368v-1130h-368v1130zM85 667l13 56q26 17 57 17q38 0 54.5 -16.5t16.5 -40.5q0 -38 -31 -77t-76 -77t-87 -73l5 -41h272l10 94l-47 5l-10 -54h-156q26 21 69.5 56.5t79 79.5t35.5 92q0 37 -28 67t-92 30q-32 0 -64.5 -9t-54.5 -28l-11 -76z" />
    <glyph glyph-name="uni00B3" unicode="&#xb3;" horiz-adv-x="338" 
d="M-12 917h362v-1130h-362v1130zM91 673l12 50q28 16 59 16q64 0 64 -52q0 -59 -90 -64v-38q58 -1 81 -18t23 -45q0 -29 -21 -48.5t-58 -19.5q-39 0 -58.5 19.5t-25.5 43.5l-42 -12q15 -97 124 -97q59 0 101.5 27t42.5 81q0 31 -19.5 57.5t-69.5 33.5v2q40 12 56.5 35.5
t16.5 50.5q0 41 -30 65t-81 24q-29 0 -63.5 -9t-56.5 -28l-10 -69z" />
    <glyph glyph-name="acute" unicode="&#xb4;" horiz-adv-x="170" 
d="M10 520l-22 31l154 132l40 -59z" />
    <glyph glyph-name="mu" unicode="&#xb5;" horiz-adv-x="568" 
d="M-12 917h592v-1130h-415v227q33 -24 83 -24q53 0 93 25.5t62 66.5v-82h150v57h-80v388h-162v-57h92v-212q0 -47 -37 -88t-95 -41q-47 0 -76.5 30.5t-29.5 102.5v265h-148v-57h77v-601h-106v1130z" />
    <glyph glyph-name="paragraph" unicode="&#xb6;" horiz-adv-x="613" 
d="M-12 917h637v-1130h-637v1130zM251 650q-113 0 -168 -49t-55 -117q0 -95 62.5 -134.5t154.5 -39.5h57v-310h68v588h63v-588h67v588h76v62h-325z" />
    <glyph glyph-name="periodcentered" unicode="&#xb7;" horiz-adv-x="215" 
d="M-12 917h239v-1130h-239v1130zM57 256h97v102h-97v-102z" />
    <glyph glyph-name="cedilla" unicode="&#xb8;" horiz-adv-x="180" 
d="M192 -125q0 -45 -32 -64.5t-76 -19.5q-60 0 -96 30l17 41q30 -23 75 -23q51 0 51 41q0 25 -17 32.5t-41 7.5h-30v86h52v-53h8q47 0 68 -22.5t21 -55.5z" />
    <glyph glyph-name="uni00B9" unicode="&#xb9;" horiz-adv-x="256" 
d="M-12 917h280v-1130h-280v1130zM33 734h75v-274h-75v-45h205v45h-72v319h-133v-45z" />
    <glyph glyph-name="ordmasculine" unicode="&#xba;" horiz-adv-x="375" 
d="M-12 917h399v-1130h-399v1130zM36 547q0 -66 40 -107.5t109 -41.5t111.5 42.5t42.5 109.5q0 62 -37.5 106.5t-113.5 44.5q-75 0 -113.5 -45t-38.5 -109zM98 551q0 46 23 74.5t66 28.5q89 0 89 -103q0 -47 -23 -77t-67 -30t-66 31t-22 76z" />
    <glyph glyph-name="guillemotright" unicode="&#xbb;" horiz-adv-x="447" 
d="M-12 917h471v-1130h-471v1130zM270 25l138 246l-138 240h-60l129 -240l-129 -246h60zM106 25l138 246l-138 240h-60l128 -240l-128 -246h60z" />
    <glyph glyph-name="onequarter" unicode="&#xbc;" horiz-adv-x="706" 
d="M-12 917h730v-1130h-730v1130zM511 650l-174 -313l-198 -337h54l182 325l190 325h-54zM41 605h75v-274h-75v-45h205v45h-71v319h-134v-45zM555 -1h57v90h58l4 44h-62v231h-113l-130 -232l6 -43h180v-90zM528 319h27v-186h-133z" />
    <glyph glyph-name="onehalf" unicode="&#xbd;" horiz-adv-x="746" 
d="M-12 917h770v-1130h-770v1130zM38 605h76v-274h-76v-45h205v45h-71v319h-134v-45zM506 650l-175 -313l-197 -337h53l183 325l189 325h-53zM487 252l13 56q26 17 58 17q38 0 54 -16.5t16 -40.5q0 -38 -31 -77t-76 -77t-87 -73l5 -41h272l10 94l-47 5l-10 -54h-156
q26 21 69.5 56t79 79.5t35.5 92.5q0 37 -28 67t-92 30q-32 0 -64.5 -9t-54.5 -28l-11 -76z" />
    <glyph glyph-name="threequarters" unicode="&#xbe;" horiz-adv-x="730" 
d="M-12 917h754v-1130h-754v1130zM95 549l11 50q28 16 60 16q63 0 63 -52q0 -60 -89 -64v-38q58 -1 81 -18t23 -45q0 -29 -21 -48.5t-58 -19.5q-39 0 -58.5 19.5t-25.5 43.5l-42 -12q6 -45 39.5 -71t84.5 -26q59 0 101.5 27t42.5 81q0 31 -19.5 57.5t-70.5 33.5v2
q41 12 57.5 35.5t16.5 50.5q0 41 -30.5 65t-80.5 24q-29 0 -63.5 -9t-57.5 -28l-9 -69zM539 650l-175 -313l-197 -337h54l182 325l190 325h-54zM581 -1h58v90h57l5 44h-62v231h-113l-131 -232l6 -43h180v-90zM554 319h27v-186h-133z" />
    <glyph glyph-name="questiondown" unicode="&#xbf;" horiz-adv-x="437" 
d="M449 -213h-461v1130h461v-1130zM275 446h-89v-97h89v97zM336 -11l-13 -97q-46 -38 -108 -38q-55 0 -83 23t-28 57q0 40 30.5 67.5t70 52t70 54t30.5 74.5q0 39 -30 64.5t-98 20.5v-50q53 0 53 -40q0 -33 -31 -58t-71 -51t-71 -60t-31 -84q0 -63 54 -99t130 -36
q51 0 98.5 22t77.5 52l8 121z" />
    <glyph glyph-name="uni00C0" unicode="&#xc0;" 
d="M-12 917h646v-853h-79l-213 586h-186v-64h104l-193 -522h-79v853zM346 703l10 37l-191 73l-17 -68zM316 544l106 -298h-219l108 298h5zM634 -213h-646v213h228v64h-80l46 125h260l44 -125h-77v-64h225v-213z" />
    <glyph glyph-name="uni00C1" unicode="&#xc1;" 
d="M-12 917h646v-853h-79l-213 586h-186v-64h104l-193 -522h-79v853zM272 703l197 42l-17 68l-191 -73zM316 544l106 -298h-219l108 298h5zM634 -213h-646v213h228v64h-80l46 125h260l44 -125h-77v-64h225v-213z" />
    <glyph glyph-name="uni00C2" unicode="&#xc2;" 
d="M-12 917h646v-853h-79l-213 586h-186v-64h104l-193 -522h-79v853zM426 702l19 35l-126 90h-21l-127 -93l19 -33l116 63zM316 544l106 -298h-219l108 298h5zM634 -213h-646v213h228v64h-80l46 125h260l44 -125h-77v-64h225v-213z" />
    <glyph glyph-name="uni00C3" unicode="&#xc3;" 
d="M-12 917h646v-853h-79l-213 586h-186v-64h104l-193 -522h-79v853zM442 798l-36 9q-8 -28 -21 -35t-26 -7q-36 0 -61 17.5t-58 17.5q-38 0 -58 -28t-24 -54l33 -13q7 24 21.5 31.5t28.5 7.5q29 0 57 -17.5t66 -17.5q36 0 53 24.5t25 64.5zM316 544l106 -298h-219l108 298
h5zM634 -213h-646v213h228v64h-80l46 125h260l44 -125h-77v-64h225v-213z" />
    <glyph glyph-name="uni00C4" unicode="&#xc4;" 
d="M-12 917h646v-853h-79l-213 586h-186v-64h104l-193 -522h-79v853zM183 803v-85h81v85h-81zM355 803v-85h80v85h-80zM316 544l106 -298h-219l108 298h5zM634 -213h-646v213h228v64h-80l46 125h260l44 -125h-77v-64h225v-213z" />
    <glyph glyph-name="uni00C5" unicode="&#xc5;" 
d="M-12 917h646v-853h-79l-213 586h-186v-64h104l-193 -522h-79v853zM406 784q0 39 -23.5 64.5t-74.5 25.5q-47 0 -73 -25.5t-26 -66.5q0 -92 98 -92q49 0 74 26.5t25 67.5zM357 784q0 -54 -50 -54q-49 0 -49 52t49 52q28 0 39 -15t11 -35zM316 544l106 -298h-219l108 298h5
zM634 -213h-646v213h228v64h-80l46 125h260l44 -125h-77v-64h225v-213z" />
    <glyph glyph-name="uni00C6" unicode="&#xc6;" horiz-adv-x="912" 
d="M312 586l-258 -522h-66v853h936v-1130h-936v213h229v64h-90l62 125h259v-125h-81v-64h483l19 184l-64 7l-20 -127h-263v234h306v64h-306v224h254l20 -127l64 8l-19 183h-626v-64h97zM448 586v-340h-232l166 340h66z" />
    <glyph glyph-name="uni00C7" unicode="&#xc7;" horiz-adv-x="642" 
d="M-12 -213v1130h666v-1130h-666zM462 -125q0 33 -21.5 55.5t-67.5 22.5h-8v37q137 3 208 60l17 125l-62 6l-19 -96q-58 -29 -143 -29q-116 0 -183.5 73.5t-67.5 194.5q0 118 65.5 194t172.5 76q55 0 92 -12.5t69 -33.5l18 -95l63 6l-18 125q-40 34 -94.5 55t-135.5 21
q-95 0 -164 -47t-107 -124.5t-38 -167.5q0 -131 75 -222t199 -106v-73h30q24 0 41 -7.5t17 -32.5q0 -41 -51 -41q-44 0 -74 23l-17 -41q34 -30 96 -30q44 0 76 19.5t32 64.5z" />
    <glyph glyph-name="uni00C8" unicode="&#xc8;" horiz-adv-x="584" 
d="M-12 -213v1130h608v-1130h-608zM385 703l10 37l-191 73l-17 -68zM40 0h484l19 184l-63 7l-20 -127h-265v234h307v64h-307v224h256l20 -127l64 7l-20 184h-475v-64h82v-522h-82v-64z" />
    <glyph glyph-name="uni00C9" unicode="&#xc9;" horiz-adv-x="584" 
d="M-12 -213v1130h608v-1130h-608zM266 703l197 42l-17 68l-191 -73zM40 0h484l19 184l-63 7l-20 -127h-265v234h307v64h-307v224h256l20 -127l64 7l-20 184h-475v-64h82v-522h-82v-64z" />
    <glyph glyph-name="uni00CA" unicode="&#xca;" horiz-adv-x="584" 
d="M-12 -213v1130h608v-1130h-608zM447 702l19 35l-126 90h-21l-127 -93l19 -33l116 63zM40 0h484l19 184l-63 7l-20 -127h-265v234h307v64h-307v224h256l20 -127l64 7l-20 184h-475v-64h82v-522h-82v-64z" />
    <glyph glyph-name="uni00CB" unicode="&#xcb;" horiz-adv-x="584" 
d="M-12 -213v1130h608v-1130h-608zM194 803v-85h81v85h-81zM366 803v-85h80v85h-80zM40 0h484l19 184l-63 7l-20 -127h-265v234h307v64h-307v224h256l20 -127l64 7l-20 184h-475v-64h82v-522h-82v-64z" />
    <glyph glyph-name="uni00CC" unicode="&#xcc;" horiz-adv-x="318" 
d="M-12 -213v1130h342v-1130h-342zM234 703l10 37l-191 73l-17 -68zM40 0h237v64h-81v522h81v64h-237v-64h82v-522h-82v-64z" />
    <glyph glyph-name="uni00CD" unicode="&#xcd;" horiz-adv-x="318" 
d="M-12 -213v1130h342v-1130h-342zM84 703l197 42l-17 68l-191 -73zM40 0h237v64h-81v522h81v64h-237v-64h82v-522h-82v-64z" />
    <glyph glyph-name="uni00CE" unicode="&#xce;" horiz-adv-x="318" 
d="M-12 -213v1130h342v-1130h-342zM278 702l19 35l-126 90h-21l-127 -93l19 -33l116 63zM40 0h237v64h-81v522h81v64h-237v-64h82v-522h-82v-64z" />
    <glyph glyph-name="uni00CF" unicode="&#xcf;" horiz-adv-x="318" 
d="M-12 -213v1130h342v-1130h-342zM36 803v-85h81v85h-81zM208 803v-85h80v85h-80zM40 0h237v64h-81v522h81v64h-237v-64h82v-522h-82v-64z" />
    <glyph glyph-name="uni00D0" unicode="&#xd0;" horiz-adv-x="701" 
d="M-12 -213v1130h725v-1130h-725zM663 326q0 141 -86.5 232.5t-245.5 91.5h-291v-63h82v-217h-79v-62h79v-245h-82v-63h294q154 0 241.5 91.5t87.5 234.5zM585 325q0 -121 -65.5 -191.5t-189.5 -70.5h-135v245h135v62h-135v217h135q124 0 189.5 -72t65.5 -190z" />
    <glyph glyph-name="uni00D1" unicode="&#xd1;" horiz-adv-x="733" 
d="M-12 -213v1130h757v-1130h-757zM504 798l-36 9q-8 -28 -21 -35t-26 -7q-36 0 -61 17.5t-58 17.5q-38 0 -58 -28t-24 -54l33 -13q7 24 21.5 31.5t28.5 7.5q29 0 57 -17.5t66 -17.5q36 0 53 24.5t25 64.5zM620 586h81v64h-249v-64h98v-437h-4l-370 501h-140v-64h86v-522
h-75v-64h248v64h-103v448h4l377 -512h47v586z" />
    <glyph glyph-name="uni00D2" unicode="&#xd2;" horiz-adv-x="725" 
d="M-12 -213v1130h749v-1130h-749zM421 703l10 37l-191 73l-17 -68zM688 325q0 139 -90 237t-236 98q-144 0 -234.5 -97.5t-90.5 -237.5q0 -138 88 -236.5t235 -98.5q98 0 172 45.5t115 121.5t41 168zM609 324q0 -113 -65 -190.5t-180 -77.5q-118 0 -183 80t-65 190
q0 112 65 190t181 78q113 0 180 -76.5t67 -193.5z" />
    <glyph glyph-name="uni00D3" unicode="&#xd3;" horiz-adv-x="725" 
d="M-12 -213v1130h749v-1130h-749zM319 703l197 42l-17 68l-191 -73zM688 325q0 139 -90 237t-236 98q-144 0 -234.5 -97.5t-90.5 -237.5q0 -138 88 -236.5t235 -98.5q98 0 172 45.5t115 121.5t41 168zM609 324q0 -113 -65 -190.5t-180 -77.5q-118 0 -183 80t-65 190
q0 112 65 190t181 78q113 0 180 -76.5t67 -193.5z" />
    <glyph glyph-name="uni00D4" unicode="&#xd4;" horiz-adv-x="725" 
d="M-12 -213v1130h749v-1130h-749zM483 702l19 35l-126 90h-21l-127 -93l19 -33l116 63zM688 325q0 139 -90 237t-236 98q-144 0 -234.5 -97.5t-90.5 -237.5q0 -138 88 -236.5t235 -98.5q98 0 172 45.5t115 121.5t41 168zM609 324q0 -113 -65 -190.5t-180 -77.5
q-118 0 -183 80t-65 190q0 112 65 190t181 78q113 0 180 -76.5t67 -193.5z" />
    <glyph glyph-name="uni00D5" unicode="&#xd5;" horiz-adv-x="725" 
d="M-12 -213v1130h749v-1130h-749zM509 798l-36 9q-8 -28 -20.5 -35t-26.5 -7q-36 0 -61 17.5t-58 17.5q-38 0 -58 -28t-24 -54l33 -13q8 24 22 31.5t28 7.5q29 0 57 -17.5t66 -17.5q36 0 53.5 24.5t24.5 64.5zM688 325q0 139 -90 237t-236 98q-144 0 -234.5 -97.5
t-90.5 -237.5q0 -138 88 -236.5t235 -98.5q98 0 172 45.5t115 121.5t41 168zM609 324q0 -113 -65 -190.5t-180 -77.5q-118 0 -183 80t-65 190q0 112 65 190t181 78q113 0 180 -76.5t67 -193.5z" />
    <glyph glyph-name="uni00D6" unicode="&#xd6;" horiz-adv-x="725" 
d="M-12 -213v1130h749v-1130h-749zM239 803v-85h81v85h-81zM411 803v-85h80v85h-80zM688 325q0 139 -90 237t-236 98q-144 0 -234.5 -97.5t-90.5 -237.5q0 -138 88 -236.5t235 -98.5q98 0 172 45.5t115 121.5t41 168zM609 324q0 -113 -65 -190.5t-180 -77.5q-118 0 -183 80
t-65 190q0 112 65 190t181 78q113 0 180 -76.5t67 -193.5z" />
    <glyph glyph-name="multiply" unicode="&#xd7;" horiz-adv-x="385" 
d="M-12 917h409v-1130h-409v1130zM87 131l105 106l104 -104l37 39l-103 102l102 103l-37 38l-103 -103l-104 105l-37 -38l104 -105l-105 -105z" />
    <glyph glyph-name="uni00D8" unicode="&#xd8;" horiz-adv-x="725" 
d="M-12 -213v1130h749v-1130h-749zM688 325q0 135 -84 230l85 95h-79l-50 -56q-40 31 -90 48.5t-108 17.5q-144 0 -234.5 -97.5t-90.5 -237.5q0 -139 83 -231l-83 -94h73l50 56q40 -31 90.5 -48.5t109.5 -17.5q98 0 172 45.5t115 121.5t41 168zM362 594q90 0 153 -52
l-346 -391q-53 73 -53 175q0 112 65 190t181 78zM609 324q0 -113 -65 -190.5t-180 -77.5q-95 0 -157 53l349 390q53 -72 53 -175z" />
    <glyph glyph-name="uni00D9" unicode="&#xd9;" horiz-adv-x="714" 
d="M-12 -213v1130h738v-1130h-738zM435 703l10 37l-191 73l-17 -68zM615 586h63v64h-225v-64h93v-319q0 -211 -187 -211q-94 0 -139 53t-45 149v328h90v64h-231v-64h67v-330q0 -105 54.5 -185.5t199.5 -80.5q100 0 156.5 40.5t80 104t23.5 132.5v319z" />
    <glyph glyph-name="uni00DA" unicode="&#xda;" horiz-adv-x="714" 
d="M-12 -213v1130h738v-1130h-738zM311 703l197 42l-17 68l-191 -73zM615 586h63v64h-225v-64h93v-319q0 -211 -187 -211q-94 0 -139 53t-45 149v328h90v64h-231v-64h67v-330q0 -105 54.5 -185.5t199.5 -80.5q100 0 156.5 40.5t80 104t23.5 132.5v319z" />
    <glyph glyph-name="uni00DB" unicode="&#xdb;" horiz-adv-x="714" 
d="M-12 -213v1130h738v-1130h-738zM476 702l19 35l-126 90h-21l-127 -93l19 -33l116 63zM615 586h63v64h-225v-64h93v-319q0 -211 -187 -211q-94 0 -139 53t-45 149v328h90v64h-231v-64h67v-330q0 -105 54.5 -185.5t199.5 -80.5q100 0 156.5 40.5t80 104t23.5 132.5v319z
" />
    <glyph glyph-name="uni00DC" unicode="&#xdc;" horiz-adv-x="714" 
d="M-12 -213v1130h738v-1130h-738zM235 803v-85h81v85h-81zM407 803v-85h80v85h-80zM615 586h63v64h-225v-64h93v-319q0 -211 -187 -211q-94 0 -139 53t-45 149v328h90v64h-231v-64h67v-330q0 -105 54.5 -185.5t199.5 -80.5q100 0 156.5 40.5t80 104t23.5 132.5v319z" />
    <glyph glyph-name="uni00DD" unicode="&#xdd;" horiz-adv-x="570" 
d="M232 586v64h-244v267h594v-267h-240v-64h89l-138 -270h-5l-145 270h89zM226 703l197 42l-17 68l-191 -73zM582 -213h-594v799h72l190 -337v-185h-111v-64h299v64h-115v184l182 338h77v-799z" />
    <glyph glyph-name="uni00DE" unicode="&#xde;" horiz-adv-x="568" 
d="M-12 -213v1130h592v-1130h-592zM40 0h237v64h-81v75h131q96 0 158 51.5t62 149.5q0 78 -53 131.5t-173 53.5h-125v61h81v64h-237v-64h82v-522h-82v-64zM317 194h-121v277h119q79 0 116.5 -35.5t37.5 -97.5q0 -144 -152 -144z" />
    <glyph glyph-name="uni00DF" unicode="&#xdf;" horiz-adv-x="648" 
d="M-12 917h672v-1130h-672v1130zM631 128q0 53 -28 79.5t-69 37t-82 17.5t-69 20.5t-28 45.5q0 38 32 60t74 40.5t74 46.5t32 79q0 62 -56 103t-162 41q-117 0 -182.5 -55.5t-65.5 -151.5v-46h-64v-57h64v-331h-77v-57h148v486q0 64 36.5 108.5t135.5 44.5
q71 0 111.5 -23.5t40.5 -65.5t-33 -63.5t-75.5 -39.5t-75.5 -45.5t-33 -81.5q0 -49 28.5 -72t70 -32.5t83 -17t70 -23.5t28.5 -53q0 -38 -33.5 -56t-79.5 -18q-28 0 -57 5t-50 20l3 56l-57 6l-13 -101q29 -21 79.5 -32.5t99.5 -11.5q76 0 128 36.5t52 101.5z" />
    <glyph glyph-name="uni00E0" unicode="&#xe0;" horiz-adv-x="479" 
d="M-12 -213v1130h503v-1130h-503zM272 520l21 31l-154 132l-40 -59zM79 411l-16 -103l58 -7l17 77q37 18 86 18q60 0 80.5 -30t20.5 -78v-40q-18 2 -38.5 3t-40.5 1q-75 0 -141.5 -26.5t-66.5 -110.5q0 -71 45.5 -98t89.5 -27q54 0 92.5 28t59.5 64v-2q2 -90 81 -90
q31 0 58 15l-1 46q-13 -6 -30 -6q-38 0 -38 48v212q0 149 -159 149q-44 0 -83 -10t-74 -33zM325 167q-4 -55 -44.5 -87t-86.5 -32q-29 0 -56 16t-27 59q0 52 40.5 67.5t90.5 15.5q22 0 43 -2t40 -3v-34z" />
    <glyph glyph-name="uni00E1" unicode="&#xe1;" horiz-adv-x="479" 
d="M-12 -213v1130h503v-1130h-503zM203 520l172 104l-40 59l-154 -132zM79 411l-16 -103l58 -7l17 77q37 18 86 18q60 0 80.5 -30t20.5 -78v-40q-18 2 -38.5 3t-40.5 1q-75 0 -141.5 -26.5t-66.5 -110.5q0 -71 45.5 -98t89.5 -27q54 0 92.5 28t59.5 64v-2q2 -90 81 -90
q31 0 58 15l-1 46q-13 -6 -30 -6q-38 0 -38 48v212q0 149 -159 149q-44 0 -83 -10t-74 -33zM325 167q-4 -55 -44.5 -87t-86.5 -32q-29 0 -56 16t-27 59q0 52 40.5 67.5t90.5 15.5q22 0 43 -2t40 -3v-34z" />
    <glyph glyph-name="uni00E2" unicode="&#xe2;" horiz-adv-x="479" 
d="M-12 -213v1130h503v-1130h-503zM338 519l27 34l-121 118h-22l-121 -120l25 -32l101 84zM79 411l-16 -103l58 -7l17 77q37 18 86 18q60 0 80.5 -30t20.5 -78v-40q-18 2 -38.5 3t-40.5 1q-75 0 -141.5 -26.5t-66.5 -110.5q0 -71 45.5 -98t89.5 -27q54 0 92.5 28t59.5 64v-2
q2 -90 81 -90q31 0 58 15l-1 46q-13 -6 -30 -6q-38 0 -38 48v212q0 149 -159 149q-44 0 -83 -10t-74 -33zM325 167q-4 -55 -44.5 -87t-86.5 -32q-29 0 -56 16t-27 59q0 52 40.5 67.5t90.5 15.5q22 0 43 -2t40 -3v-34z" />
    <glyph glyph-name="uni00E3" unicode="&#xe3;" horiz-adv-x="479" 
d="M-12 -213v1130h503v-1130h-503zM368 646l-36 9q-8 -27 -21 -35t-26 -8q-36 0 -61 18.5t-59 18.5q-38 0 -57.5 -31t-23.5 -57l33 -12q7 24 22 33.5t29 9.5q28 0 56 -19.5t67 -19.5q35 0 52.5 26.5t24.5 66.5zM79 411l-16 -103l58 -7l17 77q37 18 86 18q60 0 80.5 -30
t20.5 -78v-40q-18 2 -38.5 3t-40.5 1q-75 0 -141.5 -26.5t-66.5 -110.5q0 -71 45.5 -98t89.5 -27q54 0 92.5 28t59.5 64v-2q2 -90 81 -90q31 0 58 15l-1 46q-13 -6 -30 -6q-38 0 -38 48v212q0 149 -159 149q-44 0 -83 -10t-74 -33zM325 167q-4 -55 -44.5 -87t-86.5 -32
q-29 0 -56 16t-27 59q0 52 40.5 67.5t90.5 15.5q22 0 43 -2t40 -3v-34z" />
    <glyph glyph-name="uni00E4" unicode="&#xe4;" horiz-adv-x="479" 
d="M-12 -213v1130h503v-1130h-503zM277 640v-85h81v85h-81zM106 640v-85h81v85h-81zM79 411l-16 -103l58 -7l17 77q37 18 86 18q60 0 80.5 -30t20.5 -78v-40q-18 2 -38.5 3t-40.5 1q-75 0 -141.5 -26.5t-66.5 -110.5q0 -71 45.5 -98t89.5 -27q54 0 92.5 28t59.5 64v-2
q2 -90 81 -90q31 0 58 15l-1 46q-13 -6 -30 -6q-38 0 -38 48v212q0 149 -159 149q-44 0 -83 -10t-74 -33zM325 167q-4 -55 -44.5 -87t-86.5 -32q-29 0 -56 16t-27 59q0 52 40.5 67.5t90.5 15.5q22 0 43 -2t40 -3v-34z" />
    <glyph glyph-name="uni00E5" unicode="&#xe5;" horiz-adv-x="479" 
d="M-12 -213v1130h503v-1130h-503zM332 607q0 40 -23.5 65.5t-74.5 25.5q-47 0 -73 -26t-26 -66q0 -92 98 -92q49 0 74 26t25 67zM283 608q0 -22 -12 -38t-38 -16q-49 0 -49 52q0 22 12 37t37 15q28 0 39 -15t11 -35zM79 411l-16 -103l58 -7l17 77q37 18 86 18
q60 0 80.5 -30t20.5 -78v-40q-18 2 -38.5 3t-40.5 1q-75 0 -141.5 -26.5t-66.5 -110.5q0 -71 45.5 -98t89.5 -27q54 0 92.5 28t59.5 64v-2q2 -90 81 -90q31 0 58 15l-1 46q-13 -6 -30 -6q-38 0 -38 48v212q0 149 -159 149q-44 0 -83 -10t-74 -33zM325 167q-4 -55 -44.5 -87
t-86.5 -32q-29 0 -56 16t-27 59q0 52 40.5 67.5t90.5 15.5q22 0 43 -2t40 -3v-34z" />
    <glyph glyph-name="uni00E6" unicode="&#xe6;" horiz-adv-x="755" 
d="M-12 -213v1130h779v-1130h-779zM722 128l-59 13q-11 -41 -40 -65.5t-82 -24.5q-135 0 -141 155h312q6 27 6 53q0 79 -48.5 137t-140.5 58q-94 0 -152 -72q-34 72 -132 72q-101 0 -165 -43l-17 -103l58 -7l18 77q37 18 90 18q57 0 77 -31t20 -77v-40q-18 2 -38.5 3
t-39.5 1q-76 0 -143.5 -26.5t-67.5 -110.5q0 -71 46.5 -98t93.5 -27q68 0 110 34t65 71q51 -105 183 -105q83 0 130.5 40.5t56.5 97.5zM644 257h-243q6 57 35.5 97.5t90.5 40.5q66 0 94 -44.5t23 -93.5zM112 123q0 52 41 67.5t92 15.5q20 0 41 -2t40 -3v-33
q-3 -56 -43.5 -88t-87.5 -32q-29 0 -56 16t-27 59z" />
    <glyph glyph-name="uni00E7" unicode="&#xe7;" horiz-adv-x="457" 
d="M-12 -213v1130h481v-1130h-481zM359 -128q0 32 -21.5 55t-67.5 23h-8v41q79 7 117 55.5t47 103.5l-60 13q-20 -113 -120 -113q-66 0 -101 45t-35 125q0 72 31 123t102 51q55 0 95 -25l17 -75l58 7l-17 107q-34 26 -71 36t-81 10q-104 0 -156 -73t-52 -165
q0 -98 46.5 -156.5t126.5 -67.5v-76h30q24 0 41 -7t17 -33q0 -41 -51 -41q-24 0 -43 7t-31 16l-18 -40q34 -30 97 -30q43 0 75.5 19.5t32.5 64.5z" />
    <glyph glyph-name="uni00E8" unicode="&#xe8;" horiz-adv-x="466" 
d="M-12 -213v1130h490v-1130h-490zM280 520l21 31l-154 132l-40 -59zM433 128l-59 13q-10 -41 -40 -66t-83 -25q-135 0 -141 156h313q6 27 6 53q-1 79 -49 137t-140 58q-94 0 -149 -67t-55 -171q0 -108 58 -167t152 -59q82 0 130 40.5t57 97.5zM355 258h-244q7 56 36 97
t91 41q65 0 93.5 -44t23.5 -94z" />
    <glyph glyph-name="uni00E9" unicode="&#xe9;" horiz-adv-x="466" 
d="M-12 -213v1130h490v-1130h-490zM223 520l172 104l-40 59l-154 -132zM433 128l-59 13q-10 -41 -40 -66t-83 -25q-135 0 -141 156h313q6 27 6 53q-1 79 -49 137t-140 58q-94 0 -149 -67t-55 -171q0 -108 58 -167t152 -59q82 0 130 40.5t57 97.5zM355 258h-244q7 56 36 97
t91 41q65 0 93.5 -44t23.5 -94z" />
    <glyph glyph-name="uni00EA" unicode="&#xea;" horiz-adv-x="466" 
d="M-12 -213v1130h490v-1130h-490zM351 519l27 34l-121 118h-22l-121 -120l25 -32l101 84zM433 128l-59 13q-10 -41 -40 -66t-83 -25q-135 0 -141 156h313q6 27 6 53q-1 79 -49 137t-140 58q-94 0 -149 -67t-55 -171q0 -108 58 -167t152 -59q82 0 130 40.5t57 97.5zM355 258
h-244q7 56 36 97t91 41q65 0 93.5 -44t23.5 -94z" />
    <glyph glyph-name="uni00EB" unicode="&#xeb;" horiz-adv-x="466" 
d="M-12 -213v1130h490v-1130h-490zM119 640v-85h81v85h-81zM290 640v-85h81v85h-81zM433 128l-59 13q-10 -41 -40 -66t-83 -25q-135 0 -141 156h313q6 27 6 53q-1 79 -49 137t-140 58q-94 0 -149 -67t-55 -171q0 -108 58 -167t152 -59q82 0 130 40.5t57 97.5zM355 258h-244
q7 56 36 97t91 41q65 0 93.5 -44t23.5 -94z" />
    <glyph glyph-name="uni00EC" unicode="&#xec;" horiz-adv-x="277" 
d="M-12 -213v1130h301v-1130h-301zM168 520l21 31l-154 132l-40 -59zM32 0h226v57h-78v388h-150v-57h80v-331h-78v-57z" />
    <glyph glyph-name="uni00ED" unicode="&#xed;" horiz-adv-x="277" 
d="M-12 -213v1130h301v-1130h-301zM67 520l172 104l-40 59l-154 -132zM32 0h226v57h-78v388h-150v-57h80v-331h-78v-57z" />
    <glyph glyph-name="uni00EE" unicode="&#xee;" horiz-adv-x="277" 
d="M-12 -213v1130h301v-1130h-301zM240 518l26 34l-119 117h-22l-120 -119l25 -32l100 84zM32 0h226v57h-78v388h-150v-57h80v-331h-78v-57z" />
    <glyph glyph-name="uni00EF" unicode="&#xef;" horiz-adv-x="277" 
d="M-12 -213v1130h301v-1130h-301zM4 638v-84h80v84h-80zM172 638v-84h80v84h-80zM32 0h226v57h-78v388h-150v-57h80v-331h-78v-57z" />
    <glyph glyph-name="eth" unicode="&#xf0;" horiz-adv-x="520" 
d="M-12 -213v1130h544v-1130h-544zM195 498l56 69q42 -35 73 -75.5t48 -88.5q-21 21 -52 36t-74 15q-95 0 -153 -67t-58 -168t57.5 -165t158.5 -64q103 0 162.5 65.5t59.5 167.5v34q0 113 -51.5 202.5t-131.5 154.5l48 60l-39 27l-49 -58q-21 15 -43.5 28.5t-45.5 26.5
l-29 -52q18 -10 41 -24.5t39 -26.5l-57 -69zM254 51q-72 0 -108 50t-36 122q0 74 36 122t104 48t107 -44.5t41 -86.5v-42q0 -73 -37 -121t-107 -48z" />
    <glyph glyph-name="uni00F1" unicode="&#xf1;" horiz-adv-x="570" 
d="M-12 -213v1130h594v-1130h-594zM432 646l-36 9q-8 -27 -21 -35t-26 -8q-36 0 -61 18.5t-59 18.5q-38 0 -57.5 -31t-23.5 -57l33 -12q7 24 22 33.5t29 9.5q28 0 56 -19.5t67 -19.5q35 0 52.5 26.5t24.5 66.5zM337 0h225v57h-77v228q0 89 -44 129t-109 40q-108 0 -156 -88
v79h-150v-57h80v-331h-78v-57h226v57h-78v208q2 51 38.5 90.5t96.5 39.5q45 0 74 -29.5t29 -101.5v-207h-77v-57z" />
    <glyph glyph-name="uni00F2" unicode="&#xf2;" horiz-adv-x="509" 
d="M-12 -213v1130h533v-1130h-533zM294 520l21 31l-154 132l-40 -59zM255 455q-108 0 -164 -69.5t-56 -166.5q0 -101 57.5 -165t158.5 -64q103 0 163 66t60 167q0 95 -55 163.5t-164 68.5zM253 50q-71 0 -108 50t-37 123q0 74 37.5 123t107.5 49t108.5 -47.5t38.5 -123.5
q0 -75 -38 -124.5t-109 -49.5z" />
    <glyph glyph-name="uni00F3" unicode="&#xf3;" horiz-adv-x="509" 
d="M-12 -213v1130h533v-1130h-533zM237 520l172 104l-40 59l-154 -132zM255 455q-108 0 -164 -69.5t-56 -166.5q0 -101 57.5 -165t158.5 -64q103 0 163 66t60 167q0 95 -55 163.5t-164 68.5zM253 50q-71 0 -108 50t-37 123q0 74 37.5 123t107.5 49t108.5 -47.5t38.5 -123.5
q0 -75 -38 -124.5t-109 -49.5z" />
    <glyph glyph-name="uni00F4" unicode="&#xf4;" horiz-adv-x="509" 
d="M-12 -213v1130h533v-1130h-533zM363 519l27 34l-121 118h-22l-121 -120l25 -32l101 84zM255 455q-108 0 -164 -69.5t-56 -166.5q0 -101 57.5 -165t158.5 -64q103 0 163 66t60 167q0 95 -55 163.5t-164 68.5zM253 50q-71 0 -108 50t-37 123q0 74 37.5 123t107.5 49
t108.5 -47.5t38.5 -123.5q0 -75 -38 -124.5t-109 -49.5z" />
    <glyph glyph-name="uni00F5" unicode="&#xf5;" horiz-adv-x="509" 
d="M-12 -213v1130h533v-1130h-533zM394 646l-36 9q-8 -27 -21 -35t-26 -8q-36 0 -61 18.5t-59 18.5q-38 0 -57.5 -31t-23.5 -57l33 -12q7 24 22 33.5t29 9.5q28 0 56 -19.5t67 -19.5q35 0 52.5 26.5t24.5 66.5zM255 455q-108 0 -164 -69.5t-56 -166.5q0 -101 57.5 -165
t158.5 -64q103 0 163 66t60 167q0 95 -55 163.5t-164 68.5zM253 50q-71 0 -108 50t-37 123q0 74 37.5 123t107.5 49t108.5 -47.5t38.5 -123.5q0 -75 -38 -124.5t-109 -49.5z" />
    <glyph glyph-name="uni00F6" unicode="&#xf6;" horiz-adv-x="509" 
d="M-12 -213v1130h533v-1130h-533zM129 640v-85h81v85h-81zM300 640v-85h81v85h-81zM255 455q-108 0 -164 -69.5t-56 -166.5q0 -101 57.5 -165t158.5 -64q103 0 163 66t60 167q0 95 -55 163.5t-164 68.5zM253 50q-71 0 -108 50t-37 123q0 74 37.5 123t107.5 49t108.5 -47.5
t38.5 -123.5q0 -75 -38 -124.5t-109 -49.5z" />
    <glyph glyph-name="divide" unicode="&#xf7;" horiz-adv-x="444" 
d="M-12 917h468v-1130h-468v1130zM171 374h97v103h-97v-103zM395 254v54h-347v-54h347zM171 86h97v103h-97v-103z" />
    <glyph glyph-name="uni00F8" unicode="&#xf8;" horiz-adv-x="509" 
d="M-12 -213v1130h533v-1130h-533zM476 223q0 96 -53 160l53 62h-62l-26 -31q-54 40 -131 40q-109 0 -165 -69t-56 -166q0 -94 52 -159l-52 -60h61l24 29q55 -39 131 -39q103 0 163.5 65.5t60.5 167.5zM111 223q0 74 37 122t107 48q53 0 89 -30l-207 -245q-26 43 -26 105z
M400 224q0 -74 -37 -123.5t-108 -49.5q-53 0 -89 30l209 246q25 -41 25 -103z" />
    <glyph glyph-name="uni00F9" unicode="&#xf9;" horiz-adv-x="558" 
d="M-12 -213v1130h582v-1130h-582zM287 520l21 31l-154 132l-40 -59zM394 0h150v57h-80v388h-163v-57h93v-204q-2 -48 -38.5 -91t-93.5 -43q-47 0 -77 29t-30 101v265h-148v-57h78v-228q0 -89 44.5 -129.5t109.5 -40.5q53 0 93.5 26t61.5 68v-84z" />
    <glyph glyph-name="uni00FA" unicode="&#xfa;" horiz-adv-x="558" 
d="M-12 -213v1130h582v-1130h-582zM247 520l172 104l-40 59l-154 -132zM394 0h150v57h-80v388h-163v-57h93v-204q-2 -48 -38.5 -91t-93.5 -43q-47 0 -77 29t-30 101v265h-148v-57h78v-228q0 -89 44.5 -129.5t109.5 -40.5q53 0 93.5 26t61.5 68v-84z" />
    <glyph glyph-name="uni00FB" unicode="&#xfb;" horiz-adv-x="558" 
d="M-12 -213v1130h582v-1130h-582zM372 519l27 34l-121 118h-22l-121 -120l25 -32l101 84zM394 0h150v57h-80v388h-163v-57h93v-204q-2 -48 -38.5 -91t-93.5 -43q-47 0 -77 29t-30 101v265h-148v-57h78v-228q0 -89 44.5 -129.5t109.5 -40.5q53 0 93.5 26t61.5 68v-84z" />
    <glyph glyph-name="uni00FC" unicode="&#xfc;" horiz-adv-x="558" 
d="M-12 -213v1130h582v-1130h-582zM131 640v-85h81v85h-81zM302 640v-85h81v85h-81zM394 0h150v57h-80v388h-163v-57h93v-204q-2 -48 -38.5 -91t-93.5 -43q-47 0 -77 29t-30 101v265h-148v-57h78v-228q0 -89 44.5 -129.5t109.5 -40.5q53 0 93.5 26t61.5 68v-84z" />
    <glyph glyph-name="yacute" unicode="&#xfd;" horiz-adv-x="507" 
d="M-12 -213v1130h531v-1130h-213v57h-76l60 156l157 388h53v57h-196v-57h72l-111 -299h-6l-125 299h78v57h-206v-57h53l162 -387l-58 -157h-83v-57h-92zM231 520l172 104l-40 59l-154 -132z" />
    <glyph glyph-name="thorn" unicode="&#xfe;" horiz-adv-x="520" 
d="M135 352v336h-147v229h544v-1130h-293v57h-104v221q22 -37 61.5 -56t85.5 -19q72 0 117 36.5t65.5 93t20.5 115.5q0 103 -53.5 161t-136.5 58q-63 0 -101.5 -30.5t-58.5 -71.5zM64 -156h-76v787h76v-787zM410 229q0 -71 -34.5 -124.5t-105.5 -53.5q-58 0 -96.5 38
t-38.5 94v63q0 50 40.5 98.5t103.5 48.5q55 0 93 -42t38 -122z" />
    <glyph glyph-name="ydieresis" unicode="&#xff;" horiz-adv-x="507" 
d="M-12 -213v1130h531v-1130h-213v57h-76l60 156l157 388h53v57h-196v-57h72l-111 -299h-6l-125 299h78v57h-206v-57h53l162 -387l-58 -157h-83v-57h-92zM141 640v-85h81v85h-81zM312 640v-85h81v85h-81z" />
    <glyph glyph-name="uni0100" unicode="&#x100;" 
d="M-12 917h646v-853h-79l-213 586h-186v-64h104l-193 -522h-79v853zM170 733h279v57h-279v-57zM316 544l106 -298h-219l108 298h5zM634 -213h-646v213h228v64h-80l46 125h260l44 -125h-77v-64h225v-213z" />
    <glyph glyph-name="uni0101" unicode="&#x101;" horiz-adv-x="479" 
d="M-12 -213v1130h503v-1130h-503zM107 564h244v57h-244v-57zM79 411l-16 -103l58 -7l17 77q37 18 86 18q60 0 80.5 -30t20.5 -78v-40q-18 2 -38.5 3t-40.5 1q-75 0 -141.5 -26.5t-66.5 -110.5q0 -71 45.5 -98t89.5 -27q54 0 92.5 28t59.5 64v-2q2 -90 81 -90q31 0 58 15
l-1 46q-13 -6 -30 -6q-38 0 -38 48v212q0 149 -159 149q-44 0 -83 -10t-74 -33zM325 167q-4 -55 -44.5 -87t-86.5 -32q-29 0 -56 16t-27 59q0 52 40.5 67.5t90.5 15.5q22 0 43 -2t40 -3v-34z" />
    <glyph glyph-name="uni0102" unicode="&#x102;" 
d="M-12 917h646v-853h-79l-213 586h-186v-64h104l-193 -522h-79v853zM438 816h-58q0 -69 -64 -69q-31 0 -47.5 14.5t-16.5 54.5h-58q0 -117 122 -117t122 117zM316 544l106 -298h-219l108 298h5zM634 -213h-646v213h228v64h-80l46 125h260l44 -125h-77v-64h225v-213z" />
    <glyph glyph-name="uni0103" unicode="&#x103;" horiz-adv-x="479" 
d="M-12 -213v1130h503v-1130h-503zM352 655h-59q0 -75 -63 -75q-64 0 -64 75h-59q0 -123 122 -123q123 0 123 123zM79 411l-16 -103l58 -7l17 77q37 18 86 18q60 0 80.5 -30t20.5 -78v-40q-18 2 -38.5 3t-40.5 1q-75 0 -141.5 -26.5t-66.5 -110.5q0 -71 45.5 -98t89.5 -27
q54 0 92.5 28t59.5 64v-2q2 -90 81 -90q31 0 58 15l-1 46q-13 -6 -30 -6q-38 0 -38 48v212q0 149 -159 149q-44 0 -83 -10t-74 -33zM325 167q-4 -55 -44.5 -87t-86.5 -32q-29 0 -56 16t-27 59q0 52 40.5 67.5t90.5 15.5q22 0 43 -2t40 -3v-34z" />
    <glyph glyph-name="uni0104" unicode="&#x104;" 
d="M47 64h-59v853h646v-853h-59l-233 586h-186v-64h104zM316 544l112 -298h-235l118 298h5zM-12 -213v213h228v64h-95l50 125h278l47 -125h-87v-64h106q-31 -19 -51.5 -49.5t-20.5 -68.5q0 -43 29 -68.5t76 -25.5q42 0 79 20l-9 49q-25 -15 -54 -15q-58 0 -58 59q0 25 14 51
t50 48h64v-213h-646z" />
    <glyph glyph-name="uni0105" unicode="&#x105;" horiz-adv-x="479" 
d="M-12 -213v1130h503v-1130h-503zM479 -192l-9 49q-25 -15 -54 -15q-58 0 -58 59q0 23 10.5 46t38.5 43q35 2 57 15l-1 46q-13 -6 -30 -6q-38 0 -38 48v212q0 149 -159 149q-44 0 -83 -10t-74 -33l-16 -103l58 -7l17 77q37 18 86 18q60 0 80.5 -30t20.5 -78v-40
q-18 2 -38.5 3t-40.5 1q-75 0 -141.5 -26.5t-66.5 -110.5q0 -71 45.5 -98t89.5 -27q54 0 92.5 28t59.5 64v-2q2 -62 41 -81q-31 -19 -51 -49t-20 -68q0 -43 29 -68.5t76 -25.5q41 0 79 20zM325 167q-4 -55 -44.5 -87t-86.5 -32q-29 0 -56 16t-27 59q0 52 40.5 67.5
t90.5 15.5q22 0 43 -2t40 -3v-34z" />
    <glyph glyph-name="uni0106" unicode="&#x106;" horiz-adv-x="642" 
d="M-12 -213v1130h666v-1130h-666zM310 703l197 42l-17 68l-191 -73zM573 50l17 125l-62 6l-19 -96q-58 -29 -143 -29q-116 0 -183.5 73.5t-67.5 194.5q0 118 65.5 194t172.5 76q55 0 92 -12.5t69 -33.5l18 -95l63 6l-18 125q-40 34 -94.5 55t-135.5 21q-95 0 -164 -47
t-107 -124.5t-38 -167.5q0 -142 88 -236.5t230 -94.5q139 0 217 60z" />
    <glyph glyph-name="uni0107" unicode="&#x107;" horiz-adv-x="457" 
d="M-12 -213v1130h481v-1130h-481zM205 520l172 104l-40 59l-154 -132zM426 150l-60 13q-20 -113 -120 -113q-66 0 -101 45t-35 125q0 72 31 123t102 51q55 0 95 -25l17 -75l58 7l-17 107q-34 26 -71 36t-81 10q-104 0 -156 -73t-52 -165q0 -107 55 -166.5t147 -59.5
t135.5 51t52.5 109z" />
    <glyph glyph-name="uni0108" unicode="&#x108;" horiz-adv-x="642" 
d="M-12 -213v1130h666v-1130h-666zM476 702l19 35l-126 90h-21l-127 -93l19 -33l116 63zM573 50l17 125l-62 6l-19 -96q-58 -29 -143 -29q-116 0 -183.5 73.5t-67.5 194.5q0 118 65.5 194t172.5 76q55 0 92 -12.5t69 -33.5l18 -95l63 6l-18 125q-40 34 -94.5 55t-135.5 21
q-95 0 -164 -47t-107 -124.5t-38 -167.5q0 -142 88 -236.5t230 -94.5q139 0 217 60z" />
    <glyph glyph-name="uni0109" unicode="&#x109;" horiz-adv-x="457" 
d="M-12 -213v1130h481v-1130h-481zM350 519l27 34l-121 118h-22l-121 -120l25 -32l101 84zM426 150l-60 13q-20 -113 -120 -113q-66 0 -101 45t-35 125q0 72 31 123t102 51q55 0 95 -25l17 -75l58 7l-17 107q-34 26 -71 36t-81 10q-104 0 -156 -73t-52 -165
q0 -107 55 -166.5t147 -59.5t135.5 51t52.5 109z" />
    <glyph glyph-name="uni010A" unicode="&#x10a;" horiz-adv-x="642" 
d="M-12 -213v1130h666v-1130h-666zM310 803v-85h81v85h-81zM573 50l17 125l-62 6l-19 -96q-58 -29 -143 -29q-116 0 -183.5 73.5t-67.5 194.5q0 118 65.5 194t172.5 76q55 0 92 -12.5t69 -33.5l18 -95l63 6l-18 125q-40 34 -94.5 55t-135.5 21q-95 0 -164 -47t-107 -124.5
t-38 -167.5q0 -142 88 -236.5t230 -94.5q139 0 217 60z" />
    <glyph glyph-name="uni010B" unicode="&#x10b;" horiz-adv-x="457" 
d="M-12 -213v1130h481v-1130h-481zM201 644v-91h77v91h-77zM426 150l-60 13q-20 -113 -120 -113q-66 0 -101 45t-35 125q0 72 31 123t102 51q55 0 95 -25l17 -75l58 7l-17 107q-34 26 -71 36t-81 10q-104 0 -156 -73t-52 -165q0 -107 55 -166.5t147 -59.5t135.5 51t52.5 109
z" />
    <glyph glyph-name="uni010C" unicode="&#x10c;" horiz-adv-x="642" 
d="M-12 -213v1130h666v-1130h-666zM366 701l126 91l-19 35l-115 -64l-120 61l-20 -34l126 -89h22zM573 50l17 125l-62 6l-19 -96q-58 -29 -143 -29q-116 0 -183.5 73.5t-67.5 194.5q0 118 65.5 194t172.5 76q55 0 92 -12.5t69 -33.5l18 -95l63 6l-18 125q-40 34 -94.5 55
t-135.5 21q-95 0 -164 -47t-107 -124.5t-38 -167.5q0 -142 88 -236.5t230 -94.5q139 0 217 60z" />
    <glyph glyph-name="uni010D" unicode="&#x10d;" horiz-adv-x="457" 
d="M-12 -213v1130h481v-1130h-481zM252 519l121 119l-26 33l-102 -85l-110 84l-26 -34l121 -117h22zM426 150l-60 13q-20 -113 -120 -113q-66 0 -101 45t-35 125q0 72 31 123t102 51q55 0 95 -25l17 -75l58 7l-17 107q-34 26 -71 36t-81 10q-104 0 -156 -73t-52 -165
q0 -107 55 -166.5t147 -59.5t135.5 51t52.5 109z" />
    <glyph glyph-name="uni010E" unicode="&#x10e;" horiz-adv-x="701" 
d="M-12 -213v1130h725v-1130h-725zM313 701l126 91l-19 35l-115 -64l-120 61l-20 -34l126 -89h22zM663 326q0 141 -86.5 232.5t-245.5 91.5h-291v-63h82v-524h-82v-63h294q154 0 241.5 91.5t87.5 234.5zM585 325q0 -121 -65.5 -191.5t-189.5 -70.5h-135v524h135
q124 0 189.5 -72t65.5 -190z" />
    <glyph glyph-name="uni010F" unicode="&#x10f;" horiz-adv-x="610" 
d="M-12 -213v1130h634v-1130h-634zM386 0h147v57h-77v631h-178v-57h108v-258q-45 81 -149 81q-109 0 -155 -77t-46 -166q0 -104 52.5 -162.5t138.5 -58.5q61 0 99 30t60 70v-90zM579 457l23 224h-67l-13 -224h57zM386 268v-71q-2 -50 -41.5 -98.5t-99.5 -48.5
q-58 0 -96.5 42t-38.5 124q0 70 34.5 124t108.5 54q53 0 92 -35t41 -91z" />
    <glyph glyph-name="uni0110" unicode="&#x110;" horiz-adv-x="701" 
d="M-12 -213v1130h725v-1130h-725zM663 326q0 141 -86.5 232.5t-245.5 91.5h-291v-63h82v-217h-79v-62h79v-245h-82v-63h294q154 0 241.5 91.5t87.5 234.5zM585 325q0 -121 -65.5 -191.5t-189.5 -70.5h-135v245h135v62h-135v217h135q124 0 189.5 -72t65.5 -190z" />
    <glyph glyph-name="uni0111" unicode="&#x111;" horiz-adv-x="546" 
d="M-12 -213v1130h570v-1130h-570zM386 0h147v57h-77v462h67v49h-67v120h-178v-57h108v-63h-178v-49h178v-146q-45 81 -149 81q-109 0 -155 -77t-46 -166q0 -104 52.5 -162.5t138.5 -58.5q61 0 99 30t60 70v-90zM386 268v-71q-2 -50 -41.5 -98.5t-99.5 -48.5q-58 0 -96.5 42
t-38.5 124q0 70 34.5 124t108.5 54q53 0 92 -35t41 -91z" />
    <glyph glyph-name="uni0112" unicode="&#x112;" horiz-adv-x="584" 
d="M-12 -213v1130h608v-1130h-608zM181 733h279v57h-279v-57zM40 0h484l19 184l-63 7l-20 -127h-265v234h307v64h-307v224h256l20 -127l64 7l-20 184h-475v-64h82v-522h-82v-64z" />
    <glyph glyph-name="uni0113" unicode="&#x113;" horiz-adv-x="466" 
d="M-12 -213v1130h490v-1130h-490zM122 564h244v57h-244v-57zM433 128l-59 13q-10 -41 -40 -66t-83 -25q-135 0 -141 156h313q6 27 6 53q-1 79 -49 137t-140 58q-94 0 -149 -67t-55 -171q0 -108 58 -167t152 -59q82 0 130 40.5t57 97.5zM355 258h-244q7 56 36 97t91 41
q65 0 93.5 -44t23.5 -94z" />
    <glyph glyph-name="uni0114" unicode="&#x114;" horiz-adv-x="584" 
d="M-12 -213v1130h608v-1130h-608zM447 816h-58q0 -69 -64 -69q-31 0 -47.5 14.5t-16.5 54.5h-58q0 -117 122 -117t122 117zM40 0h484l19 184l-63 7l-20 -127h-265v234h307v64h-307v224h256l20 -127l64 7l-20 184h-475v-64h82v-522h-82v-64z" />
    <glyph glyph-name="uni0115" unicode="&#x115;" horiz-adv-x="466" 
d="M-12 -213v1130h490v-1130h-490zM364 655h-59q0 -75 -63 -75q-64 0 -64 75h-59q0 -123 122 -123q123 0 123 123zM433 128l-59 13q-10 -41 -40 -66t-83 -25q-135 0 -141 156h313q6 27 6 53q-1 79 -49 137t-140 58q-94 0 -149 -67t-55 -171q0 -108 58 -167t152 -59
q82 0 130 40.5t57 97.5zM355 258h-244q7 56 36 97t91 41q65 0 93.5 -44t23.5 -94z" />
    <glyph glyph-name="uni0116" unicode="&#x116;" horiz-adv-x="584" 
d="M-12 -213v1130h608v-1130h-608zM279 803v-85h81v85h-81zM40 0h484l19 184l-63 7l-20 -127h-265v234h307v64h-307v224h256l20 -127l64 7l-20 184h-475v-64h82v-522h-82v-64z" />
    <glyph glyph-name="uni0117" unicode="&#x117;" horiz-adv-x="466" 
d="M-12 -213v1130h490v-1130h-490zM201 644v-91h77v91h-77zM433 128l-59 13q-10 -41 -40 -66t-83 -25q-135 0 -141 156h313q6 27 6 53q-1 79 -49 137t-140 58q-94 0 -149 -67t-55 -171q0 -108 58 -167t152 -59q82 0 130 40.5t57 97.5zM355 258h-244q7 56 36 97t91 41
q65 0 93.5 -44t23.5 -94z" />
    <glyph glyph-name="uni0118" unicode="&#x118;" horiz-adv-x="584" 
d="M-12 -213v1130h608v-1130h-608zM40 0h391q-31 -19 -51.5 -49.5t-20.5 -68.5q0 -43 29 -68.5t76 -25.5q42 0 79 20l-9 49q-25 -15 -54 -15q-58 0 -58 59q0 25 14 51t50 48h38l19 184l-63 7l-20 -127h-265v234h307v64h-307v224h256l20 -127l64 7l-20 184h-475v-64h82v-522
h-82v-64z" />
    <glyph glyph-name="uni0119" unicode="&#x119;" horiz-adv-x="466" 
d="M-12 -213v1130h490v-1130h-490zM433 128l-59 13q-10 -41 -40 -66t-83 -25q-135 0 -141 156h313q6 27 6 53q-1 79 -49 137t-140 58q-94 0 -149 -67t-55 -171q0 -106 56.5 -165t149.5 -61q-25 -19 -41 -48t-16 -63q0 -43 28.5 -67t75.5 -24q42 0 79 20l-9 49
q-25 -15 -54 -15q-58 0 -58 56q0 24 12.5 50.5t46.5 48.5q56 13 88 49t39 82zM355 258h-244q7 56 36 97t91 41q65 0 93.5 -44t23.5 -94z" />
    <glyph glyph-name="uni011A" unicode="&#x11a;" horiz-adv-x="584" 
d="M-12 -213v1130h608v-1130h-608zM327 701l126 91l-19 35l-115 -64l-120 61l-20 -34l126 -89h22zM40 0h484l19 184l-63 7l-20 -127h-265v234h307v64h-307v224h256l20 -127l64 7l-20 184h-475v-64h82v-522h-82v-64z" />
    <glyph glyph-name="uni011B" unicode="&#x11b;" horiz-adv-x="466" 
d="M-12 -213v1130h490v-1130h-490zM252 519l121 119l-26 33l-102 -85l-110 84l-26 -34l121 -117h22zM433 128l-59 13q-10 -41 -40 -66t-83 -25q-135 0 -141 156h313q6 27 6 53q-1 79 -49 137t-140 58q-94 0 -149 -67t-55 -171q0 -108 58 -167t152 -59q82 0 130 40.5t57 97.5
zM355 258h-244q7 56 36 97t91 41q65 0 93.5 -44t23.5 -94z" />
    <glyph glyph-name="uni011C" unicode="&#x11c;" horiz-adv-x="688" 
d="M-12 -213v1130h712v-1130h-712zM470 702l19 35l-126 90h-21l-127 -93l19 -33l116 63zM611 270h51v65h-279v-65h155v-58q0 -59 -49 -107.5t-138 -48.5q-107 0 -171 74t-64 195q0 119 67 194t176 75q60 0 98.5 -14.5t65.5 -32.5l20 -92l62 7l-18 122q-37 33 -95.5 54.5
t-136.5 21.5q-93 0 -164.5 -45.5t-112 -122t-40.5 -170.5q0 -140 83 -236t217 -96q72 0 125.5 28.5t82.5 71.5l9 -90h56v270z" />
    <glyph glyph-name="uni011D" unicode="&#x11d;" horiz-adv-x="545" 
d="M-12 -213v1130h569v-1130h-309q100 4 154.5 65.5t54.5 163.5v372h72v57h-143v-70q-45 79 -151 79q-103 0 -151 -77t-48 -166q0 -105 56 -161t135 -56q63 0 101 29t58 68v-72q0 -83 -40.5 -127t-104.5 -44q-45 0 -87 23t-59 75l-56 -28q17 -64 68.5 -96t116.5 -35h-236z
M364 519l27 34l-121 118h-22l-121 -120l25 -32l101 84zM386 269v-77q-2 -50 -41.5 -93.5t-102.5 -43.5q-55 0 -93 39.5t-38 121.5q0 70 33.5 123.5t109.5 53.5q54 0 93 -34t39 -90z" />
    <glyph glyph-name="uni011E" unicode="&#x11e;" horiz-adv-x="688" 
d="M-12 -213v1130h712v-1130h-712zM477 816h-58q0 -69 -64 -69q-31 0 -47.5 14.5t-16.5 54.5h-58q0 -117 122 -117t122 117zM611 270h51v65h-279v-65h155v-58q0 -59 -49 -107.5t-138 -48.5q-107 0 -171 74t-64 195q0 119 67 194t176 75q60 0 98.5 -14.5t65.5 -32.5l20 -92
l62 7l-18 122q-37 33 -95.5 54.5t-136.5 21.5q-93 0 -164.5 -45.5t-112 -122t-40.5 -170.5q0 -140 83 -236t217 -96q72 0 125.5 28.5t82.5 71.5l9 -90h56v270z" />
    <glyph glyph-name="uni011F" unicode="&#x11f;" horiz-adv-x="545" 
d="M-12 -213v1130h569v-1130h-309q100 4 154.5 65.5t54.5 163.5v372h72v57h-143v-70q-45 79 -151 79q-103 0 -151 -77t-48 -166q0 -105 56 -161t135 -56q63 0 101 29t58 68v-72q0 -83 -40.5 -127t-104.5 -44q-45 0 -87 23t-59 75l-56 -28q17 -64 68.5 -96t116.5 -35h-236z
M380 655h-59q0 -75 -63 -75q-64 0 -64 75h-59q0 -123 122 -123q123 0 123 123zM386 269v-77q-2 -50 -41.5 -93.5t-102.5 -43.5q-55 0 -93 39.5t-38 121.5q0 70 33.5 123.5t109.5 53.5q54 0 93 -34t39 -90z" />
    <glyph glyph-name="uni0120" unicode="&#x120;" horiz-adv-x="688" 
d="M-12 -213v1130h712v-1130h-712zM313 803v-85h81v85h-81zM611 270h51v65h-279v-65h155v-58q0 -59 -49 -107.5t-138 -48.5q-107 0 -171 74t-64 195q0 119 67 194t176 75q60 0 98.5 -14.5t65.5 -32.5l20 -92l62 7l-18 122q-37 33 -95.5 54.5t-136.5 21.5q-93 0 -164.5 -45.5
t-112 -122t-40.5 -170.5q0 -140 83 -236t217 -96q72 0 125.5 28.5t82.5 71.5l9 -90h56v270z" />
    <glyph glyph-name="uni0121" unicode="&#x121;" horiz-adv-x="545" 
d="M-12 -213v1130h569v-1130h-309q100 4 154.5 65.5t54.5 163.5v372h72v57h-143v-70q-45 79 -151 79q-103 0 -151 -77t-48 -166q0 -105 56 -161t135 -56q63 0 101 29t58 68v-72q0 -83 -40.5 -127t-104.5 -44q-45 0 -87 23t-59 75l-56 -28q17 -64 68.5 -96t116.5 -35h-236z
M221 644v-91h77v91h-77zM386 269v-77q-2 -50 -41.5 -93.5t-102.5 -43.5q-55 0 -93 39.5t-38 121.5q0 70 33.5 123.5t109.5 53.5q54 0 93 -34t39 -90z" />
    <glyph glyph-name="uni0122" unicode="&#x122;" horiz-adv-x="688" 
d="M-12 -213v1130h712v-1130h-336l18 154h-67l-8 -154h-319zM611 270h51v65h-279v-65h155v-58q0 -59 -49 -107.5t-138 -48.5q-107 0 -171 74t-64 195q0 119 67 194t176 75q60 0 98.5 -14.5t65.5 -32.5l20 -92l62 7l-18 122q-37 33 -95.5 54.5t-136.5 21.5
q-93 0 -164.5 -45.5t-112 -122t-40.5 -170.5q0 -140 83 -236t217 -96q72 0 125.5 28.5t82.5 71.5l9 -90h56v270z" />
    <glyph glyph-name="uni0123" unicode="&#x123;" horiz-adv-x="545" 
d="M-12 -213v1130h569v-1130h-309q100 4 154.5 65.5t54.5 163.5v372h72v57h-143v-70q-45 79 -151 79q-103 0 -151 -77t-48 -166q0 -105 56 -161t135 -56q63 0 101 29t58 68v-72q0 -83 -40.5 -127t-104.5 -44q-45 0 -87 23t-59 75l-56 -28q17 -64 68.5 -96t116.5 -35h-236z
M380 698l-18 -154h67l8 154h-57zM386 269v-77q-2 -50 -41.5 -93.5t-102.5 -43.5q-55 0 -93 39.5t-38 121.5q0 70 33.5 123.5t109.5 53.5q54 0 93 -34t39 -90z" />
    <glyph glyph-name="uni0124" unicode="&#x124;" horiz-adv-x="752" 
d="M-12 -213v1130h776v-1130h-776zM497 702l19 35l-126 90h-21l-127 -93l19 -33l116 63zM474 0h237v64h-82v522h82v64h-237v-64h82v-224h-361v224h82v64h-237v-64h82v-522h-82v-64h237v64h-82v236h361v-236h-82v-64z" />
    <glyph glyph-name="uni0125" unicode="&#x125;" horiz-adv-x="556" 
d="M-12 -213v1130h580v-1130h-580zM229 715l27 34l-121 118h-22l-121 -120l25 -32l101 84zM323 0h226v57h-77v228q0 89 -44 129t-109 40q-107 0 -156 -89v323h-148v-57h77v-574h-77v-57h225v57h-77v210q2 49 38.5 88.5t94.5 39.5q46 0 75.5 -29.5t29.5 -101.5v-207h-78v-57z
" />
    <glyph glyph-name="uni0126" unicode="&#x126;" horiz-adv-x="752" 
d="M-12 -213v1130h776v-1130h-776zM474 0h237v64h-82v398h74v53h-74v71h82v64h-237v-64h82v-71h-361v71h82v64h-237v-64h82v-71h-75v-53h75v-398h-82v-64h237v64h-82v236h361v-236h-82v-64zM556 362h-361v100h361v-100z" />
    <glyph glyph-name="uni0127" unicode="&#x127;" horiz-adv-x="556" 
d="M-12 -213v1130h580v-1130h-580zM323 0h226v57h-77v228q0 89 -44 129t-109 40q-107 0 -156 -89v152h172v49h-172v122h-148v-57h77v-65h-72v-49h72v-460h-77v-57h225v57h-77v210q2 49 38.5 88.5t94.5 39.5q46 0 75.5 -29.5t29.5 -101.5v-207h-78v-57z" />
    <glyph glyph-name="uni0128" unicode="&#x128;" horiz-adv-x="318" 
d="M-12 -213v1130h342v-1130h-342zM306 798l-36 9q-8 -28 -21 -35t-26 -7q-36 0 -61 17.5t-58 17.5q-38 0 -58 -28t-24 -54l33 -13q7 24 21.5 31.5t28.5 7.5q29 0 57 -17.5t66 -17.5q36 0 53 24.5t25 64.5zM40 0h237v64h-81v522h81v64h-237v-64h82v-522h-82v-64z" />
    <glyph glyph-name="uni0129" unicode="&#x129;" horiz-adv-x="277" 
d="M-12 -213v1130h301v-1130h-301zM275 646l-36 9q-8 -26 -20.5 -34t-26.5 -8q-35 0 -60 18t-59 18q-37 0 -56.5 -30.5t-23.5 -56.5l33 -12q8 24 22 33.5t28 9.5q28 0 56 -19.5t66 -19.5q34 0 52 26t25 66zM32 0h226v57h-78v388h-150v-57h80v-331h-78v-57z" />
    <glyph glyph-name="uni012A" unicode="&#x12a;" horiz-adv-x="318" 
d="M-12 -213v1130h342v-1130h-342zM22 733h279v57h-279v-57zM40 0h237v64h-81v522h81v64h-237v-64h82v-522h-82v-64z" />
    <glyph glyph-name="uni012B" unicode="&#x12b;" horiz-adv-x="277" 
d="M-12 -213v1130h301v-1130h-301zM8 564h244v57h-244v-57zM32 0h226v57h-78v388h-150v-57h80v-331h-78v-57z" />
    <glyph glyph-name="uni012C" unicode="&#x12c;" horiz-adv-x="318" 
d="M-12 -213v1130h342v-1130h-342zM281 816h-58q0 -69 -64 -69q-31 0 -47.5 14.5t-16.5 54.5h-58q0 -117 122 -117t122 117zM40 0h237v64h-81v522h81v64h-237v-64h82v-522h-82v-64z" />
    <glyph glyph-name="uni012D" unicode="&#x12d;" horiz-adv-x="277" 
d="M-12 -213v1130h301v-1130h-301zM263 655h-59q0 -75 -63 -75q-64 0 -64 75h-59q0 -123 122 -123q123 0 123 123zM32 0h226v57h-78v388h-150v-57h80v-331h-78v-57z" />
    <glyph glyph-name="uni012E" unicode="&#x12e;" horiz-adv-x="318" 
d="M-12 -213v1130h342v-1130h-342zM246 -189l-9 49q-25 -15 -54 -15q-58 0 -58 56q0 25 14 51t50 48h88v64h-81v522h81v64h-237v-64h82v-522h-82v-64h94q-31 -19 -51.5 -49.5t-20.5 -68.5q0 -43 29 -67t76 -24q42 0 79 20z" />
    <glyph glyph-name="uni012F" unicode="&#x12f;" horiz-adv-x="277" 
d="M-12 917h301v-1130h-301v1130zM103 560h76v91h-76v-91zM224 -143q-25 -15 -54 -15q-58 0 -58 56q0 25 13.5 52.5t50.5 49.5h82v57h-78v388h-150v-57h80v-331h-78v-57h89q-31 -19 -51.5 -51t-20.5 -70q0 -43 29 -67t76 -24q41 0 79 20z" />
    <glyph glyph-name="uni0130" unicode="&#x130;" horiz-adv-x="318" 
d="M-12 -213v1130h342v-1130h-342zM117 803v-85h81v85h-81zM40 0h237v64h-81v522h81v64h-237v-64h82v-522h-82v-64z" />
    <glyph glyph-name="uni0131" unicode="&#x131;" horiz-adv-x="277" 
d="M-12 -213v1130h301v-1130h-301zM32 0h226v57h-78v388h-150v-57h80v-331h-78v-57z" />
    <glyph glyph-name="uni0132" unicode="&#x132;" horiz-adv-x="775" 
d="M-12 -213v1130h799v-1130h-799zM40 0h237v64h-81v522h81v64h-237v-64h82v-522h-82v-64zM668 586h72v64h-274v-64h129v-420q0 -49 -24 -78t-77 -29q-33 0 -57.5 14.5t-45.5 55.5l-53 -40q21 -44 59.5 -71.5t103.5 -27.5q78 0 122.5 44t44.5 132v420z" />
    <glyph glyph-name="ij" unicode="&#x133;" horiz-adv-x="526" 
d="M-12 -213v1130h550v-1130h-244q70 2 115 48t45 161v449h-169v-57h99v-392q0 -72 -18 -104.5t-45 -41t-54 -8.5v-55h-279zM378 651v-91h76v91h-76zM103 651v-91h76v91h-76zM32 0h226v57h-78v388h-150v-57h80v-331h-78v-57z" />
    <glyph glyph-name="uni0134" unicode="&#x134;" horiz-adv-x="454" 
d="M-10 -213l-2 1130h478v-1130h-476zM408 702l19 35l-126 90h-21l-127 -93l19 -33l116 63zM346 586h72v64h-274v-64h129v-420q0 -49 -23.5 -78t-76.5 -29q-33 0 -57.5 14.5t-45.5 55.5l-53 -40q21 -44 59.5 -71.5t102.5 -27.5q79 0 123 44t44 132v420z" />
    <glyph glyph-name="uni0135" unicode="&#x135;" horiz-adv-x="247" 
d="M-12 917h271v-1130h-244q70 2 115 48t45 161v449h-170v-57h99v-392q0 -72 -17.5 -104.5t-44 -41t-54.5 -8.5v1075zM249 554l-115 114h-19l-116 -116l24 -31l96 81l105 -81z" />
    <glyph glyph-name="uni0136" unicode="&#x136;" horiz-adv-x="638" 
d="M-12 -213v1130h662v-1130h-294l18 154h-67l-8 -154h-311zM399 0h234v64h-73l-200 274l187 249h74v64h-229v-64h77l-167 -225h-106v224h76v64h-232v-64h82v-522h-82v-64h231v64h-75v235h108l172 -235h-77v-64z" />
    <glyph glyph-name="uni0137" unicode="&#x137;" horiz-adv-x="517" 
d="M-12 -213v1130h541v-1130h-254l18 154h-67l-8 -154h-230zM297 0h210v57h-63l-147 184l119 147h68v57h-208v-57h69l-102 -126h-80v426h-150v-57h79v-574h-77v-57h212v57h-64v151h79l122 -151h-67v-57z" />
    <glyph glyph-name="uni0139" unicode="&#x139;" horiz-adv-x="540" 
d="M-12 -213v1130h564v-1130h-564zM99 703l197 42l-17 68l-191 -73zM40 0h459l20 208l-65 5l-20 -149h-239v522h109v64h-264v-64h82v-522h-82v-64z" />
    <glyph glyph-name="uni013A" unicode="&#x13a;" horiz-adv-x="262" 
d="M-12 -213v1130h286v-1130h-286zM25 713l197 42l-17 68l-191 -73zM18 0h226v57h-78v631h-149v-57h79v-574h-78v-57z" />
    <glyph glyph-name="uni013B" unicode="&#x13b;" horiz-adv-x="540" 
d="M-12 -213v1130h564v-1130h-230l18 149h-67l-8 -149h-277zM40 0h459l20 208l-65 5l-20 -149h-239v522h109v64h-264v-64h82v-522h-82v-64zM322 -218h-57v5h57v-5z" />
    <glyph glyph-name="uni013C" unicode="&#x13c;" horiz-adv-x="262" 
d="M-12 -213v1130h286v-1130h-124l18 154h-67l-8 -154h-105zM18 0h226v57h-78v631h-149v-57h79v-574h-78v-57z" />
    <glyph glyph-name="uni013D" unicode="&#x13d;" horiz-adv-x="540" 
d="M-12 -213v1130h564v-1130h-564zM410 458l22 224h-66l-13 -224h57zM40 0h459l20 208l-65 5l-20 -149h-239v522h109v64h-264v-64h82v-522h-82v-64z" />
    <glyph glyph-name="uni013E" unicode="&#x13e;" horiz-adv-x="317" 
d="M-12 -213v1130h341v-1130h-341zM18 0h226v57h-78v631h-149v-57h79v-574h-78v-57zM290 457l22 224h-66l-13 -224h57z" />
    <glyph glyph-name="uni013F" unicode="&#x13f;" horiz-adv-x="540" 
d="M-12 -213v1130h564v-1130h-564zM40 0h459l20 208l-65 5l-20 -149h-239v522h109v64h-264v-64h82v-522h-82v-64zM331 386v-91h77v91h-77z" />
    <glyph glyph-name="uni0140" unicode="&#x140;" horiz-adv-x="285" 
d="M-12 -213v1130h309v-1130h-309zM18 0h226v57h-78v631h-149v-57h79v-574h-78v-57zM207 384v-91h76v91h-76z" />
    <glyph glyph-name="uni0141" unicode="&#x141;" horiz-adv-x="540" 
d="M-12 -213v1130h564v-1130h-564zM40 0h469l20 208l-65 5l-20 -149h-249v231l156 62v59l-156 -62v232h109v64h-264v-64h82v-260l-80 -32v-59l80 32v-203h-82v-64z" />
    <glyph glyph-name="uni0142" unicode="&#x142;" horiz-adv-x="262" 
d="M-12 -213v1130h286v-1130h-286zM18 0h226v57h-78v255l81 38v59l-81 -38v317h-149v-57h79v-293l-81 -37v-59l81 38v-223h-78v-57z" />
    <glyph glyph-name="uni0143" unicode="&#x143;" horiz-adv-x="733" 
d="M-12 -213v1130h757v-1130h-757zM315 703l197 42l-17 68l-191 -73zM620 586h81v64h-249v-64h98v-437h-4l-370 501h-140v-64h86v-522h-75v-64h248v64h-103v448h4l377 -512h47v586z" />
    <glyph glyph-name="uni0144" unicode="&#x144;" horiz-adv-x="570" 
d="M-12 -213v1130h594v-1130h-594zM274 520l172 104l-40 59l-154 -132zM337 0h225v57h-77v228q0 89 -44 129t-109 40q-108 0 -156 -88v79h-150v-57h80v-331h-78v-57h226v57h-78v208q2 51 38.5 90.5t96.5 39.5q45 0 74 -29.5t29 -101.5v-207h-77v-57z" />
    <glyph glyph-name="uni0145" unicode="&#x145;" horiz-adv-x="733" 
d="M-12 -213v1130h757v-1130h-757zM620 586h81v64h-249v-64h98v-437h-4l-370 501h-140v-64h86v-522h-75v-64h248v64h-103v448h4l377 -512h47v586zM396 -212l18 154h-67l-8 -154h57z" />
    <glyph glyph-name="uni0146" unicode="&#x146;" horiz-adv-x="570" 
d="M-12 -213v1130h594v-1130h-265l18 154h-67l-8 -154h-272zM337 0h225v57h-77v228q0 89 -44 129t-109 40q-108 0 -156 -88v79h-150v-57h80v-331h-78v-57h226v57h-78v208q2 51 38.5 90.5t96.5 39.5q45 0 74 -29.5t29 -101.5v-207h-77v-57z" />
    <glyph glyph-name="uni0147" unicode="&#x147;" horiz-adv-x="733" 
d="M-12 -213v1130h757v-1130h-757zM374 701l126 91l-19 35l-115 -64l-120 61l-20 -34l126 -89h22zM620 586h81v64h-249v-64h98v-437h-4l-370 501h-140v-64h86v-522h-75v-64h248v64h-103v448h4l377 -512h47v586z" />
    <glyph glyph-name="uni0148" unicode="&#x148;" horiz-adv-x="570" 
d="M-12 -213v1130h594v-1130h-594zM307 519l121 119l-26 33l-102 -85l-110 84l-26 -34l121 -117h22zM337 0h225v57h-77v228q0 89 -44 129t-109 40q-108 0 -156 -88v79h-150v-57h80v-331h-78v-57h226v57h-78v208q2 51 38.5 90.5t96.5 39.5q45 0 74 -29.5t29 -101.5v-207h-77
v-57z" />
    <glyph glyph-name="uni0149" unicode="&#x149;" horiz-adv-x="570" 
d="M-12 -213v1130h594v-1130h-594zM87 721l-49 -198h64l47 198h-62zM337 0h225v57h-77v228q0 89 -44 129t-109 40q-108 0 -156 -88v79h-150v-57h80v-331h-78v-57h226v57h-78v208q2 51 38.5 90.5t96.5 39.5q45 0 74 -29.5t29 -101.5v-207h-77v-57z" />
    <glyph glyph-name="uni014A" unicode="&#x14a;" horiz-adv-x="733" 
d="M-12 -213v1130h757v-1130h-757zM620 586h81v64h-249v-64h98v-437h-4l-370 501h-140v-64h86v-522h-75v-64h248v64h-103v448h4l350 -477v-53q0 -50 -23 -79t-77 -29q-33 0 -57.5 15t-45.5 55l-53 -40q21 -44 59.5 -71t102.5 -27q79 0 123.5 44t44.5 132v604z" />
    <glyph glyph-name="uni014B" unicode="&#x14b;" horiz-adv-x="570" 
d="M414 -3q0 -72 -19 -105.5t-47 -43.5t-56 -10l1 -51h-305v1130h594v-1130h-242q65 6 104.5 53.5t40.5 153.5v291q0 89 -44 129t-109 40q-108 0 -156 -88v79h-150v-57h80v-331h-78v-57h226v57h-78v210q2 49 38.5 88.5t95.5 39.5q46 0 75 -29.5t29 -101.5v-267z" />
    <glyph glyph-name="uni014C" unicode="&#x14c;" horiz-adv-x="725" 
d="M-12 -213v1130h749v-1130h-749zM232 733h279v57h-279v-57zM688 325q0 139 -90 237t-236 98q-144 0 -234.5 -97.5t-90.5 -237.5q0 -138 88 -236.5t235 -98.5q98 0 172 45.5t115 121.5t41 168zM609 324q0 -113 -65 -190.5t-180 -77.5q-118 0 -183 80t-65 190q0 112 65 190
t181 78q113 0 180 -76.5t67 -193.5z" />
    <glyph glyph-name="uni014D" unicode="&#x14d;" horiz-adv-x="509" 
d="M-12 -213v1130h533v-1130h-533zM132 564h244v57h-244v-57zM255 455q-108 0 -164 -69.5t-56 -166.5q0 -101 57.5 -165t158.5 -64q103 0 163 66t60 167q0 95 -55 163.5t-164 68.5zM253 50q-71 0 -108 50t-37 123q0 74 37.5 123t107.5 49t108.5 -47.5t38.5 -123.5
q0 -75 -38 -124.5t-109 -49.5z" />
    <glyph glyph-name="uni014E" unicode="&#x14e;" horiz-adv-x="725" 
d="M-12 -213v1130h749v-1130h-749zM492 816h-58q0 -69 -64 -69q-31 0 -47.5 14.5t-16.5 54.5h-58q0 -117 122 -117t122 117zM688 325q0 139 -90 237t-236 98q-144 0 -234.5 -97.5t-90.5 -237.5q0 -138 88 -236.5t235 -98.5q98 0 172 45.5t115 121.5t41 168zM609 324
q0 -113 -65 -190.5t-180 -77.5q-118 0 -183 80t-65 190q0 112 65 190t181 78q113 0 180 -76.5t67 -193.5z" />
    <glyph glyph-name="uni014F" unicode="&#x14f;" horiz-adv-x="509" 
d="M-12 -213v1130h533v-1130h-533zM382 655h-59q0 -75 -63 -75q-64 0 -64 75h-59q0 -123 122 -123q123 0 123 123zM255 455q-108 0 -164 -69.5t-56 -166.5q0 -101 57.5 -165t158.5 -64q103 0 163 66t60 167q0 95 -55 163.5t-164 68.5zM253 50q-71 0 -108 50t-37 123
q0 74 37.5 123t107.5 49t108.5 -47.5t38.5 -123.5q0 -75 -38 -124.5t-109 -49.5z" />
    <glyph glyph-name="uni0150" unicode="&#x150;" horiz-adv-x="725" 
d="M-12 -213v1130h749v-1130h-749zM292 703l157 128l-49 51l-134 -153zM402 703l198 42l-18 68l-190 -73zM688 325q0 139 -90 237t-236 98q-144 0 -234.5 -97.5t-90.5 -237.5q0 -138 88 -236.5t235 -98.5q98 0 172 45.5t115 121.5t41 168zM609 324q0 -113 -65 -190.5
t-180 -77.5q-118 0 -183 80t-65 190q0 112 65 190t181 78q113 0 180 -76.5t67 -193.5z" />
    <glyph glyph-name="uni0151" unicode="&#x151;" horiz-adv-x="509" 
d="M-12 -213v1130h533v-1130h-533zM184 519l126 159l-57 40l-100 -177zM293 520l173 104l-40 59l-154 -132zM255 455q-108 0 -164 -69.5t-56 -166.5q0 -101 57.5 -165t158.5 -64q103 0 163 66t60 167q0 95 -55 163.5t-164 68.5zM253 50q-71 0 -108 50t-37 123q0 74 37.5 123
t107.5 49t108.5 -47.5t38.5 -123.5q0 -75 -38 -124.5t-109 -49.5z" />
    <glyph glyph-name="uni0152" unicode="&#x152;" horiz-adv-x="994" 
d="M-12 917h1018v-1130h-1018v1130zM935 0l20 184l-65 7l-20 -127h-266v234h306v64h-306v224h257l20 -127l65 7l-20 184h-395v-39q-35 23 -77 36t-91 13q-95 0 -168.5 -45t-115.5 -121t-42 -169q0 -92 41 -168t114.5 -121.5t170.5 -45.5q50 0 91.5 13t76.5 35v-38h404z
M531 116q-60 -60 -164 -60q-121 0 -186.5 81.5t-65.5 189.5q0 111 67.5 189t183.5 78q97 0 165 -60v-418z" />
    <glyph glyph-name="oe" unicode="&#x153;" horiz-adv-x="830" 
d="M-12 -213v1130h854v-1130h-854zM255 455q-108 0 -164 -69.5t-56 -166.5q0 -101 57.5 -165t158.5 -64q122 0 183 94q52 -94 176 -94q82 0 130 40.5t57 97.5l-59 13q-10 -41 -40 -66t-82 -25q-65 0 -103 40t-39 116h313q6 27 6 53q-1 79 -49 137t-140 58q-113 0 -167 -96
q-26 44 -71.5 70.5t-110.5 26.5zM719 258h-244q7 56 36.5 97t90.5 41q65 0 93.5 -44t23.5 -94zM253 50q-71 0 -108 50t-37 123q0 74 37.5 123t107.5 49q69 0 107 -46.5t40 -121.5q0 -77 -38 -127t-109 -50z" />
    <glyph glyph-name="uni0154" unicode="&#x154;" horiz-adv-x="613" 
d="M-12 -213v1130h637v-1130h-637zM245 703l197 42l-17 68l-191 -73zM475 0h130v64h-82l-116 222q69 18 104 67.5t35 112.5q0 79 -52 131.5t-173 52.5h-281v-64h82v-522h-82v-64h243v64h-87v208h139zM469 463q0 -61 -36 -95.5t-119 -34.5h-118v253h116q83 0 120 -29.5
t37 -93.5z" />
    <glyph glyph-name="uni0155" unicode="&#x155;" horiz-adv-x="416" 
d="M-12 -213v1130h440v-1130h-440zM232 520l172 104l-40 59l-154 -132zM282 453q-38 0 -67.5 -25.5t-42.5 -62.5v80h-146v-57h80v-331h-78v-57h251v57h-103v219q0 52 26 84.5t65 32.5q17 0 34 -6l17 -76l57 7l-17 112q-28 23 -76 23z" />
    <glyph glyph-name="uni0156" unicode="&#x156;" horiz-adv-x="613" 
d="M-12 -213v1130h637v-1130h-268l18 154h-67l-8 -154h-312zM475 0h130v64h-82l-116 222q69 18 104 67.5t35 112.5q0 79 -52 131.5t-173 52.5h-281v-64h82v-522h-82v-64h243v64h-87v208h139zM469 463q0 -61 -36 -95.5t-119 -34.5h-118v253h116q83 0 120 -29.5t37 -93.5z" />
    <glyph glyph-name="uni0157" unicode="&#x157;" horiz-adv-x="416" 
d="M-12 -213v1130h440v-1130h-272l18 154h-67l-8 -154h-111zM282 453q-38 0 -67.5 -25.5t-42.5 -62.5v80h-146v-57h80v-331h-78v-57h251v57h-103v219q0 52 26 84.5t65 32.5q17 0 34 -6l17 -76l57 7l-17 112q-28 23 -76 23z" />
    <glyph glyph-name="uni0158" unicode="&#x158;" horiz-adv-x="613" 
d="M-12 -213v1130h637v-1130h-637zM308 701l126 91l-19 35l-115 -64l-120 61l-20 -34l126 -89h22zM475 0h130v64h-82l-116 222q69 18 104 67.5t35 112.5q0 79 -52 131.5t-173 52.5h-281v-64h82v-522h-82v-64h243v64h-87v208h139zM469 463q0 -61 -36 -95.5t-119 -34.5h-118
v253h116q83 0 120 -29.5t37 -93.5z" />
    <glyph glyph-name="uni0159" unicode="&#x159;" horiz-adv-x="416" 
d="M-12 -213v1130h440v-1130h-440zM253 519l121 119l-26 33l-102 -85l-110 84l-26 -34l121 -117h22zM282 453q-38 0 -67.5 -25.5t-42.5 -62.5v80h-146v-57h80v-331h-78v-57h251v57h-103v219q0 52 26 84.5t65 32.5q17 0 34 -6l17 -76l57 7l-17 112q-28 23 -76 23z" />
    <glyph glyph-name="uni015A" unicode="&#x15a;" horiz-adv-x="529" 
d="M-12 -213v1130h553v-1130h-553zM212 703l197 42l-17 68l-191 -73zM488 182q0 74 -35.5 111.5t-85 53t-93.5 25.5q-55 13 -100 34t-45 82q0 52 37.5 79.5t98.5 27.5q29 0 61 -5.5t63 -21.5l10 -97l60 6l-6 129q-31 24 -86 39t-109 15q-84 0 -145.5 -44t-61.5 -136
q0 -64 30 -97.5t75 -49t91 -25.5q60 -14 111 -36.5t51 -96.5q0 -66 -46.5 -93.5t-110.5 -27.5q-36 0 -69 6t-66 23l4 82l-60 6l-14 -128q73 -53 209 -53q99 0 165.5 49t66.5 143z" />
    <glyph glyph-name="uni015B" unicode="&#x15b;" horiz-adv-x="433" 
d="M-12 -213v1130h457v-1130h-457zM191 520l172 104l-40 59l-154 -132zM397 129q0 53 -28 78.5t-69 35.5t-82 16.5t-69 21t-28 49.5q0 34 27 50t69 16q49 0 91 -22l11 -72l58 7l-11 104q-28 17 -68.5 29t-86.5 12q-61 0 -113 -29t-52 -100q0 -52 28 -76.5t70 -34.5t83.5 -17
t69.5 -22t28 -52q0 -38 -36.5 -56.5t-83.5 -18.5q-53 0 -99 22l3 59l-56 6l-14 -101q29 -19 75.5 -31.5t93.5 -12.5q80 0 134.5 37t54.5 102z" />
    <glyph glyph-name="uni015C" unicode="&#x15c;" horiz-adv-x="529" 
d="M-12 -213v1130h553v-1130h-553zM387 702l19 35l-126 90h-21l-127 -93l19 -33l116 63zM488 182q0 74 -35.5 111.5t-85 53t-93.5 25.5q-55 13 -100 34t-45 82q0 52 37.5 79.5t98.5 27.5q29 0 61 -5.5t63 -21.5l10 -97l60 6l-6 129q-31 24 -86 39t-109 15q-84 0 -145.5 -44
t-61.5 -136q0 -64 30 -97.5t75 -49t91 -25.5q60 -14 111 -36.5t51 -96.5q0 -66 -46.5 -93.5t-110.5 -27.5q-36 0 -69 6t-66 23l4 82l-60 6l-14 -128q73 -53 209 -53q99 0 165.5 49t66.5 143z" />
    <glyph glyph-name="uni015D" unicode="&#x15d;" horiz-adv-x="433" 
d="M-12 -213v1130h457v-1130h-457zM327 519l27 34l-121 118h-22l-121 -120l25 -32l101 84zM397 129q0 53 -28 78.5t-69 35.5t-82 16.5t-69 21t-28 49.5q0 34 27 50t69 16q49 0 91 -22l11 -72l58 7l-11 104q-28 17 -68.5 29t-86.5 12q-61 0 -113 -29t-52 -100q0 -52 28 -76.5
t70 -34.5t83.5 -17t69.5 -22t28 -52q0 -38 -36.5 -56.5t-83.5 -18.5q-53 0 -99 22l3 59l-56 6l-14 -101q29 -19 75.5 -31.5t93.5 -12.5q80 0 134.5 37t54.5 102z" />
    <glyph glyph-name="uni015E" unicode="&#x15e;" horiz-adv-x="529" 
d="M-12 -213v1130h553v-1130h-553zM387 -125q0 33 -21.5 55.5t-67.5 22.5h-8v39q86 8 142 56t56 134q0 74 -35.5 111.5t-85 53t-93.5 25.5q-55 13 -100 34t-45 82q0 52 37.5 79.5t98.5 27.5q29 0 61 -5.5t63 -21.5l10 -97l60 6l-6 129q-31 24 -86 39t-109 15
q-84 0 -145.5 -44t-61.5 -136q0 -64 30 -97.5t75 -49t91 -25.5q60 -14 111 -36.5t51 -96.5q0 -66 -46.5 -93.5t-110.5 -27.5q-36 0 -69 6t-66 23l4 82l-60 6l-14 -128q66 -48 191 -53v-70h30q24 0 41 -7.5t17 -32.5q0 -41 -51 -41q-46 0 -74 23l-18 -41q36 -30 96 -30
q43 0 75.5 19.5t32.5 64.5z" />
    <glyph glyph-name="uni015F" unicode="&#x15f;" horiz-adv-x="433" 
d="M-12 -213v1130h457v-1130h-457zM336 -128q0 33 -21 55.5t-68 22.5h-8v42q68 6 113 42t45 95q0 53 -28 78.5t-69 35.5t-82 16.5t-69 21t-28 49.5q0 34 27 50t69 16q49 0 91 -22l11 -72l58 7l-11 104q-28 17 -68.5 29t-86.5 12q-61 0 -113 -29t-52 -100q0 -52 28 -76.5
t70 -34.5t83.5 -17t69.5 -22t28 -52q0 -38 -36.5 -56.5t-83.5 -18.5q-53 0 -99 22l3 59l-56 6l-14 -101q25 -16 65 -28.5t83 -14.5v-75h30q24 0 41 -7t17 -33q0 -40 -51 -40q-46 0 -74 23l-18 -41q34 -30 97 -30q43 0 75 19.5t32 64.5z" />
    <glyph glyph-name="uni0160" unicode="&#x160;" horiz-adv-x="529" 
d="M-12 -213v1130h553v-1130h-553zM269 701l126 91l-19 35l-115 -64l-120 61l-20 -34l126 -89h22zM488 182q0 74 -35.5 111.5t-85 53t-93.5 25.5q-55 13 -100 34t-45 82q0 52 37.5 79.5t98.5 27.5q29 0 61 -5.5t63 -21.5l10 -97l60 6l-6 129q-31 24 -86 39t-109 15
q-84 0 -145.5 -44t-61.5 -136q0 -64 30 -97.5t75 -49t91 -25.5q60 -14 111 -36.5t51 -96.5q0 -66 -46.5 -93.5t-110.5 -27.5q-36 0 -69 6t-66 23l4 82l-60 6l-14 -128q73 -53 209 -53q99 0 165.5 49t66.5 143z" />
    <glyph glyph-name="uni0161" unicode="&#x161;" horiz-adv-x="433" 
d="M-12 -213v1130h457v-1130h-457zM228 519l121 119l-26 33l-102 -85l-110 84l-26 -34l121 -117h22zM397 129q0 53 -28 78.5t-69 35.5t-82 16.5t-69 21t-28 49.5q0 34 27 50t69 16q49 0 91 -22l11 -72l58 7l-11 104q-28 17 -68.5 29t-86.5 12q-61 0 -113 -29t-52 -100
q0 -52 28 -76.5t70 -34.5t83.5 -17t69.5 -22t28 -52q0 -38 -36.5 -56.5t-83.5 -18.5q-53 0 -99 22l3 59l-56 6l-14 -101q29 -19 75.5 -31.5t93.5 -12.5q80 0 134.5 37t54.5 102z" />
    <glyph glyph-name="uni0162" unicode="&#x162;" horiz-adv-x="568" 
d="M-12 -213v1130h592v-1130h-278l18 154h-67l-8 -154h-257zM485 447l65 5l-20 198h-492l-19 -198l64 -5l20 139h144v-522h-112v-64h300v64h-115v522h145z" />
    <glyph glyph-name="uni0163" unicode="&#x163;" horiz-adv-x="367" 
d="M-12 -213v1130h391v-1130h-134l18 154h-67l-8 -154h-200zM353 120l-54 17q-10 -54 -28.5 -70t-43.5 -16q-41 0 -56.5 24.5t-15.5 64.5v249h174v56h-174v143h-70v-143h-72v-56h72v-258q0 -65 33.5 -103t100.5 -38q114 0 134 130z" />
    <glyph glyph-name="uni0164" unicode="&#x164;" horiz-adv-x="568" 
d="M-12 -213v1130h592v-1130h-592zM294 701l126 91l-19 35l-115 -64l-120 61l-20 -34l126 -89h22zM485 447l65 5l-20 198h-492l-19 -198l64 -5l20 139h144v-522h-112v-64h300v64h-115v522h145z" />
    <glyph glyph-name="uni0165" unicode="&#x165;" horiz-adv-x="367" 
d="M-12 -213v1130h391v-1130h-391zM302 537l22 224h-66l-13 -224h57zM353 120l-54 17q-10 -54 -28.5 -70t-43.5 -16q-41 0 -56.5 24.5t-15.5 64.5v249h174v56h-174v143h-70v-143h-72v-56h72v-258q0 -65 33.5 -103t100.5 -38q114 0 134 130z" />
    <glyph glyph-name="uni0166" unicode="&#x166;" horiz-adv-x="568" 
d="M-12 -213v1130h592v-1130h-592zM485 447l65 5l-20 198h-492l-19 -198l64 -5l20 139h144v-261h-150v-52h150v-209h-112v-64h300v64h-115v209h152v52h-152v261h145z" />
    <glyph glyph-name="uni0167" unicode="&#x167;" horiz-adv-x="367" 
d="M-12 -213v1130h391v-1130h-391zM363 120l-54 17q-10 -54 -31.5 -70t-47.5 -16q-40 0 -57.5 24.5t-17.5 64.5v90h163v53h-163v106h174v56h-174v143h-70v-143h-72v-56h72v-106h-66v-53h66v-99q0 -65 35 -103t102 -38q121 0 141 130z" />
    <glyph glyph-name="uni0168" unicode="&#x168;" horiz-adv-x="714" 
d="M-12 -213v1130h738v-1130h-738zM508 798l-36 9q-8 -28 -21 -35t-26 -7q-36 0 -61 17.5t-58 17.5q-38 0 -58 -28t-24 -54l33 -13q7 24 21.5 31.5t28.5 7.5q29 0 57 -17.5t66 -17.5q36 0 53 24.5t25 64.5zM615 586h63v64h-225v-64h93v-319q0 -211 -187 -211q-94 0 -139 53
t-45 149v328h90v64h-231v-64h67v-330q0 -105 54.5 -185.5t199.5 -80.5q100 0 156.5 40.5t80 104t23.5 132.5v319z" />
    <glyph glyph-name="utilde" unicode="&#x169;" horiz-adv-x="558" 
d="M-12 -213v1130h582v-1130h-582zM413 646l-36 9q-8 -27 -20.5 -35t-26.5 -8q-36 0 -61 18.5t-59 18.5q-38 0 -57.5 -31t-23.5 -57l33 -12q8 24 22.5 33.5t28.5 9.5q28 0 56 -19.5t67 -19.5q34 0 52 26.5t25 66.5zM394 0h150v57h-80v388h-163v-57h93v-204q-2 -48 -38.5 -91
t-93.5 -43q-47 0 -77 29t-30 101v265h-148v-57h78v-228q0 -89 44.5 -129.5t109.5 -40.5q53 0 93.5 26t61.5 68v-84z" />
    <glyph glyph-name="uni016A" unicode="&#x16a;" horiz-adv-x="714" 
d="M-12 -213v1130h738v-1130h-738zM223 733h279v57h-279v-57zM615 586h63v64h-225v-64h93v-319q0 -211 -187 -211q-94 0 -139 53t-45 149v328h90v64h-231v-64h67v-330q0 -105 54.5 -185.5t199.5 -80.5q100 0 156.5 40.5t80 104t23.5 132.5v319z" />
    <glyph glyph-name="uni016B" unicode="&#x16b;" horiz-adv-x="558" 
d="M-12 -213v1130h582v-1130h-582zM145 564h244v57h-244v-57zM394 0h150v57h-80v388h-163v-57h93v-204q-2 -48 -38.5 -91t-93.5 -43q-47 0 -77 29t-30 101v265h-148v-57h78v-228q0 -89 44.5 -129.5t109.5 -40.5q53 0 93.5 26t61.5 68v-84z" />
    <glyph glyph-name="uni016C" unicode="&#x16c;" horiz-adv-x="714" 
d="M-12 -213v1130h738v-1130h-738zM481 816h-58q0 -69 -64 -69q-31 0 -47.5 14.5t-16.5 54.5h-58q0 -117 122 -117t122 117zM615 586h63v64h-225v-64h93v-319q0 -211 -187 -211q-94 0 -139 53t-45 149v328h90v64h-231v-64h67v-330q0 -105 54.5 -185.5t199.5 -80.5
q100 0 156.5 40.5t80 104t23.5 132.5v319z" />
    <glyph glyph-name="uni016D" unicode="&#x16d;" horiz-adv-x="558" 
d="M-12 -213v1130h582v-1130h-582zM385 655h-59q0 -75 -63 -75q-64 0 -64 75h-59q0 -123 122 -123q123 0 123 123zM394 0h150v57h-80v388h-163v-57h93v-204q-2 -48 -38.5 -91t-93.5 -43q-47 0 -77 29t-30 101v265h-148v-57h78v-228q0 -89 44.5 -129.5t109.5 -40.5
q53 0 93.5 26t61.5 68v-84z" />
    <glyph glyph-name="uni016E" unicode="&#x16e;" horiz-adv-x="714" 
d="M-12 -213v1130h738v-1130h-738zM460 784q0 39 -23.5 64.5t-74.5 25.5q-47 0 -73 -25.5t-26 -66.5q0 -92 98 -92q49 0 74 26.5t25 67.5zM411 784q0 -54 -50 -54q-49 0 -49 52t49 52q28 0 39 -15t11 -35zM615 586h63v64h-225v-64h93v-319q0 -211 -187 -211q-94 0 -139 53
t-45 149v328h90v64h-231v-64h67v-330q0 -105 54.5 -185.5t199.5 -80.5q100 0 156.5 40.5t80 104t23.5 132.5v319z" />
    <glyph glyph-name="uni016F" unicode="&#x16f;" horiz-adv-x="558" 
d="M-12 -213v1130h582v-1130h-582zM361 607q0 40 -23.5 65.5t-74.5 25.5q-47 0 -73 -26t-26 -66q0 -92 98 -92q50 0 74.5 26t24.5 67zM312 608q0 -22 -12 -38t-38 -16q-49 0 -49 52q0 22 11.5 37t37.5 15q28 0 39 -15t11 -35zM394 0h150v57h-80v388h-163v-57h93v-204
q-2 -48 -38.5 -91t-93.5 -43q-47 0 -77 29t-30 101v265h-148v-57h78v-228q0 -89 44.5 -129.5t109.5 -40.5q53 0 93.5 26t61.5 68v-84z" />
    <glyph glyph-name="uni0170" unicode="&#x170;" horiz-adv-x="714" 
d="M-12 -213v1130h738v-1130h-738zM268 703l157 128l-49 51l-134 -153zM378 703l198 42l-18 68l-190 -73zM615 586h63v64h-225v-64h93v-319q0 -211 -187 -211q-94 0 -139 53t-45 149v328h90v64h-231v-64h67v-330q0 -105 54.5 -185.5t199.5 -80.5q100 0 156.5 40.5t80 104
t23.5 132.5v319z" />
    <glyph glyph-name="uni0171" unicode="&#x171;" horiz-adv-x="558" 
d="M-12 -213v1130h582v-1130h-582zM186 519l126 159l-57 40l-100 -177zM295 520l173 104l-40 59l-154 -132zM394 0h150v57h-80v388h-163v-57h93v-204q-2 -48 -38.5 -91t-93.5 -43q-47 0 -77 29t-30 101v265h-148v-57h78v-228q0 -89 44.5 -129.5t109.5 -40.5q53 0 93.5 26
t61.5 68v-84z" />
    <glyph glyph-name="uni0172" unicode="&#x172;" horiz-adv-x="714" 
d="M-12 -213v1130h738v-1130h-738zM615 586h63v64h-225v-64h93v-319q0 -211 -187 -211q-94 0 -139 53t-45 149v328h90v64h-231v-64h67v-330q0 -105 54 -185t199 -81q-26 -19 -42 -46.5t-16 -61.5q0 -43 29 -68.5t75 -25.5q42 0 79 20l-9 49q-23 -15 -54 -15q-58 0 -58 59
q0 24 12 48.5t44 45.5q115 19 158 99t43 173v319z" />
    <glyph glyph-name="uni0173" unicode="&#x173;" horiz-adv-x="558" 
d="M-12 -213v1130h582v-1130h-582zM394 0h47q-31 -19 -51.5 -51t-20.5 -70q0 -43 28.5 -67t75.5 -24q42 0 79 20l-9 49q-23 -15 -54 -15q-58 0 -58 56q0 25 14 52.5t51 49.5h48v57h-80v388h-163v-57h93v-204q-2 -48 -38.5 -91t-93.5 -43q-47 0 -77 29t-30 101v265h-148v-57
h78v-228q0 -89 44.5 -129.5t109.5 -40.5q53 0 93.5 26t61.5 68v-84z" />
    <glyph glyph-name="uni0174" unicode="&#x174;" horiz-adv-x="887" 
d="M224 586v64h-236v267h911v-267h-234v-64h95l-107 -470h-4l-151 470h65v64h-225v-64h66l-150 -467h-5l-116 467h91zM573 702l19 35l-126 90h-21l-127 -93l19 -33l116 63zM899 -213h-911v799h67l165 -586h60l165 520h5l170 -520h59l154 586h66v-799z" />
    <glyph glyph-name="wcircumflex" unicode="&#x175;" horiz-adv-x="762" 
d="M-12 -213v1130h786v-1130h-786zM492 519l27 34l-121 118h-22l-121 -120l25 -32l101 84zM693 388h61v57h-200v-57h71l-72 -281h-5l-139 338h-47l-132 -338h-5l-83 281h75v57h-210v-57h59l126 -388h52l133 340h5l136 -340h54z" />
    <glyph glyph-name="uni0176" unicode="&#x176;" horiz-adv-x="570" 
d="M232 586v64h-244v267h594v-267h-240v-64h89l-138 -270h-5l-145 270h89zM412 702l19 35l-126 90h-21l-127 -93l19 -33l116 63zM582 -213h-594v799h72l190 -337v-185h-111v-64h299v64h-115v184l182 338h77v-799z" />
    <glyph glyph-name="ycircumflex" unicode="&#x177;" horiz-adv-x="507" 
d="M-12 -213v1130h531v-1130h-213v57h-76l60 156l157 388h53v57h-196v-57h72l-111 -299h-6l-125 299h78v57h-206v-57h53l162 -387l-58 -157h-83v-57h-92zM368 519l27 34l-121 118h-22l-121 -120l25 -32l101 84z" />
    <glyph glyph-name="uni0178" unicode="&#x178;" horiz-adv-x="570" 
d="M232 586v64h-244v267h594v-267h-240v-64h89l-138 -270h-5l-145 270h89zM165 803v-85h81v85h-81zM337 803v-85h80v85h-80zM582 -213h-594v799h72l190 -337v-185h-111v-64h299v64h-115v184l182 338h77v-799z" />
    <glyph glyph-name="uni0179" unicode="&#x179;" horiz-adv-x="574" 
d="M-12 -213v1130h598v-1130h-598zM235 703l197 42l-17 68l-191 -73zM32 0h480l26 193l-63 9l-28 -138h-314v3l386 543l-2 40h-448l-25 -188l62 -9l28 133h280v-3l-384 -539z" />
    <glyph glyph-name="zacute" unicode="&#x17a;" horiz-adv-x="461" 
d="M-12 -213v1130h485v-1130h-485zM201 520l172 104l-40 59l-154 -132zM37 0h374l24 138l-57 9l-23 -90h-229l282 346l-3 42h-358l-12 -139l56 -7l13 89h210l-280 -345z" />
    <glyph glyph-name="uni017B" unicode="&#x17b;" horiz-adv-x="574" 
d="M-12 -213v1130h598v-1130h-598zM254 803v-85h81v85h-81zM32 0h480l26 193l-63 9l-28 -138h-314v3l386 543l-2 40h-448l-25 -188l62 -9l28 133h280v-3l-384 -539z" />
    <glyph glyph-name="zdotaccent" unicode="&#x17c;" horiz-adv-x="461" 
d="M-12 -213v1130h485v-1130h-485zM197 644v-91h77v91h-77zM37 0h374l24 138l-57 9l-23 -90h-229l282 346l-3 42h-358l-12 -139l56 -7l13 89h210l-280 -345z" />
    <glyph glyph-name="uni017D" unicode="&#x17d;" horiz-adv-x="574" 
d="M-12 -213v1130h598v-1130h-598zM302 701l126 91l-19 35l-115 -64l-120 61l-20 -34l126 -89h22zM32 0h480l26 193l-63 9l-28 -138h-314v3l386 543l-2 40h-448l-25 -188l62 -9l28 133h280v-3l-384 -539z" />
    <glyph glyph-name="zcaron" unicode="&#x17e;" horiz-adv-x="461" 
d="M-12 -213v1130h485v-1130h-485zM247 519l121 119l-26 33l-102 -85l-110 84l-26 -34l121 -117h22zM37 0h374l24 138l-57 9l-23 -90h-229l282 346l-3 42h-358l-12 -139l56 -7l13 89h210l-280 -345z" />
    <glyph glyph-name="uni018F" unicode="&#x18f;" horiz-adv-x="681" 
d="M-12 917h705v-1130h-705v1130zM120 435l13 106q84 53 198 53q107 0 165 -67.5t66 -180.5h-520v-64q0 -135 78.5 -213.5t211.5 -78.5q156 0 232.5 99.5t76.5 233.5q0 141 -77.5 239t-228.5 98q-83 0 -150 -23t-115 -59l-9 -136zM563 288q-6 -94 -58.5 -163t-169.5 -69
q-119 0 -166.5 69t-47.5 157v6h442z" />
    <glyph glyph-name="florin" unicode="&#x192;" horiz-adv-x="382" 
d="M-12 917h406v-1130h-406v1130zM51 226h78l-11 -197q-3 -53 -14.5 -72t-43.5 -19q-9 0 -20.5 0.5t-23.5 3.5v-50q29 -4 44 -4q77 0 100.5 40.5t26.5 89.5l11 208h120v46h-118l7 107q4 58 26.5 79t66.5 21q14 0 30 -2t35 -4v52q-16 2 -35 3t-31 1q-152 0 -161 -148l-7 -109
h-80v-46z" />
    <glyph glyph-name="uni01C4" unicode="&#x1c4;" horiz-adv-x="1278" 
d="M-12 -213v1130h1302v-1130h-1302zM1006 701l126 91l-20 35l-114 -64l-120 61l-20 -34l125 -89h23zM663 326q0 141 -86.5 232.5t-245.5 91.5h-291v-63h82v-524h-82v-63h294q154 0 241.5 91.5t87.5 234.5zM737 0h479l26 193l-63 9l-28 -138h-314v3l386 543l-1 40h-448
l-26 -188l62 -9l28 133h280v-3l-384 -539zM585 325q0 -121 -65.5 -191.5t-189.5 -70.5h-135v524h135q124 0 189.5 -72t65.5 -190z" />
    <glyph glyph-name="uni01C5" unicode="&#x1c5;" horiz-adv-x="1165" 
d="M-12 -213v1130h1189v-1130h-1189zM952 519l121 119l-26 33l-101 -85l-111 84l-26 -34l121 -117h22zM663 326q0 141 -86.5 232.5t-245.5 91.5h-291v-63h82v-524h-82v-63h294q154 0 241.5 91.5t87.5 234.5zM585 325q0 -121 -65.5 -191.5t-189.5 -70.5h-135v524h135
q124 0 189.5 -72t65.5 -190zM741 0h375l23 138l-56 9l-24 -90h-228l281 346l-3 42h-358l-12 -139l56 -7l13 89h211l-281 -345z" />
    <glyph glyph-name="uni01C6" unicode="&#x1c6;" horiz-adv-x="1010" 
d="M-12 -213v1130h1034v-1130h-1034zM386 0h147v57h-77v631h-178v-57h108v-258q-45 81 -149 81q-109 0 -155 -77t-46 -166q0 -104 52.5 -162.5t138.5 -58.5q61 0 99 30t60 70v-90zM797 519l121 119l-25 33l-102 -85l-111 84l-26 -34l121 -117h22zM587 0h374l23 138l-56 9
l-23 -90h-229l281 346l-3 42h-358l-12 -139l56 -7l13 89h211l-281 -345zM386 268v-71q-2 -50 -41.5 -98.5t-99.5 -48.5q-58 0 -96.5 42t-38.5 124q0 70 34.5 124t108.5 54q53 0 92 -35t41 -91z" />
    <glyph glyph-name="uni01C7" unicode="&#x1c7;" horiz-adv-x="996" 
d="M-12 -213v1130h1020v-1130h-1020zM40 0h469l20 208l-65 5l-20 -149h-249v522h109v64h-264v-64h82v-522h-82v-64zM888 586h72v64h-274v-64h129v-420q0 -49 -23.5 -78t-76.5 -29q-33 0 -58 14.5t-45 55.5l-53 -40q21 -44 59.5 -71.5t102.5 -27.5q79 0 123 44t44 132v420z
" />
    <glyph glyph-name="uni01C8" unicode="&#x1c8;" horiz-adv-x="774" 
d="M-12 -213v1130h798v-1130h-244q70 2 115 48t45 161v449h-169v-57h99v-392q0 -72 -18 -104.5t-45 -41t-54 -8.5v-55h-527zM626 651v-91h76v91h-76zM40 0h469l20 208l-65 5l-20 -149h-249v522h109v64h-264v-64h82v-522h-82v-64z" />
    <glyph glyph-name="uni01C9" unicode="&#x1c9;" horiz-adv-x="513" 
d="M-12 -213v1130h537v-1130h-244q70 2 115 48t45 161v449h-170v-57h100v-392q0 -72 -18 -104.5t-44.5 -41t-54.5 -8.5v-55h-266zM18 0h226v57h-78v631h-149v-57h79v-574h-78v-57zM365 651v-91h76v91h-76z" />
    <glyph glyph-name="uni01CA" unicode="&#x1ca;" horiz-adv-x="1180" 
d="M-12 -213v1130h1204v-1130h-1204zM620 586h81v64h-249v-64h98v-437h-4l-370 501h-140v-64h86v-522h-75v-64h248v64h-103v448h4l377 -512h47v586zM1072 586h72v64h-274v-64h129v-420q0 -49 -23.5 -78t-76.5 -29q-33 0 -57.5 14.5t-45.5 55.5l-53 -40q21 -44 60 -71.5
t103 -27.5q78 0 122 44t44 132v420z" />
    <glyph glyph-name="uni01CB" unicode="&#x1cb;" horiz-adv-x="969" 
d="M-12 -213v1130h993v-1130h-244q71 2 115.5 48t44.5 161v449h-169v-57h99v-392q0 -72 -18 -104.5t-44.5 -41t-54.5 -8.5v-55h-722zM821 651v-91h76v91h-76zM620 586h81v64h-249v-64h98v-437h-4l-370 501h-140v-64h86v-522h-75v-64h248v64h-103v448h4l377 -512h47v586z" />
    <glyph glyph-name="uni01CC" unicode="&#x1cc;" horiz-adv-x="819" 
d="M-12 917h843v-1130h-244q71 2 115.5 48t44.5 161v449h-169v-57h99v-392q0 -72 -18 -104.5t-44.5 -41t-54.5 -8.5v-55h-572v1130zM671 560h76v91h-76v-91zM562 0v57h-77v228q0 89 -44 129t-109 40q-108 0 -156 -88v79h-150v-57h80v-331h-78v-57h226v57h-78v208
q2 51 38.5 90.5t96.5 39.5q45 0 74 -29.5t29 -101.5v-207h-77v-57h225z" />
    <glyph glyph-name="uni01D3" unicode="&#x1d3;" horiz-adv-x="714" 
d="M-12 -213v1130h738v-1130h-738zM370 701l126 91l-19 35l-115 -64l-120 61l-20 -34l126 -89h22zM615 586h63v64h-225v-64h93v-319q0 -211 -187 -211q-94 0 -139 53t-45 149v328h90v64h-231v-64h67v-330q0 -105 54.5 -185.5t199.5 -80.5q100 0 156.5 40.5t80 104
t23.5 132.5v319z" />
    <glyph glyph-name="uni01D4" unicode="&#x1d4;" horiz-adv-x="558" 
d="M-12 -213v1130h582v-1130h-582zM277 520l121 119l-26 33l-102 -85l-110 84l-26 -34l121 -117h22zM394 0h150v57h-80v388h-163v-57h93v-204q-2 -48 -38.5 -91t-93.5 -43q-47 0 -77 29t-30 101v265h-148v-57h78v-228q0 -89 44.5 -129.5t109.5 -40.5q53 0 93.5 26t61.5 68
v-84z" />
    <glyph glyph-name="uni01E2" unicode="&#x1e2;" horiz-adv-x="912" 
d="M312 586l-258 -522h-66v853h936v-1130h-936v213h229v64h-90l62 125h259v-125h-81v-64h483l19 184l-64 7l-20 -127h-263v234h306v64h-306v224h254l20 -127l64 8l-19 183h-626v-64h97zM514 733h279v57h-279v-57zM448 586v-340h-232l166 340h66z" />
    <glyph glyph-name="uni01E3" unicode="&#x1e3;" horiz-adv-x="755" 
d="M-12 -213v1130h779v-1130h-779zM258 564h244v57h-244v-57zM722 128l-59 13q-11 -41 -40 -65.5t-82 -24.5q-135 0 -141 155h312q6 27 6 53q0 79 -48.5 137t-140.5 58q-94 0 -152 -72q-34 72 -132 72q-101 0 -165 -43l-17 -103l58 -7l18 77q37 18 90 18q57 0 77 -31t20 -77
v-40q-18 2 -38.5 3t-39.5 1q-76 0 -143.5 -26.5t-67.5 -110.5q0 -71 46.5 -98t93.5 -27q68 0 110 34t65 71q51 -105 183 -105q83 0 130.5 40.5t56.5 97.5zM644 257h-243q6 57 35.5 97.5t90.5 40.5q66 0 94 -44.5t23 -93.5zM112 123q0 52 41 67.5t92 15.5q20 0 41 -2t40 -3
v-33q-3 -56 -43.5 -88t-87.5 -32q-29 0 -56 16t-27 59z" />
    <glyph glyph-name="uni01F1" unicode="&#x1f1;" horiz-adv-x="1275" 
d="M-12 -213v1130h1299v-1130h-1299zM663 326q0 141 -86.5 232.5t-245.5 91.5h-291v-63h82v-524h-82v-63h294q154 0 241.5 91.5t87.5 234.5zM733 0h480l26 193l-64 9l-27 -138h-314v3l385 543l-1 40h-448l-25 -188l61 -9l28 133h281v-3l-384 -539zM585 325
q0 -121 -65.5 -191.5t-189.5 -70.5h-135v524h135q124 0 189.5 -72t65.5 -190z" />
    <glyph glyph-name="uni01F2" unicode="&#x1f2;" horiz-adv-x="1165" 
d="M-12 -213v1130h1189v-1130h-1189zM663 326q0 141 -86.5 232.5t-245.5 91.5h-291v-63h82v-524h-82v-63h294q154 0 241.5 91.5t87.5 234.5zM585 325q0 -121 -65.5 -191.5t-189.5 -70.5h-135v524h135q124 0 189.5 -72t65.5 -190zM741 0h375l23 138l-56 9l-24 -90h-228
l281 346l-3 42h-358l-12 -139l56 -7l13 89h211l-281 -345z" />
    <glyph glyph-name="uni01F3" unicode="&#x1f3;" horiz-adv-x="1010" 
d="M-12 -213v1130h1034v-1130h-1034zM386 0h147v57h-77v631h-178v-57h108v-258q-45 81 -149 81q-109 0 -155 -77t-46 -166q0 -104 52.5 -162.5t138.5 -58.5q61 0 99 30t60 70v-90zM587 0h374l23 138l-56 9l-23 -90h-229l281 346l-3 42h-358l-12 -139l56 -7l13 89h211
l-281 -345zM386 268v-71q-2 -50 -41.5 -98.5t-99.5 -48.5q-58 0 -96.5 42t-38.5 124q0 70 34.5 124t108.5 54q53 0 92 -35t41 -91z" />
    <glyph glyph-name="uni01FC" unicode="&#x1fc;" horiz-adv-x="912" 
d="M312 586l-258 -522h-66v853h936v-1130h-936v213h229v64h-90l62 125h259v-125h-81v-64h483l19 184l-64 7l-20 -127h-263v234h306v64h-306v224h254l20 -127l64 8l-19 183h-626v-64h97zM602 703l197 42l-17 68l-191 -73zM448 586v-340h-232l166 340h66z" />
    <glyph glyph-name="uni01FD" unicode="&#x1fd;" horiz-adv-x="755" 
d="M-12 -213v1130h779v-1130h-779zM387 520l172 104l-40 59l-154 -132zM722 128l-59 13q-11 -41 -40 -65.5t-82 -24.5q-135 0 -141 155h312q6 27 6 53q0 79 -48.5 137t-140.5 58q-94 0 -152 -72q-34 72 -132 72q-101 0 -165 -43l-17 -103l58 -7l18 77q37 18 90 18
q57 0 77 -31t20 -77v-40q-18 2 -38.5 3t-39.5 1q-76 0 -143.5 -26.5t-67.5 -110.5q0 -71 46.5 -98t93.5 -27q68 0 110 34t65 71q51 -105 183 -105q83 0 130.5 40.5t56.5 97.5zM644 257h-243q6 57 35.5 97.5t90.5 40.5q66 0 94 -44.5t23 -93.5zM112 123q0 52 41 67.5t92 15.5
q20 0 41 -2t40 -3v-33q-3 -56 -43.5 -88t-87.5 -32q-29 0 -56 16t-27 59z" />
    <glyph glyph-name="uni01FE" unicode="&#x1fe;" horiz-adv-x="725" 
d="M-12 -213v1130h749v-1130h-749zM331 703l197 42l-17 68l-191 -73zM688 325q0 135 -84 230l85 95h-79l-50 -56q-40 31 -90 48.5t-108 17.5q-144 0 -234.5 -97.5t-90.5 -237.5q0 -139 83 -231l-83 -94h73l50 56q40 -31 90.5 -48.5t109.5 -17.5q98 0 172 45.5t115 121.5
t41 168zM362 594q90 0 153 -52l-346 -391q-53 73 -53 175q0 112 65 190t181 78zM609 324q0 -113 -65 -190.5t-180 -77.5q-95 0 -157 53l349 390q53 -72 53 -175z" />
    <glyph glyph-name="uni01FF" unicode="&#x1ff;" horiz-adv-x="509" 
d="M-12 -213v1130h533v-1130h-533zM244 520l173 104l-40 59l-154 -132zM476 223q0 96 -53 160l53 62h-62l-26 -31q-54 40 -131 40q-109 0 -165 -69t-56 -166q0 -94 52 -159l-52 -60h61l24 29q55 -39 131 -39q103 0 163.5 65.5t60.5 167.5zM111 223q0 74 37 122t107 48
q53 0 89 -30l-207 -245q-26 43 -26 105zM400 224q0 -74 -37 -123.5t-108 -49.5q-53 0 -89 30l209 246q25 -41 25 -103z" />
    <glyph glyph-name="uni0218" unicode="&#x218;" horiz-adv-x="529" 
d="M-12 -213v1130h553v-1130h-243l18 154h-67l-8 -154h-253zM488 182q0 74 -35.5 111.5t-85 53t-93.5 25.5q-55 13 -100 34t-45 82q0 52 37.5 79.5t98.5 27.5q29 0 61 -5.5t63 -21.5l10 -97l60 6l-6 129q-31 24 -86 39t-109 15q-84 0 -145.5 -44t-61.5 -136q0 -64 30 -97.5
t75 -49t91 -25.5q60 -14 111 -36.5t51 -96.5q0 -66 -46.5 -93.5t-110.5 -27.5q-36 0 -69 6t-66 23l4 82l-60 6l-14 -128q73 -53 209 -53q99 0 165.5 49t66.5 143z" />
    <glyph glyph-name="uni0219" unicode="&#x219;" horiz-adv-x="433" 
d="M-12 -213v1130h457v-1130h-209l18 154h-67l-8 -154h-191zM397 129q0 53 -28 78.5t-69 35.5t-82 16.5t-69 21t-28 49.5q0 34 27 50t69 16q49 0 91 -22l11 -72l58 7l-11 104q-28 17 -68.5 29t-86.5 12q-61 0 -113 -29t-52 -100q0 -52 28 -76.5t70 -34.5t83.5 -17t69.5 -22
t28 -52q0 -38 -36.5 -56.5t-83.5 -18.5q-53 0 -99 22l3 59l-56 6l-14 -101q29 -19 75.5 -31.5t93.5 -12.5q80 0 134.5 37t54.5 102z" />
    <glyph glyph-name="uni021A" unicode="&#x21a;" horiz-adv-x="568" 
d="M-12 -213v1130h592v-1130h-278l18 154h-67l-8 -154h-257zM485 447l65 5l-20 198h-492l-19 -198l64 -5l20 139h144v-522h-112v-64h300v64h-115v522h145z" />
    <glyph glyph-name="uni021B" unicode="&#x21b;" horiz-adv-x="367" 
d="M-12 -213v1130h391v-1130h-134l18 154h-67l-8 -154h-200zM353 120l-54 17q-10 -54 -28.5 -70t-43.5 -16q-41 0 -56.5 24.5t-15.5 64.5v249h174v56h-174v143h-70v-143h-72v-56h72v-258q0 -65 33.5 -103t100.5 -38q114 0 134 130z" />
    <glyph glyph-name="uni0232" unicode="&#x232;" horiz-adv-x="570" 
d="M232 586v64h-244v267h594v-267h-240v-64h89l-138 -270h-5l-145 270h89zM153 733h279v57h-279v-57zM582 -213h-594v799h72l190 -337v-185h-111v-64h299v64h-115v184l182 338h77v-799z" />
    <glyph glyph-name="uni0233" unicode="&#x233;" horiz-adv-x="507" 
d="M-12 -213v1130h531v-1130h-213v57h-76l60 156l157 388h53v57h-196v-57h72l-111 -299h-6l-125 299h78v57h-206v-57h53l162 -387l-58 -157h-83v-57h-92zM138 564h244v57h-244v-57z" />
    <glyph glyph-name="uni0237" unicode="&#x237;" horiz-adv-x="247" 
d="M-12 917h271v-1130h-244q70 2 115 48t45 161v449h-170v-57h99v-392q0 -72 -17.5 -104.5t-44 -41t-54.5 -8.5v1075z" />
    <glyph glyph-name="uni0259" unicode="&#x259;" horiz-adv-x="466" 
d="M-12 -213v1130h490v-1130h-490zM37 317l59 -13q10 40 40 65t82 25q136 0 142 -156h-314q-5 -30 -5 -53q0 -79 48.5 -137t139.5 -58q95 0 150 67t55 171q0 108 -58 167t-153 59q-82 0 -130 -40t-56 -97zM115 186h244q-7 -56 -37 -97t-91 -41q-65 0 -93 44.5t-23 93.5z" />
    <glyph glyph-name="circumflex" unicode="&#x2c6;" horiz-adv-x="240" 
d="M225 519l-111 84l-101 -84l-25 32l121 120h22l121 -118z" />
    <glyph glyph-name="caron" unicode="&#x2c7;" horiz-adv-x="240" 
d="M131 519h-22l-121 117l26 34l110 -84l102 85l26 -33z" />
    <glyph glyph-name="breve" unicode="&#x2d8;" horiz-adv-x="221" 
d="M233 655q0 -123 -123 -123q-122 0 -122 123h59q0 -75 64 -75q63 0 63 75h59z" />
    <glyph glyph-name="dotaccent" unicode="&#x2d9;" horiz-adv-x="53" 
d="M-12 644h77v-91h-77v91z" />
    <glyph glyph-name="ring" unicode="&#x2da;" horiz-adv-x="173" 
d="M185 607q0 -41 -24.5 -67t-74.5 -26q-98 0 -98 92q0 40 26 66t73 26q51 0 74.5 -25.5t23.5 -65.5zM136 608q0 20 -11 35t-39 15q-26 0 -37.5 -15t-11.5 -37q0 -52 49 -52q26 0 38 16t12 38z" />
    <glyph glyph-name="ogonek" unicode="&#x2db;" horiz-adv-x="159" 
d="M171 -189q-37 -20 -79 -20q-46 0 -75 24t-29 67q0 45 28.5 79.5t67.5 50.5l45 -4q-45 -23 -62 -51.5t-17 -55.5q0 -56 58 -56q29 0 54 15z" />
    <glyph glyph-name="tilde" unicode="&#x2dc;" horiz-adv-x="260" 
d="M272 646q-7 -40 -24.5 -66.5t-52.5 -26.5q-39 0 -67 19.5t-56 19.5q-14 0 -29 -9.5t-22 -33.5l-33 12q4 26 23.5 57t57.5 31q34 0 59 -18.5t61 -18.5q13 0 26 8t21 35z" />
    <glyph glyph-name="hungarumlaut" unicode="&#x2dd;" horiz-adv-x="289" 
d="M19 519l-31 22l100 177l57 -40zM128 520l-21 31l154 132l40 -59z" />
    <glyph glyph-name="dotbelowcomb" unicode="&#x323;" horiz-adv-x="53" 
d="M-12 -83h77v-91h-77v91z" />
    <glyph glyph-name="uni0394" unicode="&#x394;" horiz-adv-x="538" 
d="M-12 917h562v-1130h-562v1130zM23 0h491l-240 661zM105 57l168 449l160 -449h-328z" />
    <glyph glyph-name="Sigma" unicode="&#x3a3;" horiz-adv-x="538" 
d="M-12 917h562v-1130h-562v1130zM31 0h477v63h-394l194 252v22l-194 250h394v63h-477v-63l203 -264l-203 -260v-63z" />
    <glyph glyph-name="pi" unicode="&#x3c0;" horiz-adv-x="579" 
d="M-12 917h603v-1130h-603v1130zM324 0h226v57h-77v331h80v57h-526v-57h79v-331h-77v-57h225v57h-77v331h225v-331h-78v-57z" />
    <glyph glyph-name="uni1E46" unicode="&#x1e46;" horiz-adv-x="733" 
d="M-12 -213v1130h757v-1130h-757zM620 586h81v64h-249v-64h98v-437h-4l-370 501h-140v-64h86v-522h-75v-64h248v64h-103v448h4l377 -512h47v586zM333 -83v-91h77v91h-77z" />
    <glyph glyph-name="uni1E47" unicode="&#x1e47;" horiz-adv-x="570" 
d="M-12 -213v1130h594v-1130h-594zM337 0h225v57h-77v228q0 89 -44 129t-109 40q-108 0 -156 -88v79h-150v-57h80v-331h-78v-57h226v57h-78v208q2 51 38.5 90.5t96.5 39.5q45 0 74 -29.5t29 -101.5v-207h-77v-57zM255 -83v-91h77v91h-77z" />
    <glyph glyph-name="uni1E62" unicode="&#x1e62;" horiz-adv-x="529" 
d="M-12 -213v1130h553v-1130h-553zM488 182q0 74 -35.5 111.5t-85 53t-93.5 25.5q-55 13 -100 34t-45 82q0 52 37.5 79.5t98.5 27.5q29 0 61 -5.5t63 -21.5l10 -97l60 6l-6 129q-31 24 -86 39t-109 15q-84 0 -145.5 -44t-61.5 -136q0 -64 30 -97.5t75 -49t91 -25.5
q60 -14 111 -36.5t51 -96.5q0 -66 -46.5 -93.5t-110.5 -27.5q-36 0 -69 6t-66 23l4 82l-60 6l-14 -128q73 -53 209 -53q99 0 165.5 49t66.5 143zM235 -83v-91h77v91h-77z" />
    <glyph glyph-name="uni1E63" unicode="&#x1e63;" horiz-adv-x="433" 
d="M-12 -213v1130h457v-1130h-457zM397 129q0 53 -28 78.5t-69 35.5t-82 16.5t-69 21t-28 49.5q0 34 27 50t69 16q49 0 91 -22l11 -72l58 7l-11 104q-28 17 -68.5 29t-86.5 12q-61 0 -113 -29t-52 -100q0 -52 28 -76.5t70 -34.5t83.5 -17t69.5 -22t28 -52q0 -38 -36.5 -56.5
t-83.5 -18.5q-53 0 -99 22l3 59l-56 6l-14 -101q29 -19 75.5 -31.5t93.5 -12.5q80 0 134.5 37t54.5 102zM178 -83v-91h77v91h-77z" />
    <glyph glyph-name="uni1E80" unicode="&#x1e80;" horiz-adv-x="887" 
d="M224 586v64h-236v267h911v-267h-234v-64h95l-107 -470h-4l-151 470h65v64h-225v-64h66l-150 -467h-5l-116 467h91zM512 703l10 37l-191 73l-17 -68zM899 -213h-911v799h67l165 -586h60l165 520h5l170 -520h59l154 586h66v-799z" />
    <glyph glyph-name="wgrave" unicode="&#x1e81;" horiz-adv-x="762" 
d="M-12 -213v1130h786v-1130h-786zM399 520l21 31l-154 132l-40 -59zM693 388h61v57h-200v-57h71l-72 -281h-5l-139 338h-47l-132 -338h-5l-83 281h75v57h-210v-57h59l126 -388h52l133 340h5l136 -340h54z" />
    <glyph glyph-name="uni1E82" unicode="&#x1e82;" horiz-adv-x="887" 
d="M224 586v64h-236v267h911v-267h-234v-64h95l-107 -470h-4l-151 470h65v64h-225v-64h66l-150 -467h-5l-116 467h91zM394 703l197 42l-17 68l-191 -73zM899 -213h-911v799h67l165 -586h60l165 520h5l170 -520h59l154 586h66v-799z" />
    <glyph glyph-name="wacute" unicode="&#x1e83;" horiz-adv-x="762" 
d="M-12 -213v1130h786v-1130h-786zM377 520l172 104l-40 59l-154 -132zM693 388h61v57h-200v-57h71l-72 -281h-5l-139 338h-47l-132 -338h-5l-83 281h75v57h-210v-57h59l126 -388h52l133 340h5l136 -340h54z" />
    <glyph glyph-name="uni1E84" unicode="&#x1e84;" horiz-adv-x="887" 
d="M224 586v64h-236v267h911v-267h-234v-64h95l-107 -470h-4l-151 470h65v64h-225v-64h66l-150 -467h-5l-116 467h91zM329 803v-85h81v85h-81zM501 803v-85h80v85h-80zM899 -213h-911v799h67l165 -586h60l165 520h5l170 -520h59l154 586h66v-799z" />
    <glyph glyph-name="wdieresis" unicode="&#x1e85;" horiz-adv-x="762" 
d="M-12 -213v1130h786v-1130h-786zM262 640v-85h81v85h-81zM433 640v-85h81v85h-81zM693 388h61v57h-200v-57h71l-72 -281h-5l-139 338h-47l-132 -338h-5l-83 281h75v57h-210v-57h59l126 -388h52l133 340h5l136 -340h54z" />
    <glyph glyph-name="uni1EBC" unicode="&#x1ebc;" horiz-adv-x="584" 
d="M-12 -213v1130h608v-1130h-608zM467 798l-36 9q-8 -28 -20.5 -35t-26.5 -7q-36 0 -61 17.5t-58 17.5q-38 0 -58 -28t-24 -54l33 -13q8 24 22 31.5t28 7.5q29 0 57 -17.5t66 -17.5q36 0 53.5 24.5t24.5 64.5zM40 0h484l19 184l-63 7l-20 -127h-265v234h307v64h-307v224
h256l20 -127l64 7l-20 184h-475v-64h82v-522h-82v-64z" />
    <glyph glyph-name="uni1EBD" unicode="&#x1ebd;" horiz-adv-x="466" 
d="M-12 -213v1130h490v-1130h-490zM378 646l-36 9q-8 -27 -21 -35t-26 -8q-36 0 -61 18.5t-59 18.5q-38 0 -57.5 -31t-23.5 -57l33 -12q7 24 22 33.5t29 9.5q28 0 56 -19.5t67 -19.5q35 0 52.5 26.5t24.5 66.5zM433 128l-59 13q-10 -41 -40 -66t-83 -25q-135 0 -141 156h313
q6 27 6 53q-1 79 -49 137t-140 58q-94 0 -149 -67t-55 -171q0 -108 58 -167t152 -59q82 0 130 40.5t57 97.5zM355 258h-244q7 56 36 97t91 41q65 0 93.5 -44t23.5 -94z" />
    <glyph glyph-name="uni1EF2" unicode="&#x1ef2;" horiz-adv-x="570" 
d="M232 586v64h-244v267h594v-267h-240v-64h89l-138 -270h-5l-145 270h89zM342 703l10 37l-191 73l-17 -68zM582 -213h-594v799h72l190 -337v-185h-111v-64h299v64h-115v184l182 338h77v-799z" />
    <glyph glyph-name="ygrave" unicode="&#x1ef3;" horiz-adv-x="507" 
d="M-12 -213v1130h531v-1130h-213v57h-76l60 156l157 388h53v57h-196v-57h72l-111 -299h-6l-125 299h78v57h-206v-57h53l162 -387l-58 -157h-83v-57h-92zM292 520l21 31l-154 132l-40 -59z" />
    <glyph glyph-name="uni2002" unicode="&#x2002;" horiz-adv-x="593" 
d="M-15 -213v1130h626v-1130h-626z" />
    <glyph glyph-name="uni2003" unicode="&#x2003;" horiz-adv-x="876" 
d="M-10 -213v1130h897v-1130h-897z" />
    <glyph glyph-name="uni2004" unicode="&#x2004;" horiz-adv-x="332" 
d="M-15 -213v1130h364v-1130h-364z" />
    <glyph glyph-name="uni2005" unicode="&#x2005;" horiz-adv-x="600" 
d="M-15 -213v1130h633v-1130h-633z" />
    <glyph glyph-name="uni2006" unicode="&#x2006;" horiz-adv-x="332" 
d="M-15 -213v1130h364v-1130h-364z" />
    <glyph glyph-name="uni2007" unicode="&#x2007;" horiz-adv-x="601" 
d="M-15 -213v1130h633v-1130h-633z" />
    <glyph glyph-name="uni2008" unicode="&#x2008;" horiz-adv-x="200" 
d="M-15 -213v1130h229v-1130h-229z" />
    <glyph glyph-name="uni2009" unicode="&#x2009;" horiz-adv-x="160" 
d="M-15 -213v1130h193v-1130h-193z" />
    <glyph glyph-name="uni200A" unicode="&#x200a;" horiz-adv-x="79" 
d="M-15 -213v1130h108v-1130h-108z" />
    <glyph glyph-name="uni2012" unicode="&#x2012;" horiz-adv-x="323" 
d="M-12 917h347v-636h-347v636zM335 221v-434h-347v434h347z" />
    <glyph glyph-name="endash" unicode="&#x2013;" horiz-adv-x="619" 
d="M-12 917h643v-1130h-643v1130zM59 206h502v51h-502v-51z" />
    <glyph glyph-name="emdash" unicode="&#x2014;" horiz-adv-x="1075" 
d="M-12 917h1099v-1130h-1099v1130zM72 206h940v51h-940v-51z" />
    <glyph glyph-name="quoteleft" unicode="&#x2018;" horiz-adv-x="199" 
d="M-12 -213v1130h223v-1130h-223zM112 440l53 216h-69l-53 -216h69z" />
    <glyph glyph-name="quoteright" unicode="&#x2019;" horiz-adv-x="197" 
d="M-12 -213v1130h221v-1130h-221zM94 695l-52 -216h69l53 216h-70z" />
    <glyph glyph-name="quotesinglbase" unicode="&#x201a;" horiz-adv-x="197" 
d="M-12 -213v1130h221v-1130h-221zM74 114l-52 -216h69l53 216h-70z" />
    <glyph glyph-name="quotedblleft" unicode="&#x201c;" horiz-adv-x="361" 
d="M373 917v-1130h-385v1130h385zM114 452l52 216h-69l-53 -216h70zM278 452l53 216h-70l-52 -216h69z" />
    <glyph glyph-name="quotedblright" unicode="&#x201d;" horiz-adv-x="360" 
d="M-12 -213v1130h384v-1130h-384zM89 670l-53 -217h69l53 217h-69zM253 670l-53 -217h69l53 217h-69z" />
    <glyph glyph-name="quotedblbase" unicode="&#x201e;" horiz-adv-x="363" 
d="M-12 -213v1130h387v-1130h-387zM74 114l-52 -216h69l53 216h-70zM241 114l-53 -216h69l53 216h-69z" />
    <glyph glyph-name="dagger" unicode="&#x2020;" horiz-adv-x="463" 
d="M-12 917h487v-1130h-487v1130zM27 366h173v-507h63v507h174v62h-174v222h-63v-222h-173v-62z" />
    <glyph glyph-name="daggerdbl" unicode="&#x2021;" horiz-adv-x="509" 
d="M-12 917h533v-1130h-533v1130zM50 366h173v-247h-173v-62h173v-198h63v198h174v62h-174v247h174v62h-174v222h-63v-222h-173v-62z" />
    <glyph glyph-name="bullet" unicode="&#x2022;" horiz-adv-x="353" 
d="M-12 917h377v-1130h-377v1130zM67 244q0 -46 31 -78t77 -32q47 0 79.5 32t32.5 78t-32.5 78.5t-79.5 32.5q-46 0 -77 -32.5t-31 -78.5z" />
    <glyph glyph-name="ellipsis" unicode="&#x2026;" horiz-adv-x="581" 
d="M-12 917h605v-1130h-605v1130zM55 0h97v108h-97v-108zM241 0h97v108h-97v-108zM428 0h98v108h-98v-108z" />
    <glyph glyph-name="perthousand" unicode="&#x2030;" horiz-adv-x="987" 
d="M-12 917h1011v-1130h-1011v1130zM173 244q71 0 109 40t38 108q0 70 -38.5 104.5t-100.5 34.5q-65 0 -106 -37.5t-41 -110.5q0 -71 39.5 -105t99.5 -34zM504 521l-174 -234l-230 -287h75l202 267l202 254h-75zM174 294q-80 0 -80 90q0 97 85 97q81 0 81 -90q0 -97 -86 -97
zM504 -10q70 0 108.5 40t38.5 108q0 70 -38.5 104.5t-100.5 34.5q-65 0 -106 -37.5t-41 -110.5q0 -71 39 -105t100 -34zM812 -10q70 0 108 40t38 108q0 70 -38.5 104.5t-99.5 34.5q-65 0 -106.5 -37.5t-41.5 -110.5q0 -71 39.5 -105t100.5 -34zM504 40q-79 0 -79 90
q0 97 85 97q81 0 81 -90q0 -97 -87 -97zM812 40q-80 0 -80 90q0 97 86 97q80 0 80 -90q0 -97 -86 -97z" />
    <glyph glyph-name="guilsinglleft" unicode="&#x2039;" horiz-adv-x="283" 
d="M-12 917h307v-1130h-307v1130zM237 25l-129 246l129 240h-60l-138 -240l138 -246h60z" />
    <glyph glyph-name="guilsinglright" unicode="&#x203a;" horiz-adv-x="283" 
d="M-12 917h307v-1130h-307v1130zM106 25l138 246l-138 240h-60l128 -240l-128 -246h60z" />
    <glyph glyph-name="uni203D" unicode="&#x203d;" horiz-adv-x="637" 
d="M-12 917h661v-1130h-661v1130zM291 466l28 98q36 25 76 25q37 0 84.5 -22.5t47.5 -75.5q0 -47 -39 -73t-90.5 -49.5t-91.5 -60t-42 -103.5l50 -14q5 60 50 92.5t101.5 57.5t99 58t42.5 95q0 73 -60.5 113.5t-136.5 40.5q-45 0 -85.5 -15t-65.5 -37l-24 -118zM242 204
l-137 440l-77 -32l165 -429zM213 0h89v97h-89v-97z" />
    <glyph glyph-name="fraction" unicode="&#x2044;" horiz-adv-x="401" 
d="M360 650h53l-190 -325l-182 -325h-53l197 337z" />
    <glyph glyph-name="uni2070" unicode="&#x2070;" horiz-adv-x="375" 
d="M-12 917h399v-1130h-399v1130zM37 593q0 -76 31.5 -130t116.5 -54q86 0 119.5 54.5t33.5 134.5q0 67 -29 127t-121 60q-91 0 -121 -59.5t-30 -132.5zM100 599q0 56 16 97.5t71 41.5q57 0 72.5 -41.5t15.5 -95.5q0 -64 -18 -104.5t-71 -40.5t-69.5 41.5t-16.5 101.5z" />
    <glyph glyph-name="uni2071" unicode="&#x2071;" horiz-adv-x="202" 
d="M-12 917h226v-1130h-226v1130zM72 781h61v63h-61v-63zM25 662h51v-204h-49v-43h155v43h-48v247h-109v-43z" />
    <glyph glyph-name="uni2074" unicode="&#x2074;" horiz-adv-x="353" 
d="M-12 917h377v-1130h-377v1130zM206 414h58v90h57l4 44h-61v231h-114l-130 -232l6 -43h180v-90zM179 734h27v-186h-133z" />
    <glyph glyph-name="uni2075" unicode="&#x2075;" horiz-adv-x="331" 
d="M-12 917h355v-1130h-355v1130zM300 524q0 71 -50 93t-113 22h-27v95h123l6 -50l46 5l-5 90h-225v-169l20 -16q13 1 26.5 2t28.5 1q41 0 74.5 -13.5t33.5 -59.5q0 -70 -80 -70q-39 0 -58 19.5t-25 43.5l-42 -12q6 -45 39.5 -71t84.5 -26q59 0 101 28t42 88z" />
    <glyph glyph-name="uni2076" unicode="&#x2076;" horiz-adv-x="344" 
d="M-12 917h368v-1130h-368v1130zM193 740q15 0 33.5 -6.5t39.5 -31.5l32 34q-28 29 -57.5 39t-54.5 10q-75 0 -112 -58t-37 -144q0 -74 30.5 -124t107.5 -50q66 0 98.5 35.5t32.5 88.5q0 43 -24 77t-84 34q-43 0 -66.5 -17t-32.5 -38q1 151 94 151zM181 600q66 0 66 -70
q0 -74 -70 -74q-40 0 -56 21.5t-20 56.5q1 22 19 44t61 22z" />
    <glyph glyph-name="uni2077" unicode="&#x2077;" horiz-adv-x="304" 
d="M-12 917h328v-1130h-328v1130zM27 779v-107h51v62h149l-139 -319h58l144 337l-8 27h-255z" />
    <glyph glyph-name="uni2078" unicode="&#x2078;" horiz-adv-x="349" 
d="M-12 917h373v-1130h-373v1130zM170 409q62 0 103 26.5t41 73.5q0 41 -28.5 63.5t-64.5 38.5q32 13 56 31t24 53q0 41 -36 65.5t-91 24.5q-58 0 -93.5 -26.5t-35.5 -69.5q0 -35 23.5 -55.5t55.5 -35.5q-34 -14 -61.5 -34t-27.5 -60q0 -46 38.5 -70.5t96.5 -24.5zM108 695
q0 47 66 47q26 0 46.5 -12.5t20.5 -41.5q0 -24 -16.5 -37t-38.5 -24q-32 13 -55 28t-23 40zM173 452q-79 0 -79 62q0 27 19 42t45 27q36 -15 64.5 -31.5t28.5 -46.5q0 -24 -22 -38.5t-56 -14.5z" />
    <glyph glyph-name="uni2079" unicode="&#x2079;" horiz-adv-x="343" 
d="M-12 917h367v-1130h-367v1130zM154 454q-14 0 -35 6.5t-41 31.5l-32 -34q27 -29 58.5 -39t56.5 -10q74 0 110 57t36 143q0 76 -31 126t-108 50q-65 0 -98 -35.5t-33 -88.5q0 -43 24 -77t85 -34q42 0 65 16.5t33 37.5q-1 -79 -21 -114.5t-69 -35.5zM162 594q-66 0 -66 70
q0 74 71 74q39 0 55 -21.5t21 -57.5q-2 -23 -20 -44t-61 -21z" />
    <glyph glyph-name="uni207A" unicode="&#x207a;" horiz-adv-x="286" 
d="M-12 917h310v-1130h-310v1130zM27 578h98v-93h41v93h93v39h-93v94h-41v-94h-98v-39z" />
    <glyph glyph-name="uni207B" unicode="&#x207b;" horiz-adv-x="323" 
d="M-12 917h347v-1130h-347v1130zM47 578h232v39h-232v-39z" />
    <glyph glyph-name="uni207C" unicode="&#x207c;" horiz-adv-x="390" 
d="M-12 917h414v-1130h-414v1130zM47 645h297v40h-297v-40zM47 510h297v39h-297v-39z" />
    <glyph glyph-name="uni207D" unicode="&#x207d;" horiz-adv-x="214" 
d="M-12 917h238v-1130h-238v1130zM141 855q-104 -127 -104 -274q0 -71 24.5 -140.5t78.5 -136.5h52q-106 125 -106 277q0 144 106 274h-51z" />
    <glyph glyph-name="uni207E" unicode="&#x207e;" horiz-adv-x="214" 
d="M-12 917h238v-1130h-238v1130zM74 303q104 129 104 274q0 70 -25 139.5t-78 137.5h-53q107 -128 107 -277q0 -146 -107 -274h52z" />
    <glyph glyph-name="uni207F" unicode="&#x207f;" horiz-adv-x="402" 
d="M-12 917h426v-1130h-426v1130zM232 415h155v43h-47v144q0 57 -31 83t-74 26q-71 0 -101 -56v50h-110v-43h51v-204h-48v-43h154v43h-47v133q1 32 22.5 54.5t59.5 22.5q30 0 47.5 -18.5t17.5 -64.5v-127h-49v-43z" />
    <glyph glyph-name="uni2080" unicode="&#x2080;" horiz-adv-x="375" 
d="M-12 917h399v-1130h-399v1130zM37 178q0 -76 31.5 -130t116.5 -54q86 0 119.5 55t33.5 134q0 67 -29 127t-121 60q-91 0 -121 -59.5t-30 -132.5zM100 184q0 56 16 97.5t71 41.5q57 0 72.5 -41.5t15.5 -95.5q0 -64 -18 -104.5t-71 -40.5t-69.5 41.5t-16.5 101.5z" />
    <glyph glyph-name="uni2081" unicode="&#x2081;" horiz-adv-x="256" 
d="M-12 917h280v-1130h-280v1130zM33 319h75v-274h-75v-45h205v45h-72v319h-133v-45z" />
    <glyph glyph-name="uni2082" unicode="&#x2082;" horiz-adv-x="344" 
d="M-12 917h368v-1130h-368v1130zM85 252l13 56q26 17 57 17q38 0 54.5 -16.5t16.5 -40.5q0 -38 -31 -77t-76 -77t-87 -73l5 -41h272l10 94l-47 5l-10 -54h-156q26 21 69.5 56t79 79.5t35.5 92.5q0 37 -28 67t-92 30q-32 0 -64.5 -9t-54.5 -28l-11 -76z" />
    <glyph glyph-name="uni2083" unicode="&#x2083;" horiz-adv-x="338" 
d="M-12 917h362v-1130h-362v1130zM91 258l11 50q28 16 60 16q63 0 63 -52q0 -60 -89 -64v-38q58 -2 81 -18.5t23 -44.5q0 -29 -21 -48.5t-58 -19.5q-39 0 -58.5 19.5t-25.5 43.5l-42 -12q6 -45 39.5 -71t84.5 -26q59 0 101.5 27t42.5 81q0 31 -19.5 57t-70.5 34v2
q41 12 57.5 35.5t16.5 50.5q0 40 -30.5 64.5t-80.5 24.5q-29 0 -63.5 -8.5t-57.5 -28.5l-9 -69z" />
    <glyph glyph-name="uni2084" unicode="&#x2084;" horiz-adv-x="353" 
d="M-12 917h377v-1130h-377v1130zM206 -1h58v90h57l4 44h-61v231h-114l-130 -232l6 -43h180v-90zM179 319h27v-186h-133z" />
    <glyph glyph-name="uni2085" unicode="&#x2085;" horiz-adv-x="331" 
d="M-12 917h355v-1130h-355v1130zM300 109q0 71 -50 93t-113 22h-27v95h123l6 -50l46 5l-5 90h-225v-169l20 -16q13 1 26.5 2t28.5 1q41 0 74.5 -13t33.5 -60q0 -70 -80 -70q-39 0 -58 19.5t-25 43.5l-42 -12q6 -45 39.5 -71t84.5 -26q59 0 101 28t42 88z" />
    <glyph glyph-name="uni2086" unicode="&#x2086;" horiz-adv-x="344" 
d="M-12 917h368v-1130h-368v1130zM193 325q15 0 33.5 -6.5t39.5 -31.5l32 34q-28 29 -57.5 39t-54.5 10q-75 0 -112 -58t-37 -144q0 -74 30.5 -124t107.5 -50q66 0 98.5 36t32.5 88q0 43 -24 77t-84 34q-43 0 -66.5 -17t-32.5 -38q1 151 94 151zM181 185q66 0 66 -70
q0 -74 -70 -74q-40 0 -56 21.5t-20 56.5q1 23 19 44.5t61 21.5z" />
    <glyph glyph-name="uni2087" unicode="&#x2087;" horiz-adv-x="304" 
d="M-12 917h328v-1130h-328v1130zM27 364v-107h51v62h149l-139 -319h58l144 337l-8 27h-255z" />
    <glyph glyph-name="uni2088" unicode="&#x2088;" horiz-adv-x="349" 
d="M-12 917h373v-1130h-373v1130zM170 -6q62 0 103 26.5t41 73.5q0 40 -28.5 63t-64.5 39q32 13 56 31.5t24 52.5q0 40 -36 65t-91 25q-58 0 -93.5 -26.5t-35.5 -69.5q0 -34 23.5 -55t55.5 -36q-34 -13 -61.5 -33.5t-27.5 -60.5q0 -47 38.5 -71t96.5 -24zM108 280
q0 47 66 47q26 0 46.5 -12.5t20.5 -41.5q0 -24 -16.5 -37.5t-38.5 -23.5q-32 14 -55 28t-23 40zM173 37q-79 0 -79 62q0 27 19 42t45 27q36 -15 64.5 -31.5t28.5 -46.5q0 -24 -22 -38.5t-56 -14.5z" />
    <glyph glyph-name="uni2089" unicode="&#x2089;" horiz-adv-x="343" 
d="M-12 917h367v-1130h-367v1130zM154 39q-14 0 -35 6.5t-41 31.5l-32 -34q27 -29 58.5 -39t56.5 -10q74 0 110 57t36 143q0 76 -31 126t-108 50q-65 0 -98 -36t-33 -88q0 -43 24 -77t85 -34q42 0 65 16.5t33 37.5q-1 -79 -21 -114.5t-69 -35.5zM162 179q-66 0 -66 70
q0 74 71 74q39 0 55 -21.5t21 -57.5q-2 -22 -20 -43.5t-61 -21.5z" />
    <glyph glyph-name="uni208A" unicode="&#x208a;" horiz-adv-x="286" 
d="M-12 917h310v-1130h-310v1130zM27 163h98v-93h41v93h93v39h-93v94h-41v-94h-98v-39z" />
    <glyph glyph-name="uni208B" unicode="&#x208b;" horiz-adv-x="323" 
d="M-12 917h347v-1130h-347v1130zM47 163h232v39h-232v-39z" />
    <glyph glyph-name="uni208C" unicode="&#x208c;" horiz-adv-x="390" 
d="M-12 917h414v-1130h-414v1130zM47 230h297v40h-297v-40zM47 95h297v39h-297v-39z" />
    <glyph glyph-name="uni208D" unicode="&#x208d;" horiz-adv-x="214" 
d="M-12 917h238v-1130h-238v1130zM141 440q-104 -127 -104 -274q0 -70 24.5 -140t78.5 -137h52q-106 125 -106 277q0 146 106 274h-51z" />
    <glyph glyph-name="uni208E" unicode="&#x208e;" horiz-adv-x="214" 
d="M-12 917h238v-1130h-238v1130zM74 -112q104 128 104 273q0 70 -25 140.5t-78 137.5h-53q107 -128 107 -278q0 -145 -107 -273h52z" />
    <glyph glyph-name="uni2090" unicode="&#x2090;" horiz-adv-x="344" 
d="M-12 917h368v-1130h-368v1130zM159 257q34 0 49 -18.5t15 -47.5v-31q-12 1 -25.5 2t-28.5 1q-49 0 -94 -16.5t-45 -71.5q0 -46 30.5 -64t61.5 -18q37 0 62 18.5t39 41.5q2 -60 57 -60q24 0 43 11v31q-9 -3 -18 -3q-24 0 -24 30v136q0 98 -114 98q-66 0 -111 -33l-9 -67
l45 -5l11 50q13 7 26 11.5t30 4.5zM144 34q-20 0 -36.5 11t-16.5 37q0 32 25 42t55 10q13 0 27 -1t25 -3q-1 -49 -25 -72.5t-54 -23.5z" />
    <glyph glyph-name="uni2091" unicode="&#x2091;" horiz-adv-x="331" 
d="M-12 917h355v-1130h-355v1130zM170 296q-65 0 -102.5 -44t-37.5 -112q0 -70 40 -108.5t104 -38.5q58 0 91 27.5t38 64.5l-48 10q-5 -24 -23 -40t-53 -16q-83 0 -88 95h205q15 63 -20 112.5t-106 49.5zM169 253q41 0 58 -26.5t13 -55.5h-148q4 34 22 58t55 24z" />
    <glyph glyph-name="uni2092" unicode="&#x2092;" horiz-adv-x="361" 
d="M-12 917h385v-1130h-385v1130zM29 142q0 -66 40 -107.5t108 -41.5q70 0 112 42.5t42 109.5q0 61 -37.5 106t-112.5 45t-113.5 -45t-38.5 -109zM91 146q0 46 23 74.5t66 28.5q89 0 89 -103q0 -46 -23.5 -76.5t-66.5 -30.5q-44 0 -66 31t-22 76z" />
    <glyph glyph-name="uni2093" unicode="&#x2093;" horiz-adv-x="357" 
d="M-12 917h381v-1130h-381v1130zM214 247h33l-64 -74l-63 74h39v43h-141v-43h36l95 -102l-93 -102h-39v-43h128v43h-35l66 75l66 -75h-36v-43h137v43h-37l-96 106l90 98h36v43h-122v-43z" />
    <glyph glyph-name="uni2095" unicode="&#x2095;" horiz-adv-x="396" 
d="M-12 917h420v-1130h-420v1130zM126 175q1 32 22.5 55t59.5 23q29 0 47.5 -18.5t18.5 -64.5v-127h-49v-43h155v43h-48v144q0 57 -30 83t-74 26q-70 0 -102 -56v207h-106v-43h48v-361h-48v-43h154v43h-48v132z" />
    <glyph glyph-name="uni2096" unicode="&#x2096;" horiz-adv-x="366" 
d="M-12 917h390v-1130h-390v1130zM18 404h50v-361h-48v-43h146v43h-40v89h51l75 -89h-42v-43h144v43h-37l-95 114l74 90h44v43h-143v-43h44l-61 -74h-54v274h-108v-43z" />
    <glyph glyph-name="uni2097" unicode="&#x2097;" horiz-adv-x="194" 
d="M-12 917h218v-1130h-218v1130zM18 404h50v-361h-48v-43h155v43h-49v404h-108v-43z" />
    <glyph glyph-name="uni2098" unicode="&#x2098;" horiz-adv-x="596" 
d="M-12 917h620v-1130h-620v1130zM226 0h155v43h-48v132q1 28 21 53t57 25q28 0 45.5 -19t17.5 -64v-127h-49v-43h155v43h-48v144q0 57 -29.5 83t-71.5 26q-39 0 -64.5 -19.5t-39.5 -49.5q-10 35 -36.5 52t-59.5 17q-35 0 -59 -16t-38 -41v51h-109v-43h51v-204h-49v-43h153
v43h-46v135q2 27 21 51t57 24q28 0 45.5 -18.5t17.5 -64.5v-127h-49v-43z" />
    <glyph glyph-name="uni2099" unicode="&#x2099;" horiz-adv-x="403" 
d="M-12 917h427v-1130h-427v1130zM232 0h156v43h-48v144q0 57 -30.5 83t-73.5 26q-72 0 -102 -56v50h-109v-43h51v-204h-49v-43h155v43h-48v133q1 32 23 54.5t59 22.5q30 0 47.5 -18.5t17.5 -64.5v-127h-49v-43z" />
    <glyph glyph-name="uni209A" unicode="&#x209a;" horiz-adv-x="390" 
d="M-12 917h414v-1130h-414v1130zM17 247h51v-342h-48v-43h171v43h-65v136q28 -48 98 -48q71 0 103.5 50.5t32.5 109.5q0 67 -36 105t-92 38q-42 0 -67.5 -20t-38.5 -45v59h-109v-43zM210 39q-34 0 -59 21t-25 58v42q1 32 25.5 61t64.5 29q34 0 58 -25.5t24 -76.5
q0 -46 -22 -77.5t-66 -31.5z" />
    <glyph glyph-name="uni209B" unicode="&#x209b;" horiz-adv-x="313" 
d="M-12 917h337v-1130h-337v1130zM155 37q-45 0 -70 18l1 38l-45 5l-9 -70q21 -14 58.5 -24.5t75.5 -10.5q52 0 84 23.5t32 67.5t-27.5 60.5t-64 21.5t-64 13.5t-27.5 36.5q0 37 60 37q12 0 25.5 -2t29.5 -9l10 -42l45 6l-9 63q-29 17 -57 22t-55 5q-40 0 -76 -19.5
t-36 -66.5q0 -42 28 -58t65.5 -21.5t65.5 -14.5t28 -36q0 -22 -19.5 -32.5t-48.5 -10.5z" />
    <glyph glyph-name="uni209C" unicode="&#x209c;" horiz-adv-x="280" 
d="M-12 917h304v-1130h-304v1130zM19 247h46v-161q0 -93 98 -93q87 0 99 87l-42 13q-6 -35 -21 -44.5t-30 -9.5q-45 0 -45 55v153h113v43h-113v92h-59v-92h-46v-43z" />
    <glyph glyph-name="colonmonetary" unicode="&#x20a1;" horiz-adv-x="686" 
d="M-12 917h710v-1130h-710v1130zM328 -71h54l23 63q53 5 99 19.5t77 38.5l17 125l-62 6l-19 -96q-18 -9 -41 -15t-47 -10l225 629h-54l-48 -136q-20 37 -59 64l26 72h-53l-18 -49q-22 9 -48 14.5t-54 5.5q-133 0 -219 -95.5t-86 -242.5q0 -117 51 -195t132 -112l-30 -86h53
l25 70q28 -7 78 -9zM119 325q0 124 65.5 196.5t171.5 72.5q38 0 71 -13l-179 -498q-59 28 -94 88t-35 154zM295 64l178 496q43 -31 54 -74l-154 -430q-41 0 -78 8z" />
    <glyph glyph-name="uni20A2" unicode="&#x20a2;" horiz-adv-x="642" 
d="M-12 -213v1130h666v-1130h-666zM573 50l17 125l-62 6l-19 -96q-53 -26 -127 -29v146q0 50 25 81.5t63 31.5q19 0 33 -5l16 -69l53 7l-15 103q-27 22 -73 22q-37 0 -65.5 -24.5t-40.5 -61.5v79h-147v-58h80v-246q-92 16 -144 86.5t-52 175.5q0 118 65.5 194t172.5 76
q55 0 92 -12.5t69 -33.5l18 -95l63 6l-18 125q-40 34 -94.5 55t-135.5 21q-95 0 -164 -47t-107 -124.5t-38 -167.5q0 -142 88 -236.5t230 -94.5q139 0 217 60z" />
    <glyph glyph-name="franc" unicode="&#x20a3;" horiz-adv-x="779" 
d="M-12 917h803v-1130h-803v1130zM195 586h253l20 -130l65 7l-20 187h-473v-64h82v-522h-82v-64h268v64h-113v241h266v-248h-78v-57h252v57h-103v142q0 52 25.5 84.5t64.5 32.5q17 0 35 -6l17 -76l57 7l-17 112q-29 23 -77 23q-37 0 -67 -25t-43 -63v81h-332v217z" />
    <glyph glyph-name="lira" unicode="&#x20a4;" horiz-adv-x="576" 
d="M-12 917h600v-1130h-600v1130zM49 360h76v-81h-76v-49h75q-1 -51 -18.5 -97.5t-71.5 -71.5v-61h340q65 0 104.5 39t52.5 65l-40 37q-19 -29 -49 -53t-83 -24h-239q45 29 60 77t16 89h228v49h-227v81h227v49h-227v17q4 97 40 132.5t88 35.5q64 0 103 -25l17 -88l61 7
l-18 124q-32 28 -76 38t-93 10q-75 0 -134 -55t-60 -183v-13h-76v-49z" />
    <glyph glyph-name="uni20A5" unicode="&#x20a5;" horiz-adv-x="859" 
d="M-12 -213v1130h883v-1130h-883zM639 0h213v57h-78v228q0 89 -42.5 129t-106.5 40q-23 0 -49 -7l52 118h-53l-71 -162q-24 -26 -37 -56q-13 55 -52 81t-90 26q-54 0 -90.5 -26t-58.5 -66v83h-149v-57h79v-331h-78v-57h230v57h-82v206q2 43 34 87.5t94 44.5q44 0 72 -29
t28 -102v-89l-52 -118h-13v-30l-69 -157h53l57 130h172v57h-77v159l72 165q25 14 56 14q44 0 72.5 -29.5t28.5 -101.5v-207h-65v-57z" />
    <glyph glyph-name="uni20A6" unicode="&#x20a6;" horiz-adv-x="733" 
d="M-12 -213v1130h757v-1130h-757zM38 285v-41h84v-180h-75v-64h248v64h-103v180h199l182 -244h47v244h82v41h-82v85h82v42h-82v174h81v64h-249v-64h98v-174h-196l-178 238h-140v-64h86v-174h-84v-42h84v-85h-84zM192 512h4l71 -100h-75v100zM446 285l-61 85h165v-85h-104z
M192 285v85h107l61 -85h-168zM546 149l-68 95h72v-95h-4z" />
    <glyph glyph-name="peseta" unicode="&#x20a7;" horiz-adv-x="1308" 
d="M-12 -213v1130h1332v-1130h-1332zM542 451q0 81 -52.5 140t-173.5 59h-276v-64h82v-522h-82v-64h267v64h-112v178h127q96 0 158 53.5t62 155.5zM902 120l-54 17q-9 -54 -31.5 -70t-47.5 -16q-41 0 -58 24.5t-17 64.5v249h174v56h-174v143h-70v-143h-71v-56h71v-258
q0 -65 35 -103t102 -38q121 0 141 130zM464 449q0 -143 -151 -143h-118v280h115q80 0 117 -37t37 -100zM1272 129q0 53 -28 78.5t-69 35.5t-82 16.5t-69 21t-28 49.5q0 34 27 50t69 16q49 0 91 -22l11 -72l58 7l-10 104q-28 17 -69 29t-87 12q-61 0 -113 -29t-52 -100
q0 -52 28 -76.5t69.5 -34.5t83.5 -17t70 -22t28 -52q0 -38 -36.5 -56.5t-83.5 -18.5q-53 0 -99 22l3 59l-56 6l-13 -101q29 -19 75 -31.5t93 -12.5q80 0 134.5 37t54.5 102z" />
    <glyph glyph-name="uni20A8" unicode="&#x20a8;" horiz-adv-x="938" 
d="M-12 917h962v-1130h-962v1130zM40 0h243v64h-88v208h140l56 -98q42 -79 125.5 -131.5t192.5 -52.5q97 0 145 39t48 101q0 52 -28 76.5t-69 34.5t-82 17t-69 22t-28 50t27 51t68 16q27 0 49 -7t43 -17l11 -71l57 7l-10 104q-29 17 -69 29t-87 12q-60 0 -112 -29t-52 -100
q0 -52 28 -76t69.5 -34t83.5 -16.5t70 -22t28 -52.5q0 -40 -33 -58.5t-83 -18.5q-80 0 -151 44t-107 110l-49 85q69 18 104 67t35 114q0 78 -53 130.5t-173 52.5h-280v-64h81v-522h-81v-64zM311 586q84 0 120.5 -29.5t36.5 -93.5q0 -61 -35.5 -95.5t-119.5 -34.5h-118v253
h116z" />
    <glyph glyph-name="uni20A9" unicode="&#x20a9;" horiz-adv-x="887" 
d="M204 650h-216v267h911v-267h-214v-64h95l-44 -161h-187l-51 161h65v64h-225v-64h66l-52 -161h-193l-46 161h91v64zM6 292v-44h135l79 -248h60l79 248h179l82 -248h59l74 248h132v44h-119l26 88h93v45h-80l48 161h46v-799h-911v799h47l50 -161h-79v-45h93l28 -88h-121z
M445 520h5l30 -95h-65zM198 292l-25 88h164l-28 -88h-111zM592 292l-28 88h160l-23 -88h-109zM373 292l27 88h95l28 -88h-150zM649 116l-42 132h81l-35 -132h-4zM249 119l-37 129h83l-41 -129h-5z" />
    <glyph glyph-name="uni20AA" unicode="&#x20aa;" horiz-adv-x="776" 
d="M-12 917h800v-1130h-800v1130zM86 0h72v588h142q70 0 102 -15t40.5 -59t8.5 -132v-138h73v133q0 103 -15 162.5t-63 85t-146 25.5h-214v-650zM340 62v344h-72v-406h227q98 0 142.5 27.5t56.5 89t12 164.5v369h-73v-374q0 -78 -6 -125t-34.5 -68t-96.5 -21h-156z" />
    <glyph glyph-name="dong" unicode="&#x20ab;" horiz-adv-x="547" 
d="M-12 917h571v-1130h-571v1130zM369 137h135v49h-69v400h61v48h-61v54h-66v-54h-165v-48h165v-131q-40 73 -143 73q-99 0 -140.5 -62t-41.5 -141q0 -95 47.5 -146t127.5 -51q61 0 96 27t54 64v-82zM241 477q61 0 94.5 -32.5t33.5 -82.5v-49q0 -47 -35.5 -90t-98.5 -43
q-53 0 -87 36t-34 113q0 61 29 104.5t98 43.5zM72 0h388v52h-388v-52z" />
    <glyph glyph-name="Euro" unicode="&#x20ac;" horiz-adv-x="597" 
d="M-12 917h621v-1130h-621v1130zM35 297h59q-2 -8 -2 -19.5v-19.5v-20.5t2 -19.5h-59v-45h67q22 -82 84 -131.5t151 -49.5q57 0 104.5 14.5t78.5 35.5l16 119l-60 6l-19 -96q-24 -11 -52 -16t-55 -5q-132 0 -170 123h164v45h-174q-3 20 -3 42q0 8 0.5 18.5t1.5 18.5h200v46
h-191q17 59 60.5 94t109.5 35q67 0 106 -20l19 -97l60 6l-16 118q-63 50 -178 50q-91 0 -153 -52.5t-84 -133.5h-67v-46z" />
    <glyph glyph-name="uni20AD" unicode="&#x20ad;" horiz-adv-x="638" 
d="M-12 -213v1130h662v-1130h-662zM399 0h234v64h-73l-172 235h173v63h-183l169 225h74v64h-229v-64h77l-167 -225h-106v224h76v64h-232v-64h82v-224h-66v-63h66v-235h-82v-64h231v64h-75v235h108l172 -235h-77v-64z" />
    <glyph glyph-name="uni20AE" unicode="&#x20ae;" horiz-adv-x="568" 
d="M-12 -213v1130h592v-1130h-592zM116 193v-55l131 47v-121h-112v-64h300v64h-115v146l140 52v54l-140 -51v71l140 51v56l-140 -53v196h145l20 -139l65 5l-20 198h-492l-19 -198l64 -5l20 139h144v-220l-131 -48v-54l131 48v-71z" />
    <glyph glyph-name="uni20B1" unicode="&#x20b1;" horiz-adv-x="628" 
d="M-12 -213v1130h652v-1130h-652zM542 451q0 10 -2 26h62v45h-71q-18 56 -70.5 92t-144.5 36h-276v-64h82v-64h-85v-45h85v-62h-85v-45h85v-306h-82v-64h267v64h-112v178h127q74 0 129 32.5t77 95.5h74v45h-63q3 17 3 36zM310 586q102 0 136 -64h-251v64h115zM464 449
q0 -9 -1 -18t-2 -16h-266v62h267q2 -18 2 -28zM313 306h-118v64h248q-35 -64 -130 -64z" />
    <glyph glyph-name="uni20B4" unicode="&#x20b4;" horiz-adv-x="585" 
d="M-12 917h609v-1130h-609v1130zM38 371h268q-38 -17 -84 -31.5t-81 -38.5h-103v-39h62q-30 -39 -30 -99q0 -90 65 -131.5t161 -41.5q123 0 198 60l17 122l-63 7l-18 -94q-26 -17 -60.5 -23.5t-67.5 -6.5q-68 0 -111 26.5t-43 89.5q0 58 41 91h357v39h-282q40 17 88.5 32
t83.5 38h110v39h-68q26 36 26 87q0 89 -60 126t-140 37q-53 0 -112.5 -13.5t-93.5 -33.5l-9 -136l58 -6l13 99q33 15 68.5 20t63.5 5q59 0 96.5 -25t37.5 -80q0 -50 -39 -80h-349v-39z" />
    <glyph glyph-name="uni20B9" unicode="&#x20b9;" horiz-adv-x="529" 
d="M-12 917h553v-1130h-553v1130zM349 0h114v56h-66l-96 173q101 27 114 121h52v43h-51q-5 44 -34 73h98v55h-421v-56h159q110 0 122 -72h-281v-43h281q-6 -38 -35.5 -59.5t-90.5 -21.5h-155v-53h173z" />
    <glyph glyph-name="uni20BA" unicode="&#x20ba;" horiz-adv-x="595" 
d="M-12 917h619v-1130h-619v1130zM59 586h82v-195l-85 -36v-51l85 37v-75l-85 -36v-51l85 36v-151h-82v-64h222q153 0 219 93.5t66 240.5h-72q0 -127 -49 -198.5t-167 -71.5h-63v183l206 89v51l-206 -89v75l206 88v51l-206 -89v163h97v64h-253v-64z" />
    <glyph glyph-name="uni20BD" unicode="&#x20bd;" horiz-adv-x="588" 
d="M-12 917h612v-1130h-612v1130zM56 255h82v-65h-82v-52h82v-74h-82v-64h266v64h-111v74h254v52h-254v65h127q96 0 158 50t62 152q0 81 -52.5 137t-173.5 56h-276v-64h82v-268h-82v-63zM326 586q154 0 154 -132q0 -136 -152 -136h-117v268h115z" />
    <glyph glyph-name="uni2113" unicode="&#x2113;" horiz-adv-x="387" 
d="M-12 917h411v-1130h-411v1130zM56 191l49 32v-80q0 -153 123 -153q68 0 114 40l-15 51q-44 -31 -88 -31q-28 0 -45.5 21t-17.5 82v118q81 60 134 125.5t53 141.5q0 50 -27.5 86t-92.5 36q-73 0 -105.5 -47t-32.5 -122v-210l-73 -50zM176 478q0 54 9.5 87.5t51.5 33.5
q57 0 57 -70q0 -55 -30.5 -102t-87.5 -94v145z" />
    <glyph glyph-name="uni2116" unicode="&#x2116;" horiz-adv-x="977" 
d="M-12 -213v1130h1001v-1130h-1001zM617 375q0 -66 40 -107.5t108 -41.5q70 0 112 42.5t42 109.5q0 62 -37.5 106.5t-112.5 44.5q-76 0 -114 -45t-38 -109zM385 521v-56h82v-332h-4l-305 388h-122v-56h71v-409h-63v-56h215v56h-85v342h4l312 -398h44v465h67v56h-216z
M679 379q0 46 22.5 74.5t66.5 28.5q89 0 89 -103q0 -47 -23.5 -77t-66.5 -30q-44 0 -66 31t-22 76zM618 190v-50h303v50h-303z" />
    <glyph glyph-name="uni2117" unicode="&#x2117;" horiz-adv-x="620" 
d="M-12 917h644v-1130h-644v1130zM310 -7q111 0 189.5 77.5t78.5 189.5t-77 190.5t-190 78.5t-191 -78.5t-78 -190.5t78.5 -189.5t189.5 -77.5zM310 34q-98 0 -161.5 66t-63.5 160t63 160.5t163 66.5q99 0 161.5 -66.5t62.5 -160.5t-64.5 -160t-160.5 -66zM193 100h148v37
h-59v72h67q53 0 87 28.5t34 83.5q0 43 -30 74.5t-95 31.5h-152v-37h44v-253h-44v-37zM341 390q80 0 80 -71q0 -73 -79 -73h-60v144h59z" />
    <glyph glyph-name="uni2120" unicode="&#x2120;" horiz-adv-x="995" 
d="M-12 917h1019v-1130h-1019v1130zM215 222q62 0 104 32.5t42 94.5q0 49 -24 73.5t-58 35t-63 17.5q-35 8 -63 20.5t-28 49.5q0 32 23.5 48t60.5 16q40 0 78 -19l8 -63l46 5l-5 89q-21 17 -59.5 27t-75.5 10q-55 0 -97.5 -29t-42.5 -90q0 -64 43.5 -83t88.5 -28
q42 -9 73 -25.5t31 -57.5q0 -73 -89 -73q-57 0 -98 21l3 56l-47 4l-9 -88q23 -17 69 -30t89 -13zM399 602h55v-327h-52v-48h159v48h-50v253h3l142 -277h30l138 274h3v-250h-49v-48h161v48h-53v327h56v48h-108l-159 -319h-3l-165 319h-108v-48z" />
    <glyph glyph-name="trademark" unicode="&#x2122;" horiz-adv-x="1062" 
d="M-12 917h1086v-1130h-1086v1130zM1009 602v48h-109l-158 -319h-3l-166 319h-108v-48h57v-327h-53v-48h159v48h-50v253h3l142 -277h30l137 274h3v-250h-48v-48h160v48h-52v327h56zM451 514l-10 136h-381l-10 -136l50 -2l11 90h111v-327h-74v-48h208v48h-75v327h110l10 -90
z" />
    <glyph glyph-name="Omega" unicode="&#x2126;" horiz-adv-x="711" 
d="M-12 917h735v-1130h-735v1130zM356 594q108 0 169.5 -59t61.5 -172q0 -77 -33 -138t-130 -60v-165h241v61h-182v58q93 5 137.5 79.5t44.5 168.5q0 103 -45 167.5t-116 95t-148 30.5q-78 0 -149 -31t-116.5 -95.5t-45.5 -166.5q0 -105 51.5 -174t136.5 -74v-58h-188v-61
h251v165q-92 1 -132 55t-40 142q0 115 62.5 173.5t169.5 58.5z" />
    <glyph glyph-name="estimated" unicode="&#x212e;" horiz-adv-x="608" 
d="M-12 917h632v-1130h-632v1130zM578 235v7q0 106 -76.5 180t-192.5 74t-191.5 -74t-75.5 -180t75.5 -180t191.5 -74q68 0 119.5 28t89.5 71h-24q-32 -38 -80.5 -61t-104.5 -23q-51 0 -92 23t-65 52q-6 8 -6 17v137q0 3 4 3h428zM473 255q0 -4 -1 -4h-322q-4 0 -4 4v133
q0 8 7 19q17 25 61.5 49.5t94.5 24.5t94.5 -22.5t64.5 -48.5q5 -5 5 -18v-137z" />
    <glyph glyph-name="onethird" unicode="&#x2153;" horiz-adv-x="740" 
d="M-12 917h764v-1130h-764v1130zM500 650l-175 -313l-197 -337h53l182 325l190 325h-53zM39 605h75v-274h-75v-45h205v45h-72v319h-133v-45zM497 258l11 50q28 16 60 16q63 0 63 -52q0 -60 -90 -64v-38q59 -2 82 -18.5t23 -44.5q0 -29 -21 -48.5t-59 -19.5
q-39 0 -58.5 19.5t-24.5 43.5l-42 -12q6 -45 39.5 -71t84.5 -26q59 0 101.5 27t42.5 81q0 31 -19.5 57t-70.5 34v2q41 12 57.5 35.5t16.5 50.5q0 40 -30.5 64.5t-81.5 24.5q-29 0 -63 -8.5t-57 -28.5l-10 -69z" />
    <glyph glyph-name="twothirds" unicode="&#x2154;" horiz-adv-x="791" 
d="M-12 917h815v-1130h-815v1130zM89 542l13 56q26 17 58 17q38 0 54 -16.5t16 -40.5q0 -38 -31 -77t-76 -77t-87 -73l5 -41h272l10 94l-47 5l-10 -54h-156q26 21 69.5 56t79 79.5t35.5 92.5q0 37 -28 67t-92 30q-32 0 -64.5 -9t-54.5 -28l-11 -76zM561 650l-175 -313
l-197 -337h53l183 325l189 325h-53zM548 258l11 50q28 16 60 16q64 0 64 -52q0 -60 -90 -64v-38q58 -2 81 -18.5t23 -44.5q0 -29 -20.5 -48.5t-58.5 -19.5q-39 0 -58.5 19.5t-25.5 43.5l-42 -12q6 -45 39.5 -71t84.5 -26q58 0 101 27t43 81q0 31 -19.5 57t-70.5 34v2
q40 12 57 35.5t17 50.5q0 40 -30.5 64.5t-80.5 24.5q-29 0 -63.5 -8.5t-56.5 -28.5l-10 -69z" />
    <glyph glyph-name="uni215B" unicode="&#x215b;" horiz-adv-x="732" 
d="M-12 917h756v-1130h-756v1130zM509 650l-175 -313l-197 -337h53l183 325l189 325h-53zM39 605h75v-274h-75v-45h205v45h-72v319h-133v-45zM558 -6q62 0 103 26.5t41 73.5q0 40 -28.5 63t-64.5 39q32 13 55.5 31.5t23.5 52.5q0 40 -35.5 65t-90.5 25q-58 0 -94 -26.5
t-36 -69.5q0 -34 24 -55t56 -36q-34 -13 -61.5 -33.5t-27.5 -60.5q0 -47 38.5 -71t96.5 -24zM496 280q0 47 66 47q26 0 46.5 -12.5t20.5 -41.5q0 -24 -16.5 -37.5t-38.5 -23.5q-32 14 -55 28t-23 40zM561 37q-79 0 -79 62q0 27 19 42t44 27q37 -15 65 -31.5t28 -46.5
q0 -24 -22 -38.5t-55 -14.5z" />
    <glyph glyph-name="arrowleft" unicode="&#x2190;" horiz-adv-x="751" 
d="M-12 917h775v-636h-596l147 130v65l-273 -213v-25l274 -209v65l-149 127h597v-434h-775v1130z" />
    <glyph glyph-name="arrowup" unicode="&#x2191;" horiz-adv-x="528" 
d="M-12 917h552v-1130h-552v1130zM279 701h-25l-213 -273h65l129 145v-594h61v597l127 -149h65z" />
    <glyph glyph-name="arrowright" unicode="&#x2192;" horiz-adv-x="752" 
d="M-12 917h776v-1130h-776v434h597l-149 -127v-65l275 209v25l-274 213v-65l148 -130h-597v636z" />
    <glyph glyph-name="arrowdown" unicode="&#x2193;" horiz-adv-x="528" 
d="M-12 917h552v-1130h-552v1130zM488 253h-65l-128 -147v595h-62v-596l-127 148h-65l210 -274h26z" />
    <glyph glyph-name="uni2196" unicode="&#x2196;" 
d="M-12 917h646v-1130h-646v1130zM59 590l-18 -17l42 -344l47 45l-12 195l421 -420l43 43l-421 421l194 -15l46 46z" />
    <glyph glyph-name="uni2197" unicode="&#x2197;" 
d="M-12 917h646v-1130h-646v1130zM222 544l47 -46l193 15l-421 -421l44 -43l421 420l-14 -195l47 -45l43 344l-18 17z" />
    <glyph glyph-name="uni2198" unicode="&#x2198;" 
d="M-12 917h646v-1130h-646v1130zM564 49l18 17l-43 345l-47 -46l14 -196l-421 421l-44 -43l421 -421l-193 16l-47 -47z" />
    <glyph glyph-name="uni2199" unicode="&#x2199;" 
d="M-12 917h646v-1130h-646v1130zM401 95l-46 47l-194 -16l421 421l-43 43l-421 -421l12 196l-47 46l-42 -345l18 -17z" />
    <glyph glyph-name="partialdiff" unicode="&#x2202;" horiz-adv-x="476" 
d="M-12 917h500v-1130h-500v1130zM88 321q0 -49 28 -88l-95 -95l30 -31l96 95q40 -32 92 -32t91 31l95 -94l31 31l-95 95q29 39 29 88q0 47 -29 87l95 94l-31 30l-94 -93q-41 33 -92 33q-53 0 -94 -33l-94 93l-30 -30l95 -94q-28 -39 -28 -87zM149 321q0 43 27 68.5t64 25.5
t62.5 -26t25.5 -68t-25.5 -68t-62.5 -26q-38 0 -64.5 26t-26.5 68z" />
    <glyph glyph-name="Delta" unicode="&#x2206;" horiz-adv-x="538" 
d="M-12 917h562v-1130h-562v1130zM23 0h491l-240 661zM105 57l168 449l160 -449h-328z" />
    <glyph glyph-name="product" unicode="&#x220f;" horiz-adv-x="677" 
d="M-12 917h701v-1130h-701v1130zM194 586h289v-522h-82v-64h236v64h-82v522h82v64h-598v-64h82v-522h-82v-64h237v64h-82v522z" />
    <glyph glyph-name="summation" unicode="&#x2211;" horiz-adv-x="560" 
d="M-12 917h584v-1130h-584v1130zM30 -140h494v63h-411l242 321v22l-242 321h411v63h-494v-63l252 -334l-252 -330v-63z" />
    <glyph glyph-name="minus" unicode="&#x2212;" horiz-adv-x="465" 
d="M-12 917h489v-1130h-489v1130zM59 254h347v54h-347v-54z" />
    <glyph glyph-name="radical" unicode="&#x221a;" horiz-adv-x="578" 
d="M-12 917h602v-1130h-602v1130zM268 0h51l257 697h-59l-219 -602l-126 346h-154v-56h110z" />
    <glyph glyph-name="infinity" unicode="&#x221e;" horiz-adv-x="723" 
d="M-12 917h747v-1130h-747v1130zM523 79q67 0 112 50.5t45 127.5q0 73 -41 124t-109 51q-62 0 -100.5 -43.5t-68.5 -96.5q-28 53 -63.5 96.5t-96.5 43.5q-66 0 -112 -51t-46 -127q0 -71 43 -123t112 -52q61 0 97.5 41t64.5 93q28 -52 65 -93t98 -41zM514 133
q-47 0 -77.5 36.5t-55.5 82.5q27 50 58.5 87.5t82.5 37.5q48 0 72 -35.5t24 -84.5q0 -59 -30 -91.5t-74 -32.5zM203 133q-46 0 -73 34.5t-27 86.5q0 53 29.5 88t73.5 35q48 0 78 -37.5t56 -86.5q-27 -48 -58.5 -84t-78.5 -36z" />
    <glyph glyph-name="integral" unicode="&#x222b;" horiz-adv-x="371" 
d="M-12 917h395v-1130h-395v1130zM3 -140h37q92 0 131.5 49t39.5 145v438q0 77 23 106.5t80 29.5h55v61h-47q-98 0 -135.5 -49t-37.5 -145v-436q0 -77 -22 -108t-82 -31h-42v-60z" />
    <glyph glyph-name="approxequal" unicode="&#x2248;" horiz-adv-x="625" 
d="M-12 917h649v-1130h-649v1130zM424 318q88 0 152 113l-46 29q-28 -46 -51 -61.5t-55 -15.5q-43 0 -77.5 18.5t-69 36.5t-77.5 18q-40 0 -78 -24.5t-67 -78.5l42 -28q25 41 50 53t50 12q42 0 76 -18t69.5 -36t81.5 -18zM424 118q88 0 152 112l-46 31q-28 -46 -51 -62
t-55 -16q-43 0 -77.5 18l-69 36t-77.5 18q-40 0 -78 -24t-67 -78l42 -28q25 40 50 52.5t50 12.5q42 0 76 -18t69.5 -36t81.5 -18z" />
    <glyph glyph-name="notequal" unicode="&#x2260;" horiz-adv-x="571" 
d="M-12 917h595v-1130h-595v1130zM56 364h258l-125 -168h-133v-52h96l-56 -76h71l55 76h291v52h-255l122 168h133v54h-95l54 74h-65l-55 -74h-296v-54z" />
    <glyph glyph-name="lessequal" unicode="&#x2264;" horiz-adv-x="424" 
d="M-12 917h448v-1130h-448v1130zM363 100v65l-237 146l236 147v65l-318 -199v-30zM44 0h319v53h-319v-53z" />
    <glyph glyph-name="greaterequal" unicode="&#x2265;" horiz-adv-x="424" 
d="M436 917v-1130h-448v1130h448zM61 100l319 194v30l-318 199v-65l236 -147l-237 -146v-65zM380 0v53h-319v-53h319z" />
    <glyph glyph-name="uni24CA" unicode="&#x24ca;" horiz-adv-x="620" 
d="M-12 917h644v-1130h-644v1130zM310 -7q111 0 189.5 77.5t78.5 189.5t-77 190.5t-190 78.5t-191 -78.5t-78 -190.5t78.5 -189.5t189.5 -77.5zM310 34q-98 0 -161.5 66t-63.5 160t63 160.5t163 66.5q99 0 161.5 -66.5t62.5 -160.5t-64.5 -160t-160.5 -66zM151 365h35v-136
q0 -53 24.5 -94t100.5 -41q78 0 103.5 44t25.5 97v130h33v36h-121v-36h47v-130q0 -105 -86 -105q-47 0 -65.5 27t-18.5 74v134h46v36h-124v-36z" />
    <glyph glyph-name="uni24EA" unicode="&#x24ea;" horiz-adv-x="0" 
 />
    <glyph glyph-name="uni24FF" unicode="&#x24ff;" horiz-adv-x="0" 
 />
    <glyph glyph-name="uni25B2" unicode="&#x25b2;" horiz-adv-x="646" 
d="M-12 917h670v-1130h-670v1130zM610 23l-287 458l-287 -458h574z" />
    <glyph glyph-name="uni25B6" unicode="&#x25b6;" horiz-adv-x="587" 
d="M-12 917h611v-1130h-611v1130zM92 -35l459 287l-459 288v-575z" />
    <glyph glyph-name="uni25B8" unicode="&#x25b8;" horiz-adv-x="414" 
d="M-12 917h438v-1130h-438v1130zM379 234l-287 288v-575z" />
    <glyph glyph-name="uni25BA" unicode="&#x25ba;" horiz-adv-x="901" 
d="M-12 917h925v-1130h-925v1130zM862 234l-774 288v-575z" />
    <glyph glyph-name="uni25BC" unicode="&#x25bc;" horiz-adv-x="646" 
d="M-12 917h670v-1130h-670v1130zM36 480l287 -458l287 458h-574z" />
    <glyph glyph-name="uni25C0" unicode="&#x25c0;" horiz-adv-x="587" 
d="M-12 917h611v-1130h-611v1130zM495 -35v575l-459 -288z" />
    <glyph glyph-name="uni25C2" unicode="&#x25c2;" horiz-adv-x="414" 
d="M-12 917h438v-1130h-438v1130zM322 -53v575l-286 -287z" />
    <glyph glyph-name="uni25C4" unicode="&#x25c4;" horiz-adv-x="903" 
d="M-12 917h927v-1130h-927v1130zM812 -53v575l-774 -289z" />
    <glyph glyph-name="lozenge" unicode="&#x25ca;" horiz-adv-x="591" 
d="M-12 917h615v-1130h-615v1130zM296 -11l267 331l-267 340l-268 -340zM296 72l-199 248l199 251l198 -251z" />
    <glyph glyph-name="uni2610" unicode="&#x2610;" horiz-adv-x="876" 
d="M-12 917h900v-1130h-900v1130zM99 0h677v651h-677v-651zM158 592h560v-534h-560v534z" />
    <glyph glyph-name="uni2611" unicode="&#x2611;" horiz-adv-x="876" 
d="M-12 917h900v-1130h-900v1130zM99 0h677v651h-677v-651zM158 592h560v-534h-560v534zM300 319l-77 -69l162 -141l286 397l-86 51l-199 -384z" />
    <glyph glyph-name="uni261A" unicode="&#x261a;" horiz-adv-x="924" 
d="M-12 917h948v-1130h-948v1130zM873 394h-154q-1 -12 -2.5 -24t-2.5 -23q-70 40 -138.5 66t-148.5 26q-32 0 -62 -14.5t-78 -19.5q-12 -17 -12.5 -32t1.5 -19h-168q-32 0 -45.5 -15.5t-13.5 -36.5q0 -18 12.5 -34.5t46.5 -16.5l132 -1q-6 -10 -6 -21q0 -22 21 -40
q-11 -11 -11 -28q0 -23 22 -40q-15 -15 -15 -31q0 -29 20.5 -37.5t48.5 -8.5h31t25 2l40 -5t74 -5q28 0 75 8t150 48q1 -13 2 -25.5t2 -24.5h154v352z" />
    <glyph glyph-name="uni261B" unicode="&#x261b;" horiz-adv-x="924" 
d="M-12 917h948v-1130h-948v1130zM80 42h154l4 50q103 -40 149.5 -48t75.5 -8q34 0 74 5l40 5q9 -2 25 -2h31q29 0 49 8.5t20 37.5q0 16 -15 31q22 17 22 40q0 17 -11 28q21 18 21 40q0 11 -6 21l132 1q34 0 46.5 16.5t12.5 34.5q0 21 -14 36.5t-45 15.5h-168q1 4 1 19
t-12 32q-48 5 -78 19.5t-62 14.5q-81 0 -149.5 -26t-138.5 -66l-4 47h-154v-352z" />
    <glyph glyph-name="uni261C" unicode="&#x261c;" horiz-adv-x="924" 
d="M-12 917h948v-1130h-948v1130zM842 394h-154q-2 -10 -2.5 -21t-1.5 -22q-54 35 -123 65.5t-149 30.5q-35 0 -71.5 -6.5t-74.5 -21.5l-7 -16t-7 -30q0 -10 3 -19h-148q-31 0 -45 -15.5t-14 -36.5q0 -18 12.5 -34.5t46.5 -16.5l102 -1q-6 -10 -6 -21q0 -22 21 -40
q-11 -11 -11 -28q0 -23 22 -40q-15 -15 -15 -31q0 -29 20 -37.5t49 -8.5h31t25 2l40 -5t74 -5q29 0 75.5 8t149.5 48q1 -13 1.5 -25.5t2.5 -24.5h154v352zM682 131q-103 -41 -150.5 -50t-72.5 -9q-35 0 -41 1l-6 1q4 9 4 22q0 6 -2 14.5l-2 8.5q17 20 17 41q0 11 -5 23.5
l-5 12.5q4 6 7 14t3 20q0 28 -27 55l-298 2q-23 0 -23 15q0 16 23 16h318q12 -24 33 -47t39 -40q15 13 15 31q-26 26 -36.5 47.5t-26.5 57.5q-5 3 -15 7.5t-33 4.5q-15 0 -38 -3t-56 -12q-19 0 -19 9q0 4 0.5 8.5l0.5 4.5q28 16 57 22.5t58 6.5q73 0 145.5 -34.5
t134.5 -70.5q-1 -19 -1.5 -37.5t-0.5 -37.5q0 -53 3 -104zM389 248q3 -4 3.5 -20t0.5 -21l-152 4q-3 0 -4.5 8.5t-1.5 9.5q0 5 3 12l3 7h148zM391 180q1 -1 1.5 -10t0.5 -14v-17l-142 4q-7 4 -7 18q0 5 3.5 12l3.5 7h140zM377 112q1 -2 1 -9v-8q0 -12 -2 -16h-23
q-7 0 -15.5 -0.5t-17.5 -0.5q-8 -1 -16 -1h-15q-36 0 -36 15q0 2 3 11l3 9h118z" />
    <glyph glyph-name="uni261D" unicode="&#x261d;" horiz-adv-x="529" 
d="M-12 917h553v-1130h-553v1130zM70 -98h352v154l-43 4q35 53 65.5 122.5t30.5 149.5q0 35 -6.5 71.5t-21.5 74.5l-16 7t-30 7q-10 0 -19 -3v148q0 31 -15.5 45t-36.5 14q-18 0 -34.5 -12.5t-16.5 -46.5l-1 -102q-10 6 -21 6q-22 0 -40 -21q-11 11 -28 11q-23 0 -40 -22
q-15 15 -31 15q-29 0 -37.5 -20t-8.5 -49v-31t2 -25l-5 -40t-5 -74q0 -29 8 -75.5t48 -149.5l-50 -4v-154zM100 285q0 35 1 41l1 6q9 -4 22 -4q6 0 14.5 2l8.5 2q20 -17 41 -17q11 0 23.5 5l12.5 5q6 -4 14 -7t20 -3q28 0 55 27l2 298q0 23 15 23q16 0 16 -23v-318
q-24 -12 -47 -33t-40 -39q13 -15 31 -15q26 26 47.5 36.5t57.5 26.5q3 5 7.5 15t4.5 33q0 15 -3 38t-12 56q0 19 9 19q4 0 8.5 -0.5l4.5 -0.5q16 -28 22.5 -57t6.5 -58q0 -73 -34.5 -146t-70.5 -135q-22 1 -45 1.5t-45 0.5t-44.5 -0.5t-44.5 -1.5q-41 103 -50 150t-9 73z
M276 355q-4 -3 -20 -3.5t-21 -0.5l4 152q0 3 8.5 4.5t9.5 1.5q5 0 12 -3l7 -3v-148zM208 353q-1 -1 -10 -1.5t-14 -0.5h-17l4 142q4 7 18 7q5 0 12 -3.5l7 -3.5v-140zM140 367q-2 -1 -9 -1h-8q-12 0 -16 2v23q0 7 -0.5 15.5t-0.5 17.5q-1 8 -1 16v15q0 36 15 36q2 0 11 -3
l9 -3v-118z" />
    <glyph glyph-name="uni261E" unicode="&#x261e;" horiz-adv-x="924" 
d="M-12 917h948v-1130h-948v1130zM81 42h154l4 50q103 -40 149.5 -48t75.5 -8q34 0 74 5l40 5q9 -2 25 -2h31q28 0 48.5 8.5t20.5 37.5q0 16 -15 31q22 17 22 40q0 17 -11 28q21 18 21 40q0 11 -6 21l102 1q34 0 46.5 16.5t12.5 34.5q0 21 -13.5 36.5t-45.5 15.5h-148
q3 9 3 19q0 14 -7 30l-7 16q-37 15 -74 21.5t-72 6.5q-80 0 -149 -30.5t-123 -65.5l-4 43h-154v-352zM522 415q29 0 58 -6.5t57 -22.5l0.5 -4.5t0.5 -8.5q0 -9 -19 -9q-33 9 -56 12t-38 3q-23 0 -33 -4.5t-15 -7.5q-16 -36 -26.5 -57.5t-36.5 -47.5q0 -18 15 -31
q18 17 39 40t33 47h318q23 0 23 -16q0 -15 -23 -15l-298 -2q-27 -27 -27 -55q0 -12 3 -20t7 -14l-5 -12.5t-5 -23.5q0 -21 17 -41l-2 -8.5t-2 -14.5q0 -13 4 -22l-6.5 -1t-40.5 -1q-26 0 -73.5 9t-149.5 50q1 22 1.5 44.5t0.5 44.5t-0.5 45t-1.5 45q62 36 134.5 70.5
t146.5 34.5zM682 248l3 -7t3 -12q0 -1 -1.5 -9.5t-4.5 -8.5l-152 -4q0 5 0.5 21t3.5 20h148zM672 180l3.5 -7t3.5 -12q0 -14 -7 -18l-142 -4v17q0 5 0.5 14t1.5 10h140zM664 112l3 -9t3 -11q0 -15 -36 -15h-16t-15 1q-9 0 -17.5 0.5t-15.5 0.5h-23q-2 4 -2 16v8t1 9h118z
" />
    <glyph glyph-name="uni261F" unicode="&#x261f;" horiz-adv-x="529" 
d="M-12 917h553v-1130h-553v1130zM70 696v-154q12 -2 24.5 -2.5t25.5 -1.5q-40 -103 -48 -149.5t-8 -75.5q0 -34 5 -74l5 -40q-2 -9 -2 -25v-31q0 -29 8.5 -49t37.5 -20q16 0 31 15q17 -22 40 -22q17 0 28 11q18 -21 40 -21q11 0 21 6l1 -102q0 -34 16.5 -46.5t34.5 -12.5
q21 0 36.5 14t15.5 45v148q9 -3 19 -3q14 0 30 7l16 7q15 38 21.5 74.5t6.5 71.5q0 80 -30.5 149t-65.5 123q11 1 22 1.5t21 2.5v154h-352zM338 535q36 -62 70.5 -134.5t34.5 -145.5q0 -29 -6.5 -58t-22.5 -57l-4.5 -0.5t-8.5 -0.5q-9 0 -9 19q9 33 12 56t3 38q0 23 -4.5 33
t-7.5 15q-36 16 -57.5 26.5t-47.5 36.5q-18 0 -31 -15q17 -18 40 -39t47 -33v-318q0 -23 -16 -23q-15 0 -15 23l-2 298q-27 27 -55 27q-12 0 -20 -3t-14 -7l-12.5 5t-23.5 5q-21 0 -41 -17l-8.5 2t-14.5 2q-13 0 -22 -4l-1 6t-1 41q0 25 9 72.5t50 150.5q51 -3 104 -3
q19 0 37.5 0.5t37.5 1.5zM276 95l-7 -3t-12 -3q-1 0 -9.5 1.5t-8.5 4.5l-4 152q5 0 21 -0.5t20 -3.5v-148zM208 105l-7 -3.5t-12 -3.5q-14 0 -18 7l-4 142h17q5 0 14 -0.5t10 -1.5v-140zM140 113l-9 -3t-11 -3q-15 0 -15 36v15t1 16q0 9 0.5 17.5t0.5 15.5v23q4 2 16 2h8
t9 -1v-118z" />
    <glyph glyph-name="uni267E" unicode="&#x267e;" horiz-adv-x="620" 
d="M-12 917h644v-1130h-644v1130zM310 -7q111 0 189.5 77.5t78.5 190.5q0 111 -77 189.5t-190 78.5t-191 -78.5t-78 -190.5t78.5 -189.5t189.5 -77.5zM310 34q-98 0 -161.5 66t-63.5 160t63 160.5t163 66.5q99 0 161.5 -66t62.5 -160q0 -95 -64.5 -161t-160.5 -66zM408 156
q39 0 65 28.5t26 80.5q0 49 -24.5 78t-61.5 29q-38 0 -60.5 -25t-40.5 -57q-16 32 -37.5 57t-57.5 25q-37 0 -64.5 -29t-27.5 -80q0 -49 25.5 -78t65.5 -29q38 0 59 23.5t37 52.5q16 -29 37 -52.5t59 -23.5zM410 336q54 0 54 -71q0 -37 -17.5 -55.5t-40.5 -18.5
q-29 0 -47.5 20.5t-31.5 48.5q14 28 32.5 52t50.5 24zM217 191q-57 0 -57 73q0 37 17.5 54.5t40.5 17.5q29 0 46 -23t33 -52q-16 -28 -33.5 -49t-46.5 -21z" />
    <glyph glyph-name="uni2713" unicode="&#x2713;" horiz-adv-x="638" 
d="M-12 917h662v-1130h-662v1130zM180 339l-83 -76l175 -152l310 428l-94 57l-215 -415z" />
    <glyph glyph-name="uni301A" unicode="&#x301a;" horiz-adv-x="447" 
d="M-12 917h471v-1130h-471v1130zM82 -206h336v52h-114v852h114v52h-336v-956zM145 698h97v-852h-97v852z" />
    <glyph glyph-name="uni301B" unicode="&#x301b;" horiz-adv-x="447" 
d="M459 917v-1130h-471v1130h471zM365 -206v956h-336v-52h114v-852h-114v-52h336zM302 698v-852h-97v852h97z" />
    <glyph glyph-name="uniF8FF" unicode="&#xf8ff;" horiz-adv-x="1017" 
d="M559 338h-11v39h-19v-39h-11v70h11v-20h20v-10h10v-40zM499 338h-21v9h-10v30h-10v11h10v10h11v-10h20v-11h-20v-29h20v-10zM259 338h-21v9h-10v30h-10v11h10v10h11v-10h20v-11h-20v-29h20v-10zM889 387h-10v-10h-11v11h10v10h11v-11zM839 377h-11v10h-10v11h11v-10h10
v-11zM149 377h-11v10h-10v11h11v-10h10v-11zM199 387h-10v-10h-11v11h10v10h11v-11zM319 347h-10v-9h-10v-10h-10v-10h-11v11h10v18h-10v41h11v-40h19v40h11v-41zM379 347h-10v-9h-20v-20h-11v70h31v-10h10v-31zM439 347h-10v-9h-21v9h-10v31h10v10h21v-10h10v-31zM619 338
h-31v9h-10v31h10v10h21v-10h10v-21h-30v-9h30v-10zM679 318h-11v20h-20v9h-10v31h10v10h31v-70zM739 338h-31v9h-10v41h11v-40h19v40h11v-50zM799 338h-31v9h-10v31h10v10h21v-10h10v-21h-30v-9h30v-10zM99 377h-11v11h11v-11zM59 377h-11v11h11v-11zM929 377h-11v11h11v-11
zM969 377h-11v11h11v-11zM179 357h-10v-10h-11v10h-10v11h10v10h11v-10h10v-11zM89 357h-10v-10h-11v10h-10v11h10v10h11v-10h10v-11zM19 357h-10v-10h-11v10h-10v11h10v10h11v-10h10v-11zM869 357h-10v-10h-11v10h-10v11h10v10h11v-10h10v-11zM1029 357h-10v-10h-11v10h-10
v11h10v10h11v-10h10v-11zM959 357h-10v-10h-11v10h-10v11h10v10h11v-10h10v-11zM368 348v29h-19v-29h19zM428 348v29h-19v-29h19zM608 368v9h-19v-9h19zM668 348v29h-19v-29h19zM788 368v9h-19v-9h19zM99 338h-11v10h11v-10zM969 338h-11v10h11v-10zM59 338h-11v10h11v-10z
M929 338h-11v10h11v-10zM149 338h-10v-10h-11v10h10v10h11v-10zM889 328h-11v10h-10v10h11v-10h10v-10zM199 328h-11v10h-10v10h11v-10h10v-10zM839 338h-10v-10h-11v10h10v10h11v-10z" />
    <glyph glyph-name="space.black" horiz-adv-x="528" 
d="M-12 675v27h27v-27h-27zM63 675v27h27v-27h-27zM138 675v27h27v-27h-27zM213 675v27h27v-27h-27zM288 675v27h27v-27h-27zM363 675v27h27v-27h-27zM438 675v27h27v-27h-27zM513 675v27h27v-27h-27zM513 600v27h27v-27h-27zM-12 600v27h27v-27h-27zM363 525v27h27v-27h-27
zM513 525v27h27v-27h-27zM138 525v27h27v-27h-27zM213 525v27h27v-27h-27zM288 525v27h27v-27h-27zM-12 525v27h27v-27h-27zM363 450v27h27v-27h-27zM513 450v27h27v-27h-27zM-12 450v27h27v-27h-27zM213 375v27h27v-27h-27zM513 375v27h27v-27h-27zM363 375v27h27v-27h-27z
M288 375v27h27v-27h-27zM-12 375v27h27v-27h-27zM513 300v27h27v-27h-27zM213 300v27h27v-27h-27zM-12 300v27h27v-27h-27zM513 225v27h27v-27h-27zM-12 225v27h27v-27h-27zM513 150v27h27v-27h-27zM213 150v27h27v-27h-27zM-12 150v27h27v-27h-27zM513 75v27h27v-27h-27z
M-12 75v27h27v-27h-27zM138 0v27h27v-27h-27zM63 0v27h27v-27h-27zM-12 0v27h27v-27h-27zM213 0v27h27v-27h-27zM288 0v27h27v-27h-27zM513 0v27h27v-27h-27zM363 0v27h27v-27h-27zM438 0v27h27v-27h-27z" />
    <glyph glyph-name="CR" horiz-adv-x="187" 
 />
    <glyph glyph-name="uni0030.zero" horiz-adv-x="571" 
d="M-12 917h595v-1130h-595v1130zM527 259q0 115 -58 193.5t-181 78.5q-120 0 -181.5 -78.5t-61.5 -196.5q0 -121 60.5 -193.5t178.5 -72.5q117 0 180 72.5t63 196.5zM450 262q0 -207 -164 -207q-81 0 -122 54t-41 152t40.5 151.5t123.5 53.5q84 0 123.5 -55t39.5 -149z
M318 212v111h-63v-111h63z" />
    <glyph glyph-name="Iacute_Jacute" horiz-adv-x="775" 
d="M-12 -213v1130h799v-1130h-799zM84 703l198 42l-17 68l-191 -73zM535 703l197 42l-17 68l-191 -73zM668 586h72v64h-274v-64h129v-420q0 -49 -24 -78t-77 -29q-33 0 -57.5 14.5t-45.5 55.5l-53 -40q21 -44 59.5 -71.5t103.5 -27.5q78 0 122.5 44t44.5 132v420zM40 0h237
v64h-81v522h81v64h-237v-64h82v-522h-82v-64z" />
    <glyph glyph-name="iacute_jacute" horiz-adv-x="526" 
d="M-12 -213v1130h550v-1130h-244q70 2 115 48t45 161v449h-169v-57h99v-392q0 -72 -18 -104.5t-45 -41t-54 -8.5v-55h-279zM67 520l173 104l-40 59l-154 -132zM323 520l173 104l-40 59l-154 -132zM32 0h226v57h-78v388h-150v-57h80v-331h-78v-57z" />
    <glyph glyph-name="uni0069.locl" horiz-adv-x="277" 
d="M-12 -213v1130h301v-1130h-301zM103 651v-91h76v91h-76zM32 0h226v57h-78v388h-150v-57h80v-331h-78v-57z" />
    <glyph glyph-name="questiondown.lnum" horiz-adv-x="444" 
d="M456 -213h-468v1130h468v-1130zM279 655h-90v-97h90v97zM340 195l-14 -96q-44 -39 -108 -39q-55 0 -83 23t-28 57q0 40 30.5 67.5t70 52t70 54.5t30.5 75q0 38 -29.5 63.5t-98.5 20.5v-49q53 0 53 -41q0 -33 -31 -58t-71 -50.5t-71 -59.5t-31 -85q0 -63 54 -99t131 -36
q50 0 97.5 22t77.5 53l9 120z" />
    <glyph glyph-name="question.aalt" horiz-adv-x="387" 
d="M-12 917h411v-1130h-411v1130zM99 355l13 93q35 25 81 25q43 0 66 -18t23 -45q0 -31 -25 -52t-58 -40t-58 -42t-25 -59q0 -33 27 -54t89 -16v44q-43 0 -43 31q0 25 25.5 44.5t59 39.5t59 47t25.5 67q0 51 -42.5 80t-106.5 29q-48 0 -87.5 -18t-68.5 -43l-7 -109zM143 0
h86v92h-86v-92z" />
    <glyph glyph-name="questiondown.c2sc" horiz-adv-x="387" 
d="M399 -213h-411v1130h411v-1130zM244 524h-86v-92h86v92zM288 169l-13 -93q-35 -25 -81 -25q-44 0 -66.5 18t-22.5 45q0 31 25 52t58 40t58 42t25 59q0 33 -27.5 54t-88.5 16v-44q43 0 43 -31q0 -25 -25.5 -44.5t-59 -39.5t-59 -47t-25.5 -67q0 -51 42.5 -80t106.5 -29
q48 0 87.5 18t67.5 43l8 109z" />
    <glyph glyph-name="exclamdown.lnum" horiz-adv-x="235" 
d="M-12 917h259v-1130h-259v1130zM70 560h90v97h-90v-97zM159 1l-15 458h-53l-15 -458h83z" />
    <glyph glyph-name="exclam.aalt" horiz-adv-x="230" 
d="M-12 917h254v-1130h-254v1130zM155 521h-80l15 -364h50zM75 0h86v92h-86v-92z" />
    <glyph glyph-name="exclamdown.c2sc" horiz-adv-x="230" 
d="M-12 917h254v-1130h-254v1130zM75 429h86v93h-86v-93zM155 1l-15 364h-50l-15 -364h80z" />
    <glyph glyph-name="uni203D.smcp" horiz-adv-x="556" 
d="M-12 917h580v-1130h-580v1130zM264 391l26 67q28 10 51 10q29 0 69 -17t40 -60q0 -36 -31.5 -56.5t-73 -38.5t-74.5 -46.5t-35 -80.5l47 -14q6 47 43.5 73t84 45.5t81.5 46t35 75.5q0 59 -52 93t-124 34q-35 0 -63.5 -9t-50.5 -22l-24 -85zM217 167l-118 349l-72 -29
l145 -339zM190 0h86v92h-86v-92z" />
    <glyph glyph-name="hyphen.lnum" horiz-adv-x="345" 
d="M-12 -213v1130h369v-1130h-369zM56 369v-62h231v62h-231z" />
    <glyph glyph-name="endash.aalt" horiz-adv-x="619" 
d="M-12 917h643v-1130h-643v1130zM58 316h502v51h-502v-51z" />
    <glyph glyph-name="emdash.aalt" horiz-adv-x="1075" 
d="M-12 917h1099v-1130h-1099v1130zM69 316h940v51h-940v-51z" />
    <glyph glyph-name="slash.c2sc" horiz-adv-x="307" 
d="M-12 917h331v-1130h-331v1130zM209 521l-175 -521h64l175 521h-64z" />
    <glyph glyph-name="backslash.aalt" horiz-adv-x="307" 
d="M319 917v-1130h-331v1130h331zM98 521h-64l175 -521h64z" />
    <glyph glyph-name="parenleft.lnum" horiz-adv-x="264" 
d="M-12 917h288v-1130h-288v1130zM183 688q-70 -88 -107.5 -183.5t-37.5 -193.5q0 -93 35.5 -186t107.5 -178h69q-150 173 -150 369q0 98 37 188t113 184h-67z" />
    <glyph glyph-name="parenright.lnum" horiz-adv-x="264" 
d="M276 917v-1130h-288v1130h288zM81 688h-67q76 -94 113 -184t37 -188q0 -196 -150 -369h69q72 85 107.5 178t35.5 186q0 98 -37.5 193.5t-107.5 183.5z" />
    <glyph glyph-name="bracketleft.lnum" horiz-adv-x="283" 
d="M-12 917h307v-1130h-307v1130zM83 -63h176v52h-114v671h114v52h-176v-775z" />
    <glyph glyph-name="bracketright.lnum" horiz-adv-x="283" 
d="M295 917v-1130h-307v1130h307zM200 -63v775h-176v-52h114v-671h-114v-52h176z" />
    <glyph glyph-name="braceleft.lnum" horiz-adv-x="288" 
d="M-12 917h312v-1130h-312v1130zM109 325q53 8 75 32.5t22 51.5q0 33 -19 58.5t-38.5 54.5t-19.5 72q0 65 63 65h64v52h-64q-124 0 -124 -116q0 -49 19 -80t38 -55t19 -53q0 -39 -37.5 -50.5t-60.5 -11.5h-19v-40h19q23 0 60.5 -11t37.5 -51q0 -29 -19 -54t-38 -56.5
t-19 -79.5q0 -53 31 -84t93 -31h64v52h-64q-63 0 -63 64q0 44 19.5 73.5t38.5 55t19 58.5q0 29 -22 52.5t-75 31.5z" />
    <glyph glyph-name="braceright.lnum" horiz-adv-x="288" 
d="M300 917v-1130h-312v1130h312zM179 325q-53 -8 -75 -31.5t-22 -52.5q0 -33 19 -58.5t38.5 -55t19.5 -73.5q0 -64 -63 -64h-64v-52h64q62 0 93 31t31 84q0 48 -19 79.5t-38 56.5t-19 54q0 40 37.5 51t60.5 11h19v40h-19q-23 0 -60.5 11.5t-37.5 50.5q0 29 19 53t38 55
t19 80q0 116 -124 116h-64v-52h64q63 0 63 -65q0 -43 -19.5 -72t-38.5 -54.5t-19 -58.5q0 -27 22 -51.5t75 -32.5z" />
    <glyph glyph-name="uni301A.cap" horiz-adv-x="443" 
d="M-12 917h467v-1130h-467v1130zM83 -63h335v52h-114v670h114v52h-335v-774zM145 659h97v-670h-97v670z" />
    <glyph glyph-name="uni301B.cap" horiz-adv-x="443" 
d="M455 917v-1130h-467v1130h467zM360 -63v774h-335v-52h114v-670h-114v-52h335zM298 659v-670h-97v670h97z" />
    <glyph glyph-name="dblparenleft" horiz-adv-x="425" 
d="M-12 917h449v-1130h-449v1130zM198 718q-82 -106 -121.5 -219t-39.5 -229q0 -114 38 -228.5t121 -224.5h69q-83 103 -124.5 220t-41.5 233q0 237 166 448h-67zM348 718q-82 -106 -121.5 -219t-39.5 -229q0 -114 38 -228.5t121 -224.5h70q-83 103 -124.5 220t-41.5 233
q0 237 166 448h-68z" />
    <glyph glyph-name="dblparenleft.cap" horiz-adv-x="412" 
d="M-12 917h436v-1130h-436v1130zM183 688q-70 -88 -107.5 -183.5t-37.5 -193.5q0 -93 35.5 -186t107.5 -178h69q-150 173 -150 369q0 98 37 188t113 184h-67zM331 688q-70 -88 -107.5 -183.5t-37.5 -193.5q0 -93 35.5 -186t107.5 -178h69q-150 173 -150 369q0 98 37 188
t113 184h-67z" />
    <glyph glyph-name="dblparenright" horiz-adv-x="425" 
d="M437 917v-1130h-449v1130h449zM227 718h-67q166 -211 166 -448q0 -116 -41.5 -233t-124.5 -220h69q83 110 121 224.5t38 228.5q0 116 -39 229t-122 219zM77 718h-68q166 -211 166 -448q0 -116 -41.5 -233t-124.5 -220h70q83 110 121 224.5t38 228.5q0 116 -39 229
t-122 219z" />
    <glyph glyph-name="dblparenright.cap" horiz-adv-x="412" 
d="M424 917v-1130h-436v1130h436zM229 688h-67q76 -94 113 -184t37 -188q0 -196 -150 -369h69q72 85 107.5 178t35.5 186q0 98 -37.5 193.5t-107.5 183.5zM81 688h-67q76 -94 113 -184t37 -188q0 -196 -150 -369h69q72 85 107.5 178t35.5 186q0 98 -37.5 193.5t-107.5 183.5
z" />
    <glyph glyph-name="paragraph.aalt" horiz-adv-x="529" 
d="M-12 917h553v-1130h-553v1130zM211 521q-93 0 -139 -39t-46 -94q0 -76 52 -107.5t128 -31.5h47v-249h64v467h50v-467h64v467h63v54h-283z" />
    <glyph glyph-name="ordfeminine.aalt" horiz-adv-x="413" 
d="M-12 917h437v-1130h-437v1130zM121 657h44l-98 -219h-29v-42h121v42h-42l20 46h137l19 -46h-38v-42h122v42h-31l-111 260h-114v-41zM205 647h3l53 -131h-111z" />
    <glyph glyph-name="quotedblleft.aalt" horiz-adv-x="366" 
d="M378 917v-1130h-390v1130h390zM117 332l53 216h-70l-52 -216h69zM281 332l53 216h-69l-53 -216h69z" />
    <glyph glyph-name="quotedblright.aalt" horiz-adv-x="366" 
d="M-12 -213v1130h390v-1130h-390zM93 550l-53 -217h70l53 217h-70zM258 550l-53 -217h69l53 217h-69z" />
    <glyph glyph-name="quoteleft.aalt" horiz-adv-x="203" 
d="M215 917v-1130h-227v1130h227zM117 332l53 216h-70l-52 -216h69z" />
    <glyph glyph-name="quoteright.aalt" horiz-adv-x="201" 
d="M-12 -213v1130h225v-1130h-225zM93 550l-53 -217h70l53 217h-70z" />
    <glyph glyph-name="guilsinglright.aalt" horiz-adv-x="283" 
d="M-12 917h307v-1130h-307v1130zM107 85l138 246l-138 240h-60l128 -240l-128 -246h60z" />
    <glyph glyph-name="guilsinglleft.aalt" horiz-adv-x="283" 
d="M-12 917h307v-1130h-307v1130zM237 85l-129 246l129 240h-60l-138 -240l138 -246h60z" />
    <glyph glyph-name="guillemotleft.aalt" horiz-adv-x="447" 
d="M-12 917h471v-1130h-471v1130zM237 85l-129 246l129 240h-60l-138 -240l138 -246h60zM402 85l-129 246l129 240h-61l-138 -240l138 -246h61z" />
    <glyph glyph-name="guillemotright.aalt" horiz-adv-x="447" 
d="M-12 917h471v-1130h-471v1130zM271 85l138 246l-138 240h-60l129 -240l-129 -246h60zM107 85l138 246l-138 240h-60l128 -240l-128 -246h60z" />
    <glyph glyph-name="periodcentered.aalt" horiz-adv-x="226" 
d="M-12 917h250v-1130h-250v1130zM64 201h97v102h-97v-102z" />
    <glyph glyph-name="glyph400" horiz-adv-x="566" 
d="M-12 -213v1130h590v-1130h-590zM398 388v-331h-77v-57h225v57h-77v388h-297v77q0 64 33 91t83 27q33 0 58 -7.5t37 -14.5l18 -75l58 7l-17 104q-26 19 -65 31.5t-83 12.5q-80 0 -136.5 -46.5t-56.5 -131.5v-75h-64v-57h64v-331h-77v-57h249v57h-101v331h226z" />
    <glyph glyph-name="glyph401" horiz-adv-x="566" 
d="M-12 -213v1130h590v-1130h-590zM320 0h226v57h-78v631h-70v-23q-26 20 -56.5 26.5t-70.5 6.5q-74 0 -122 -48t-48 -128v-77h-64v-57h64v-331h-77v-57h249v57h-101v331h119v57h-119v80q0 55 31 86t83 31q32 0 60 -8t52 -31v-546h-78v-57z" />
    <glyph glyph-name="glyph442" horiz-adv-x="184" 
d="M-1 703l-11 37l191 73l17 -68z" />
    <glyph glyph-name="glyph443" horiz-adv-x="220" 
d="M232 816q0 -117 -122 -117t-122 117h58q0 -40 16.5 -54.5t47.5 -14.5q64 0 64 69h58z" />
    <glyph glyph-name="glyph444" horiz-adv-x="250" 
d="M136 701h-22l-126 89l20 34l120 -61l115 64l19 -35z" />
    <glyph glyph-name="glyph445" horiz-adv-x="250" 
d="M243 702l-120 62l-116 -63l-19 33l127 93h21l126 -90z" />
    <glyph glyph-name="glyph446" horiz-adv-x="228" 
d="M-12 803h81v-85h-81v85zM160 803h80v-85h-80v85z" />
    <glyph glyph-name="glyph447" horiz-adv-x="57" 
d="M-12 803h81v-85h-81v85z" />
    <glyph glyph-name="glyph448" horiz-adv-x="310" 
d="M14 703l-26 26l134 153l49 -51zM124 703l-10 37l190 73l18 -68z" />
    <glyph glyph-name="glyph449" horiz-adv-x="184" 
d="M186 703l-198 42l17 68l191 -73z" />
    <glyph glyph-name="glyph450" horiz-adv-x="255" 
d="M-12 733v57h279v-57h-279z" />
    <glyph glyph-name="glyph451" horiz-adv-x="260" 
d="M272 798q-8 -40 -25 -64.5t-53 -24.5q-38 0 -66 17.5t-57 17.5q-14 0 -28.5 -7.5t-21.5 -31.5l-33 13q4 26 24 54t58 28q33 0 58 -17.5t61 -17.5q13 0 26 7t21 35z" />
    <glyph glyph-name="commaaccent" horiz-adv-x="51" 
d="M45 -218h-57l8 154h67z" />
    <glyph glyph-name="glyph453" horiz-adv-x="173" 
d="M185 784q0 -41 -24.5 -67.5t-74.5 -26.5q-98 0 -98 92q0 41 26 66.5t73 25.5q51 0 74.5 -25.5t23.5 -64.5zM136 784q0 20 -11 35t-39 15q-49 0 -49 -52t49 -52q50 0 50 54z" />
    <glyph glyph-name="glyph454" horiz-adv-x="55" 
d="M45 457h-57l13 224h66z" />
    <glyph glyph-name="uni0030.zero.c2sc" horiz-adv-x="497" 
d="M-12 917h521v-1130h-521v1130zM43 256q0 -109 42.5 -186.5t160.5 -77.5t163 78t45 193q0 65 -16 126t-60 100.5t-128 39.5q-83 0 -128 -39.5t-62 -102t-17 -131.5zM119 263q0 84 23.5 147t106.5 63t106 -63.5t23 -142.5q0 -96 -25 -156.5t-105 -60.5t-104.5 61t-24.5 152
zM219 313v-89h60v89h-60z" />
    <glyph glyph-name="uni0030.c2sc" horiz-adv-x="498" 
d="M-12 917h522v-1130h-522v1130zM43 256q0 -109 42.5 -186.5t160.5 -77.5t163 78t45 193q0 65 -16 126t-60 100.5t-128 39.5q-83 0 -128 -39.5t-62 -102t-17 -131.5zM119 263q0 84 23.5 147t106.5 63t106 -63.5t23 -142.5q0 -96 -25 -156.5t-105 -60.5t-104.5 61t-24.5 152
z" />
    <glyph glyph-name="uni0031.c2sc" horiz-adv-x="329" 
d="M-12 917h353v-1130h-353v1130zM36 465h106v-409h-106v-56h279v56h-102v465h-177v-56z" />
    <glyph glyph-name="uni0032.c2sc" horiz-adv-x="453" 
d="M-12 917h477v-1130h-477v1130zM95 374l17 77q38 19 83 19q116 0 116 -98q0 -64 -75.5 -143.5t-201.5 -174.5l7 -54h369l13 140l-61 4l-11 -83h-222q49 34 109.5 86t105 112.5t44.5 119.5q0 54 -41 103t-135 49q-48 0 -88 -12.5t-71 -30.5l-16 -108z" />
    <glyph glyph-name="uni0033.c2sc" horiz-adv-x="448" 
d="M-12 917h472v-1130h-472v1130zM116 370l18 83q36 21 80 21q96 0 96 -81q0 -91 -131 -99v-46q85 -3 119 -28t34 -72q0 -39 -23.5 -70.5t-87.5 -31.5q-45 0 -71.5 17.5t-42.5 48.5l-52 -31q16 -37 59 -64t107 -27q85 0 136 42t51 109q0 49 -29.5 86.5t-101.5 46.5v4
q60 18 84 51.5t24 73.5q0 61 -45.5 93.5t-110.5 32.5q-49 0 -89 -14.5t-63 -30.5l-14 -107z" />
    <glyph glyph-name="uni0034.c2sc" horiz-adv-x="467" 
d="M-12 917h491v-1130h-491v1130zM351 0v127h80l8 54h-88v340h-143l-191 -340l9 -54h255v-127h70zM281 181h-197l158 284h39v-284z" />
    <glyph glyph-name="uni0035.c2sc" horiz-adv-x="437" 
d="M-12 917h461v-1130h-461v1130zM403 156q0 101 -70.5 132.5t-158.5 31.5h-39v145h183l10 -82l57 5l-7 133h-309v-237l24 -21q36 3 74 3q64 0 112.5 -20t48.5 -93q0 -48 -30.5 -77.5t-88.5 -29.5q-67 0 -120 58l-43 -37q21 -35 67 -55t98 -20q81 0 136.5 44t55.5 120z" />
    <glyph glyph-name="uni0036.c2sc" horiz-adv-x="460" 
d="M-12 917h484v-1130h-484v1130zM415 166q0 63 -35 111t-119 48q-62 0 -96 -26.5t-47 -57.5v10q2 110 30 167t102 57q66 0 116 -56l34 41q-22 26 -60 47.5t-96 21.5q-106 0 -153 -80t-47 -203q0 -110 41 -182t150 -72q93 0 136.5 51t43.5 123zM343 162q0 -52 -24.5 -82
t-80.5 -30q-59 0 -84 30.5t-32 78.5q1 35 26 73t95 38q100 0 100 -108z" />
    <glyph glyph-name="uni0037.c2sc" horiz-adv-x="399" 
d="M-12 917h423v-1130h-423v1130zM26 521v-144h62v89h224l-200 -466h69l207 485l-10 36h-352z" />
    <glyph glyph-name="uni0038.c2sc" horiz-adv-x="466" 
d="M-12 917h490v-1130h-490v1130zM228 -8q84 0 140 37t56 104q0 56 -39 88.5t-89 54.5q46 20 79.5 47t33.5 77q0 58 -51 93.5t-126 35.5q-78 0 -127 -37.5t-49 -96.5q0 -49 33.5 -79t78.5 -51q-50 -20 -88.5 -50.5t-38.5 -87.5q0 -66 53 -100.5t134 -34.5zM131 401
q0 35 28.5 55t72.5 20q41 0 73.5 -20t32.5 -63q0 -36 -27.5 -57t-65.5 -38q-46 20 -80 43t-34 60zM231 46q-53 0 -86 24t-33 68q0 41 32 64t73 41q52 -22 92 -46.5t40 -68.5q0 -38 -33.5 -60t-84.5 -22z" />
    <glyph glyph-name="uni0039.c2sc" horiz-adv-x="460" 
d="M-12 917h484v-1130h-484v1130zM416 276q0 110 -41 181.5t-150 71.5q-93 0 -136.5 -51t-43.5 -123q0 -63 35 -110.5t118 -47.5q63 0 96.5 25.5t47.5 57.5q0 -7 -1 -8q-1 -111 -29 -168t-102 -57q-64 0 -108 54l-35 -41q25 -29 63 -48.5t90 -19.5q107 0 151.5 83t44.5 201z
M338 357q-2 -36 -28.5 -71t-92.5 -35q-100 0 -100 108q0 52 24.5 82.5t80.5 30.5q60 0 84.5 -33t31.5 -82z" />
    <glyph glyph-name="uni0030.zero.case" horiz-adv-x="570" 
d="M-12 917h594v-1130h-594v1130zM45 319q0 -91 20.5 -165.5t72.5 -119t145 -44.5q139 0 190.5 97t51.5 241q0 81 -18 157.5t-69.5 125.5t-149.5 49t-150.5 -49t-72.5 -127t-20 -165zM123 327q0 71 12 132.5t47 98.5t104 37q70 0 104.5 -37.5t45.5 -97.5t11 -126
q0 -123 -31.5 -201t-130.5 -78q-100 0 -131 78.5t-31 193.5zM255 391v-111h57v111h-57z" />
    <glyph glyph-name="uni0030.lnum" horiz-adv-x="570" 
d="M-12 917h594v-1130h-594v1130zM45 319q0 -91 20.5 -165.5t72.5 -119t145 -44.5q139 0 190.5 97t51.5 241q0 81 -18 157.5t-69.5 125.5t-149.5 49t-150.5 -49t-72.5 -127t-20 -165zM123 327q0 71 12 132.5t47 98.5t104 37q70 0 104.5 -37.5t45.5 -97.5t11 -126
q0 -123 -31.5 -201t-130.5 -78q-100 0 -131 78.5t-31 193.5z" />
    <glyph glyph-name="uni0031.lnum" horiz-adv-x="370" 
d="M-12 917h394v-1130h-394v1130zM36 586h127v-522h-127v-64h322v64h-122v586h-200v-64z" />
    <glyph glyph-name="uni0032.lnum" horiz-adv-x="514" 
d="M-12 917h538v-1130h-538v1130zM107 482l19 88q38 27 108 27q60 0 93.5 -33t33.5 -83q0 -71 -51.5 -144t-127.5 -144t-148 -136l8 -57h418l19 149l-63 7l-19 -92h-266q36 32 88 77.5t102.5 101t84.5 118t34 129.5q0 74 -52 122t-139 48q-65 0 -109 -17t-75 -43l-17 -111z
" />
    <glyph glyph-name="uni0033.lnum" horiz-adv-x="486" 
d="M-12 917h510v-1130h-510v1130zM64 609l-17 -110l58 -7l17 81q48 25 97 25q56 0 87.5 -28t31.5 -77q0 -42 -34 -82.5t-128 -44.5v-54q105 -3 147 -36t42 -92q0 -50 -27.5 -91t-107.5 -41q-63 0 -95 29t-47 69l-56 -20q12 -59 60 -100t140 -41q98 0 154.5 52t56.5 139
q0 57 -32 103t-122 61v4q71 22 98.5 63.5t27.5 90.5q0 77 -51.5 118t-130.5 41q-50 0 -95.5 -16.5t-73.5 -35.5z" />
    <glyph glyph-name="uni0034.lnum" horiz-adv-x="534" 
d="M-12 917h558v-1130h-558v1130zM509 226h-105v424h-156l-233 -424l8 -62h309v-164h72v164h97zM332 226h-246l197 361h49v-361z" />
    <glyph glyph-name="uni0035.lnum" horiz-adv-x="508" 
d="M-12 918h532v-1130h-532v1130zM468 193q0 85 -39.5 129.5t-102 60t-132.5 15.5h-25t-25 -1v190h232l10 -81l61 6l-9 138h-362v-294l25 -24q41 3 84 3q81 0 143 -25.5t62 -119.5q0 -64 -34.5 -101t-106.5 -37q-54 0 -88.5 26.5t-48.5 70.5l-57 -20q12 -59 61.5 -99.5
t138.5 -40.5q101 0 157 54t56 150z" />
    <glyph glyph-name="uni0036.lnum" horiz-adv-x="528" 
d="M-12 917h552v-1130h-552v1130zM481 205q0 80 -42 139t-141 59q-79 0 -120 -34.5t-56 -75.5v10t1 11q1 136 34 209.5t126 73.5q89 0 144 -69l43 44q-36 44 -80 66t-106 22q-131 0 -184.5 -101.5t-53.5 -251.5q0 -137 47 -227t178 -90q111 0 160.5 63t49.5 152zM407 202
q0 -68 -31 -107t-103 -39q-73 0 -105 40t-41 104q4 46 37.5 93t115.5 47q68 0 97.5 -36t29.5 -102z" />
    <glyph glyph-name="uni0037.lnum" horiz-adv-x="467" 
d="M-12 918h491v-1130h-491v1130zM453 609l-10 42h-410v-174h65v111h278l-243 -588h73z" />
    <glyph glyph-name="uni0038.lnum" horiz-adv-x="535" 
d="M-12 917h559v-1130h-559v1130zM493 163q0 73 -48.5 113t-110.5 69q54 23 96 56.5t42 96.5q0 74 -59 118t-147 44q-91 0 -148.5 -46.5t-57.5 -119.5q0 -62 40.5 -98.5t94.5 -62.5q-59 -25 -105.5 -62t-46.5 -111q0 -84 61.5 -127t157.5 -43q99 0 165 46.5t66 126.5z
M398 493q0 -47 -32 -73t-88 -51q-56 25 -98.5 54t-42.5 79q0 45 36.5 70.5t92.5 25.5q54 0 93 -25.5t39 -79.5zM416 160q0 -52 -44 -80t-108 -28q-65 0 -106.5 30.5t-41.5 87.5q0 56 38 85.5t94 53.5q64 -29 116 -60t52 -89z" />
    <glyph glyph-name="uni0039.lnum" horiz-adv-x="528" 
d="M-12 917h552v-1130h-552v1130zM46 444q0 -80 42 -138.5t142 -58.5q78 0 119 34.5t56 74.5v-20q-1 -136 -34.5 -209.5t-126.5 -73.5q-88 0 -144 68l-43 -44q36 -43 80 -65.5t106 -22.5q132 0 185.5 101.5t53.5 251.5q0 137 -48 227t-178 90q-110 0 -160 -63.5t-50 -151.5z
M121 448q0 68 30.5 106.5t102.5 38.5q74 0 105.5 -40t40.5 -104q-4 -46 -37.5 -93t-114.5 -47q-68 0 -97.5 36t-29.5 103z" />
    <glyph glyph-name="uni0030.lnum.tnum.zero" horiz-adv-x="596" 
d="M-12 917h620v-1130h-620v1130zM59 319q0 -91 20.5 -165.5t71.5 -119t145 -44.5q140 0 190.5 97t50.5 241q0 81 -18 157.5t-68.5 125.5t-149.5 49q-97 0 -149.5 -49t-72.5 -127t-20 -165zM136 327q0 71 12 132.5t47 98.5t104 37q70 0 104.5 -37.5t45.5 -97.5t11 -126
q0 -123 -32 -201t-130 -78q-100 0 -131 78.5t-31 193.5zM269 391v-111h57v111h-57z" />
    <glyph glyph-name="uni0030.lnum.tnum" horiz-adv-x="596" 
d="M-12 917h620v-1130h-620v1130zM59 319q0 -91 20.5 -165.5t71.5 -119t145 -44.5q140 0 190.5 97t50.5 241q0 81 -18 157.5t-68.5 125.5t-149.5 49q-97 0 -149.5 -49t-72.5 -127t-20 -165zM136 327q0 71 12 132.5t47 98.5t104 37q70 0 104.5 -37.5t45.5 -97.5t11 -126
q0 -123 -32 -201t-130 -78q-100 0 -131 78.5t-31 193.5z" />
    <glyph glyph-name="uni0031.lnum.tnum" horiz-adv-x="596" 
d="M-12 917h620v-1130h-620v1130zM148 586h127v-522h-127v-64h323v64h-123v586h-200v-64z" />
    <glyph glyph-name="uni0032.lnum.tnum" horiz-adv-x="596" 
d="M-12 917h620v-1130h-620v1130zM142 482l19 88q39 27 109 27q60 0 93 -33t33 -83q0 -71 -51.5 -144t-127 -144t-147.5 -136l7 -57h419l19 149l-63 7l-19 -92h-266q36 32 88 77.5t102.5 101t84.5 118t34 129.5q0 74 -52 122t-139 48q-65 0 -109 -17t-75 -43l-17 -111z" />
    <glyph glyph-name="uni0033.lnum.tnum" horiz-adv-x="596" 
d="M-12 917h620v-1130h-620v1130zM104 609l-17 -110l57 -7l18 81q47 25 97 25q118 0 118 -105q0 -42 -33.5 -82.5t-128.5 -44.5v-54q105 -3 147 -36t42 -92q0 -50 -27 -91t-107 -41q-64 0 -95.5 29t-46.5 69l-57 -20q12 -59 60 -100t141 -41q98 0 154 52t56 139
q0 57 -32 103t-121 61v4q71 22 98 63.5t27 90.5q0 77 -51.5 118t-130.5 41q-50 0 -95.5 -16.5t-72.5 -35.5z" />
    <glyph glyph-name="uni0034.lnum.tnum" horiz-adv-x="596" 
d="M-12 917h620v-1130h-620v1130zM434 -1v165h97l8 62h-105v425h-156l-233 -425l8 -62h309v-165h72zM362 226h-246l196 362h50v-362z" />
    <glyph glyph-name="uni0035.lnum.tnum" horiz-adv-x="596" 
d="M-12 917h620v-1130h-620v1130zM513 194q0 85 -39.5 129t-102 59.5t-132.5 15.5h-25t-25 -1v191h232l10 -81l61 6l-8 138h-362v-294l24 -24q42 3 84 3q82 0 143.5 -25.5t61.5 -119.5q0 -64 -34.5 -101.5t-106.5 -37.5q-53 0 -88 27t-49 71l-56 -20q12 -59 61.5 -99.5
t138.5 -40.5q101 0 156.5 53.5t55.5 150.5z" />
    <glyph glyph-name="uni0036.lnum.tnum" horiz-adv-x="596" 
d="M-12 917h620v-1130h-620v1130zM515 205q0 80 -42 139t-142 59q-78 0 -119 -34.5t-56 -75.5v21q2 136 35 209.5t126 73.5q88 0 144 -69l43 44q-36 44 -80 66t-106 22q-132 0 -185.5 -101.5t-53.5 -251.5q0 -137 47.5 -227t177.5 -90q111 0 161 63t50 152zM440 202
q0 -68 -31 -107t-103 -39q-74 0 -105.5 40t-39.5 104q4 46 37.5 93t114.5 47q68 0 97.5 -36t29.5 -102z" />
    <glyph glyph-name="uni0037.lnum.tnum" horiz-adv-x="596" 
d="M-12 917h620v-1130h-620v1130zM518 609l-10 42h-411v-174h66v111h277l-242 -588h73z" />
    <glyph glyph-name="uni0038.lnum.tnum" horiz-adv-x="596" 
d="M-12 917h620v-1130h-620v1130zM524 163q0 73 -49 113t-110 69q53 23 95.5 56.5t42.5 96.5q0 74 -59 118t-147 44q-91 0 -148.5 -46.5t-57.5 -119.5q0 -62 40 -98.5t94 -62.5q-59 -25 -105 -62t-46 -111q0 -84 61.5 -127t157.5 -43q99 0 165 46.5t66 126.5zM429 493
q0 -47 -32.5 -73t-87.5 -51q-56 25 -98.5 54t-42.5 79q0 45 37 70.5t92 25.5q54 0 93 -25.5t39 -79.5zM446 160q0 -52 -44 -80t-107 -28q-65 0 -106.5 30.5t-41.5 87.5q0 56 38 85.5t93 53.5q64 -29 116 -60t52 -89z" />
    <glyph glyph-name="uni0039.lnum.tnum" horiz-adv-x="596" 
d="M-12 917h620v-1130h-620v1130zM80 445q0 -80 42 -139t142 -59q78 0 119 34.5t56 75.5v-21q-1 -136 -34.5 -209.5t-126.5 -73.5q-88 0 -144 69l-43 -44q37 -44 81 -66t105 -22q132 0 185.5 101.5t53.5 251.5q0 137 -47.5 227t-177.5 90q-111 0 -161 -63t-50 -152zM155 448
q0 68 31 107t103 39q73 0 105 -40t41 -104q-5 -46 -38.5 -93t-114.5 -47q-68 0 -97.5 36t-29.5 102z" />
    <glyph glyph-name="uni0030.tnum.zero" horiz-adv-x="596" 
d="M-12 917h620v-1130h-620v1130zM539 259q0 115 -58 193.5t-181 78.5q-120 0 -181.5 -78.5t-61.5 -196.5q0 -121 60.5 -193.5t178.5 -72.5q117 0 180 72.5t63 196.5zM462 262q0 -207 -164 -207q-81 0 -122 54t-41 152t40.5 151.5t123.5 53.5q84 0 123.5 -55t39.5 -149z
M270 321v-111h57v111h-57z" />
    <glyph glyph-name="uni0030.tnum" horiz-adv-x="596" 
d="M-12 917h620v-1130h-620v1130zM539 259q0 115 -58 193.5t-181 78.5q-120 0 -181.5 -78.5t-61.5 -196.5q0 -121 60.5 -193.5t178.5 -72.5q117 0 180 72.5t63 196.5zM462 262q0 -207 -164 -207q-81 0 -122 54t-41 152t40.5 151.5t123.5 53.5q84 0 123.5 -55t39.5 -149z" />
    <glyph glyph-name="uni0031.tnum" horiz-adv-x="596" 
d="M-12 917h620v-1130h-620v1130zM470 0v64h-118v457h-195v-64h122v-393h-122v-64h313z" />
    <glyph glyph-name="uni0032.tnum" horiz-adv-x="596" 
d="M-12 917h620v-1130h-620v1130zM116 487l-17 -110l58 -7l17 75q25 11 54.5 17t50.5 6q120 0 120 -100q0 -74 -84 -144.5t-226 -166.5l7 -57h406l11 139l-61 5l-9 -80h-260q55 33 123.5 79.5t119 105t50.5 127.5q0 55 -41 105t-139 50q-45 0 -94.5 -11.5t-85.5 -32.5z" />
    <glyph glyph-name="uni0033.tnum" horiz-adv-x="596" 
d="M-12 917h620v-1130h-620v1130zM105 479l-17 -110l58 -7l17 81q47 25 97 25q118 0 118 -105q0 -42 -33.5 -82.5t-128.5 -44.5v-54q105 -3 147 -36t42 -92q0 -50 -27.5 -91t-106.5 -41q-64 0 -95.5 29t-46.5 69l-57 -20q12 -59 60 -100t141 -41q97 0 153.5 52t56.5 139
q0 57 -32 103t-121 61v4q70 22 97.5 63.5t27.5 90.5q0 77 -51.5 118t-130.5 41q-50 0 -95.5 -16.5t-72.5 -35.5z" />
    <glyph glyph-name="uni0034.tnum" horiz-adv-x="596" 
d="M-12 917h620v-1130h-620v1130zM436 -131v165h97l8 62h-105v425h-155l-234 -425l8 -62h309v-165h72zM364 96h-246l197 362h49v-362z" />
    <glyph glyph-name="uni0035.tnum" horiz-adv-x="596" 
d="M-12 917h620v-1130h-620v1130zM511 64q0 85 -39.5 129t-102 59.5t-132.5 15.5h-24.5t-24.5 -1v191h231l10 -81l62 6l-9 138h-362v-294l25 -24q41 3 83 3q82 0 143.5 -25.5t61.5 -119.5q0 -64 -34.5 -101.5t-105.5 -37.5q-54 0 -88.5 27t-48.5 71l-57 -20
q12 -59 61.5 -99.5t138.5 -40.5q101 0 156.5 53.5t55.5 150.5z" />
    <glyph glyph-name="uni0036.tnum" horiz-adv-x="596" 
d="M-12 917h620v-1130h-620v1130zM515 205q0 80 -42 139t-142 59q-78 0 -119 -34.5t-56 -75.5v21q2 136 35 209.5t126 73.5q88 0 144 -69l43 44q-36 44 -80 66t-106 22q-132 0 -185.5 -101.5t-53.5 -251.5q0 -137 47.5 -227t177.5 -90q111 0 161 63t50 152zM440 202
q0 -68 -31 -107t-103 -39q-74 0 -105.5 40t-39.5 104q4 46 37.5 93t114.5 47q68 0 97.5 -36t29.5 -102z" />
    <glyph glyph-name="uni0037.tnum" horiz-adv-x="596" 
d="M-12 917h620v-1130h-620v1130zM517 479l-10 42h-411v-174h66v111h277l-242 -588h73z" />
    <glyph glyph-name="uni0038.tnum" horiz-adv-x="596" 
d="M-12 917h620v-1130h-620v1130zM524 163q0 73 -49 113t-110 69q53 23 95.5 56.5t42.5 96.5q0 74 -59 118t-147 44q-91 0 -148.5 -46.5t-57.5 -119.5q0 -62 40 -98.5t94 -62.5q-59 -25 -105 -62t-46 -111q0 -84 61.5 -127t157.5 -43q99 0 165 46.5t66 126.5zM429 493
q0 -47 -32.5 -73t-87.5 -51q-56 25 -98.5 54t-42.5 79q0 45 37 70.5t92 25.5q54 0 93 -25.5t39 -79.5zM446 160q0 -52 -44 -80t-107 -28q-65 0 -106.5 30.5t-41.5 87.5q0 56 38 85.5t93 53.5q64 -29 116 -60t52 -89z" />
    <glyph glyph-name="uni0039.tnum" horiz-adv-x="596" 
d="M-12 917h620v-1130h-620v1130zM79 315q0 -80 42.5 -139t141.5 -59q78 0 119.5 34.5t55.5 75.5v-21q-2 -136 -34.5 -209.5t-125.5 -73.5q-89 0 -145 69l-43 -44q37 -44 81 -66t106 -22q131 0 184.5 101.5t53.5 251.5q0 137 -47.5 227t-177.5 90q-111 0 -161 -63t-50 -152z
M154 318q0 68 31 107t103 39q74 0 105.5 -40t40.5 -104q-4 -46 -37.5 -93t-115.5 -47q-67 0 -97 36t-30 102z" />
    <glyph glyph-name="uni0030.zero.numr" horiz-adv-x="375" 
d="M-12 917h399v-1130h-399v1130zM37 468q0 -76 31.5 -130t116.5 -54q86 0 119.5 55t33.5 134q0 67 -29 127t-121 60q-91 0 -121 -59.5t-30 -132.5zM100 474q0 56 16 97.5t71 41.5q57 0 72.5 -41.5t15.5 -95.5q0 -64 -18 -104.5t-71 -40.5t-69.5 41.5t-16.5 101.5z" />
    <glyph glyph-name="uni0031.numr" horiz-adv-x="256" 
d="M-12 915h280v-1130h-280v1130zM33 607h75v-274h-75v-45h205v45h-72v319h-133v-45z" />
    <glyph glyph-name="uni0032.numr" horiz-adv-x="344" 
d="M-12 917h368v-1130h-368v1130zM85 542l13 56q26 17 57 17q38 0 54.5 -16.5t16.5 -40.5q0 -38 -31 -77t-76 -77t-87 -73l5 -41h272l10 94l-47 5l-10 -54h-156q26 21 69.5 56t79 79.5t35.5 92.5q0 37 -28 67t-92 30q-32 0 -64.5 -9t-54.5 -28l-11 -76z" />
    <glyph glyph-name="uni0033.numr" horiz-adv-x="338" 
d="M-12 917h362v-1130h-362v1130zM91 548l12 50q28 16 59 16q64 0 64 -52q0 -60 -90 -64v-38q58 -2 81 -18.5t23 -44.5q0 -29 -21 -48.5t-58 -19.5q-39 0 -58.5 19.5t-25.5 43.5l-42 -12q15 -97 124 -97q59 0 101.5 27t42.5 81q0 31 -19.5 57t-69.5 34v2q40 12 56.5 35.5
t16.5 50.5q0 40 -30 64.5t-81 24.5q-29 0 -63.5 -8.5t-56.5 -28.5l-10 -69z" />
    <glyph glyph-name="uni0034.numr" horiz-adv-x="353" 
d="M-12 915h377v-1130h-377v1130zM206 287h58v89h57l4 45h-61v231h-114l-130 -232l6 -44h180v-89zM179 607h27v-186h-133z" />
    <glyph glyph-name="uni0035.numr" horiz-adv-x="331" 
d="M-12 915h355v-1130h-355v1130zM300 397q0 71 -50 93t-113 22h-27v95h123l6 -50l46 5l-5 90h-225v-169l20 -16q13 1 26.5 1.5t28.5 0.5q41 0 74.5 -13t33.5 -59q0 -70 -80 -70q-39 0 -58 19.5t-25 43.5l-42 -12q6 -45 39.5 -71t84.5 -26q59 0 101 27.5t42 88.5z" />
    <glyph glyph-name="uni0036.numr" horiz-adv-x="344" 
d="M-12 917h368v-1130h-368v1130zM193 615q15 0 33.5 -6.5t39.5 -31.5l32 34q-28 29 -57.5 39t-54.5 10q-75 0 -112 -58t-37 -144q0 -74 30.5 -124t107.5 -50q66 0 98.5 36t32.5 88q0 43 -24 77t-84 34q-43 0 -66.5 -17t-32.5 -38q1 151 94 151zM181 475q66 0 66 -70
q0 -74 -70 -74q-40 0 -56 21.5t-20 56.5q1 23 19 44.5t61 21.5z" />
    <glyph glyph-name="uni0037.numr" horiz-adv-x="304" 
d="M-12 915h328v-1130h-328v1130zM27 652v-107h51v62h149l-139 -319h58l144 336l-8 28h-255z" />
    <glyph glyph-name="uni0038.numr" horiz-adv-x="349" 
d="M-12 917h373v-1130h-373v1130zM170 284q62 0 103 26.5t41 73.5q0 40 -28.5 63t-64.5 39q32 13 56 31.5t24 52.5q0 40 -36 65t-91 25q-58 0 -93.5 -26.5t-35.5 -69.5q0 -34 23.5 -55t55.5 -36q-34 -13 -61.5 -33.5t-27.5 -60.5q0 -47 38.5 -71t96.5 -24zM108 570
q0 47 66 47q26 0 46.5 -12.5t20.5 -41.5q0 -24 -16.5 -37.5t-38.5 -23.5q-32 14 -55 28t-23 40zM173 327q-79 0 -79 62q0 27 19 42t45 27q36 -15 64.5 -31.5t28.5 -46.5q0 -24 -22 -38.5t-56 -14.5z" />
    <glyph glyph-name="uni0039.numr" horiz-adv-x="343" 
d="M-12 917h367v-1130h-367v1130zM154 329q-14 0 -35 6.5t-41 31.5l-32 -34q27 -29 58.5 -39t56.5 -10q74 0 110 57t36 143q0 76 -31 126t-108 50q-65 0 -98 -36t-33 -88q0 -43 24 -77t85 -34q42 0 65 16.5t33 37.5q-1 -79 -21 -114.5t-69 -35.5zM162 469q-66 0 -66 70
q0 74 71 74q39 0 55 -21.5t21 -57.5q-2 -22 -20 -43.5t-61 -21.5z" />
    <glyph glyph-name="copyright.aalt" horiz-adv-x="763" 
d="M-12 917h787v-1130h-787v1130zM715 327q0 92 -45 167.5t-120.5 120.5t-168.5 45q-92 0 -167.5 -45t-120.5 -120.5t-45 -167.5t45 -167.5t120.5 -120.5t167.5 -45q93 0 168.5 45t120.5 120.5t45 167.5zM672 326q0 -124 -84.5 -207.5t-205.5 -83.5q-80 0 -146.5 39.5
t-105.5 106t-39 146.5q0 120 82.5 206t207.5 86q123 0 207 -85.5t84 -207.5zM506 185l10 68l-43 4l-10 -46q-31 -16 -70 -16q-127 0 -127 138q0 65 31 102t88 37q30 0 46 -6t34 -18l10 -47l43 4l-10 69q-22 19 -52 30.5t-74 11.5q-75 0 -123 -54t-48 -130q0 -77 48 -128.5
t127 -51.5q81 0 120 33z" />
    <glyph glyph-name="uni2117.pnum_lnum" horiz-adv-x="762" 
d="M-12 917h786v-1130h-786v1130zM381 -6q93 0 168.5 45t120.5 120.5t45 167.5t-45 167.5t-120.5 120.5t-168.5 45q-92 0 -167.5 -45t-120.5 -120.5t-45 -167.5t45 -167.5t120.5 -120.5t167.5 -45zM381 35q-80 0 -146 39.5t-105 106t-39 146.5q0 121 82.5 206.5t207.5 85.5
q82 0 148 -39.5t104.5 -105.5t38.5 -147q0 -125 -85 -208.5t-206 -83.5zM238 114h178v47h-70v104h78q62 0 104 34t42 99q0 52 -35.5 89t-114.5 37h-182v-46h52v-317h-52v-47zM415 478q94 0 94 -82q0 -86 -93 -86h-70v168h69z" />
    <glyph glyph-name="uni267E.pnum_lnum" horiz-adv-x="763" 
d="M-12 917h787v-1130h-787v1130zM381 -6q93 0 168.5 45t120.5 120.5t45 167.5t-45 167.5t-120.5 120.5t-168.5 45q-92 0 -167.5 -45t-120.5 -120.5t-45 -167.5t45 -167.5t120.5 -120.5t167.5 -45zM381 35q-80 0 -146 39.5t-105 106t-39 146.5q0 121 82.5 206.5t207.5 85.5
q82 0 148 -39.5t104.5 -105.5t38.5 -147q0 -125 -85 -208.5t-206 -83.5zM486 219q43 0 72 29.5t29 82.5q0 51 -26.5 81t-69.5 30q-42 0 -66.5 -27t-44.5 -59q-17 32 -40.5 59t-63.5 27q-42 0 -71.5 -30t-29.5 -83q0 -50 28.5 -80t71.5 -30q41 0 64 24.5t41 55.5
q18 -31 42 -55.5t64 -24.5zM487 403q59 0 59 -71q0 -39 -19.5 -57.5t-44.5 -18.5q-32 0 -52 21t-35 50q17 29 37 52.5t55 23.5zM276 256q-61 0 -61 73q0 38 18.5 56t43.5 18q32 0 51.5 -23t36.5 -53q-17 -28 -37 -49.5t-52 -21.5z" />
    <glyph glyph-name="uni0061.sc" horiz-adv-x="528" 
d="M129 521v-56h86l-177 -409h-50v861h552v-861h-53l-197 465h-161zM261 428h5l89 -228h-187zM-12 -213v213h197v56h-75l37 92h229l36 -92h-70v-56h198v-213h-552z" />
    <glyph glyph-name="uni0062.sc" horiz-adv-x="522" 
d="M-12 917h546v-1130h-546v1130zM40 521v-56h67v-409h-67v-56h261q91 0 137 43t46 106q0 49 -28.5 86t-88.5 46v4q94 18 94 113q0 54 -41 88.5t-123 34.5h-257zM283 465q47 0 75 -17.5t28 -63.5q0 -44 -29 -66.5t-78 -22.5h-101v170h105zM304 243q104 0 104 -92
q0 -49 -33 -72t-88 -23h-109v187h126z" />
    <glyph glyph-name="uni0063.sc" horiz-adv-x="540" 
d="M-12 -213v1130h564v-1130h-564zM481 42l16 119l-60 6l-19 -96q-51 -21 -112 -21q-83 0 -137.5 56.5t-54.5 153.5q0 94 52.5 153t138.5 59q67 0 110 -20l19 -97l60 6l-17 118q-61 50 -180 50q-113 0 -186 -79t-73 -192q0 -115 73 -190.5t184 -75.5q56 0 105.5 14.5
t80.5 35.5z" />
    <glyph glyph-name="uni0064.sc" horiz-adv-x="603" 
d="M-12 -213v1130h627v-1130h-627zM107 55h-66v-55h248q129 0 202.5 73t73.5 188q0 114 -72 187t-208 73h-244v-56h66v-410zM284 465q100 0 152.5 -55t52.5 -149q0 -95 -53 -150.5t-152 -55.5h-106v410h106z" />
    <glyph glyph-name="uni0065.sc" horiz-adv-x="508" 
d="M-12 -213v1130h532v-1130h-532zM40 0h408l20 147l-61 7l-18 -98h-212v181h253v55h-253v173h212l18 -97l60 9l-18 144h-409v-56h67v-409h-67v-56z" />
    <glyph glyph-name="uni0066.sc" horiz-adv-x="482" 
d="M-12 917h506v-1130h-506v1130zM454 370l-17 151h-397v-56h67v-409h-67v-56h232v56h-95v157h246v57h-246v195h200l15 -101z" />
    <glyph glyph-name="uni0067.sc" horiz-adv-x="594" 
d="M-12 -213v1130h618v-1130h-618zM461 68l6 -68h57v215h39v55h-237v-55h128v-46q-2 -48 -41.5 -83.5t-109.5 -35.5q-85 0 -137 57t-52 154q0 94 50 152.5t141 58.5q69 0 118 -26l19 -94l61 6l-17 118q-63 53 -186 53q-116 0 -189 -79t-73 -192q0 -112 70 -189t182 -77
q58 0 102.5 21.5t68.5 54.5z" />
    <glyph glyph-name="uni0068.sc" horiz-adv-x="644" 
d="M-12 -213v1130h668v-1130h-668zM400 56v-56h204v56h-67v409h67v56h-204v-56h67v-172h-289v172h66v56h-204v-56h67v-409h-67v-56h204v56h-66v182h289v-182h-67z" />
    <glyph glyph-name="uni0131.aalt" horiz-adv-x="284" 
d="M-12 -213v1130h308v-1130h-308zM40 521v-56h67v-409h-67v-56h204v56h-66v409h66v56h-204z" />
    <glyph glyph-name="uni006A.sc" horiz-adv-x="399" 
d="M-12 -213v1130h423v-1130h-423zM128 521v-56h106v-330q0 -83 -79 -83q-27 0 -48 12t-38 44l-50 -35q18 -35 49.5 -58t89.5 -23q68 0 107.5 35.5t39.5 107.5v330h59v56h-236z" />
    <glyph glyph-name="uni006B.sc" horiz-adv-x="556" 
d="M-12 -213v1130h580v-1130h-580zM333 522v-56h63l-133 -173h-85v172h61v56h-199v-56h67v-409h-67v-56h197v56h-59v182h82l140 -182h-61v-56h204v56h-61l-165 214l155 196h61v56h-200z" />
    <glyph glyph-name="uni006C.sc" horiz-adv-x="472" 
d="M-12 -213v1130h496v-1130h-496zM40 0h395l19 167l-61 6l-19 -117h-197v409h88v56h-225v-56h67v-409h-67v-56z" />
    <glyph glyph-name="uni006D.sc" horiz-adv-x="753" 
d="M-12 -213v1130h777v-1130h-777zM36 521v-56h71v-409h-67v-56h198v56h-64v316h4l181 -344h36l177 342h3v-314h-62v-56h198v56h-66v409h71v56h-132l-202 -395h-3l-211 395h-132z" />
    <glyph glyph-name="uni006E.sc" horiz-adv-x="633" 
d="M-12 -213v1130h657v-1130h-657zM385 521v-56h82v-332h-4l-305 388h-122v-56h71v-409h-63v-56h215v56h-85v342h4l312 -398h44v465h67v56h-216z" />
    <glyph glyph-name="uni006F.sc" 
d="M-12 -213v1130h646v-1130h-646zM312 529q-123 0 -198.5 -78t-75.5 -191q0 -110 73 -189t199 -79q125 0 200 79t75 190t-74.5 189.5t-198.5 78.5zM312 50q-94 0 -146.5 63t-52.5 148q0 89 53 150t145 61q90 0 144.5 -60t54.5 -153q0 -89 -52.5 -149t-145.5 -60z" />
    <glyph glyph-name="uni0070.sc" horiz-adv-x="497" 
d="M-12 -213v1130h521v-1130h-521zM40 56v-56h229v56h-91v137h102q80 0 133.5 43t53.5 123q0 68 -45.5 115t-146.5 47h-235v-56h67v-409h-67zM268 465q124 0 124 -107q0 -110 -123 -110h-91v217h90z" />
    <glyph glyph-name="uni0071.sc" horiz-adv-x="628" 
d="M-12 -213v1130h652v-1130h-652zM312 529q-123 0 -198.5 -78t-75.5 -191q0 -110 73 -189t199 -79q86 0 151 41l69 -65l41 39l-64 61q78 76 78 193q0 111 -74.5 189.5t-198.5 78.5zM319 171l97 -94q-42 -27 -104 -27q-94 0 -146.5 63t-52.5 148q0 89 53 150t145 61
q90 0 144.5 -60t54.5 -153q0 -87 -50 -145l-100 97z" />
    <glyph glyph-name="uni0072.sc" horiz-adv-x="532" 
d="M-12 -213v1130h556v-1130h-556zM40 56v-56h208v56h-70v160h97q8 0 11 1l117 -217h114v56h-67l-95 172q43 11 79.5 46t36.5 100q0 64 -46 105.5t-147 41.5h-238v-56h67v-409h-67zM268 465q68 0 98 -22.5t30 -71.5q0 -48 -29 -75t-99 -27h-90v196h90z" />
    </font>
</defs>
</svg>
